<svg width="28" height="46" viewBox="0 0 28 46" fill="none" xmlns="http://www.w3.org/2000/svg">
<g filter="url(#filter0_d)">
<path d="M24.0914 29.2771H18.9483C18.6545 19.4779 16.2695 9.27273 9.63024 2L3.27212 8.75325C7.53891 14.987 9.63024 19.6623 9.63024 29.2814H3.90554C3.53903 29.2814 3.20838 29.5246 3.07692 29.8872C2.92553 30.2499 3.00122 30.6638 3.27212 30.9411L13.3511 41.7147C13.7017 42.0944 14.2753 42.0944 14.6259 41.7189L24.7368 30.9454C24.9917 30.6595 25.0714 30.2414 24.932 29.883C24.7925 29.516 24.4619 29.2771 24.0914 29.2771Z" fill="white"/>
<path d="M18.4485 29.2921L18.4631 29.7771H18.9483H24.0914C24.2375 29.7771 24.3927 29.8715 24.4646 30.0606L24.4646 30.0606L24.466 30.0643C24.5353 30.2423 24.4967 30.4602 24.3671 30.6086L14.2613 41.3768L14.2604 41.3777C14.108 41.541 13.8715 41.5412 13.7185 41.3755L13.7162 41.3731L3.63725 30.5995L3.63733 30.5995L3.6298 30.5917C3.50274 30.4617 3.46217 30.2623 3.53833 30.0798L3.54292 30.0688L3.54699 30.0576C3.61255 29.8768 3.76603 29.7814 3.90554 29.7814H9.63024H10.1302V29.2814C10.1302 24.4348 9.60333 20.8045 8.5253 17.5889C7.48606 14.489 5.94327 11.801 3.91143 8.80362L9.62101 2.73922C15.8721 9.85777 18.1618 19.729 18.4485 29.2921Z" stroke="black" stroke-opacity="0.28"/>
</g>
<defs>
<filter id="filter0_d" x="0" y="0" width="28" height="46" filterUnits="userSpaceOnUse" color-interpolation-filters="sRGB">
<feFlood flood-opacity="0" result="BackgroundImageFix"/>
<feColorMatrix in="SourceAlpha" type="matrix" values="0 0 0 0 0 0 0 0 0 0 0 0 0 0 0 0 0 0 127 0"/>
<feOffset dy="1"/>
<feGaussianBlur stdDeviation="1.5"/>
<feColorMatrix type="matrix" values="0 0 0 0 0 0 0 0 0 0 0 0 0 0 0 0 0 0 0.2 0"/>
<feBlend mode="normal" in2="BackgroundImageFix" result="effect1_dropShadow"/>
<feBlend mode="normal" in="SourceGraphic" in2="effect1_dropShadow" result="shape"/>
</filter>
</defs>
</svg>
