<svg width="46" height="28" viewBox="0 0 46 28" fill="none" xmlns="http://www.w3.org/2000/svg">
<g filter="url(#filter0_d)">
<mask id="path-1-inside-1" fill="white">
<path d="M15.7229 2.90861V8.05168C25.5221 8.3455 35.7273 10.7305 43 17.3698L36.2468 23.7279C30.013 19.4611 25.3377 17.3698 15.7186 17.3698V23.0945C15.7186 23.461 15.4754 23.7916 15.1128 23.9231C14.7501 24.0745 14.3362 23.9988 14.0589 23.7279L3.28535 13.6489C2.9056 13.2983 2.9056 12.7247 3.28108 12.3741L14.0546 2.26324C14.3405 2.00827 14.7586 1.9286 15.117 2.06803C15.484 2.20746 15.7229 2.53812 15.7229 2.90861Z"/>
</mask>
<path d="M15.7229 2.90861V8.05168C25.5221 8.3455 35.7273 10.7305 43 17.3698L36.2468 23.7279C30.013 19.4611 25.3377 17.3698 15.7186 17.3698V23.0945C15.7186 23.461 15.4754 23.7916 15.1128 23.9231C14.7501 24.0745 14.3362 23.9988 14.0589 23.7279L3.28535 13.6489C2.9056 13.2983 2.9056 12.7247 3.28108 12.3741L14.0546 2.26324C14.3405 2.00827 14.7586 1.9286 15.117 2.06803C15.484 2.20746 15.7229 2.53812 15.7229 2.90861Z" fill="white"/>
<path d="M15.7229 2.90861V8.05168C25.5221 8.3455 35.7273 10.7305 43 17.3698L36.2468 23.7279C30.013 19.4611 25.3377 17.3698 15.7186 17.3698V23.0945C15.7186 23.461 15.4754 23.7916 15.1128 23.9231C14.7501 24.0745 14.3362 23.9988 14.0589 23.7279L3.28535 13.6489C2.9056 13.2983 2.9056 12.7247 3.28108 12.3741L14.0546 2.26324C14.3405 2.00827 14.7586 1.9286 15.117 2.06803C15.484 2.20746 15.7229 2.53812 15.7229 2.90861Z" stroke="black" stroke-opacity="0.28" stroke-width="2" mask="url(#path-1-inside-1)"/>
</g>
<defs>
<filter id="filter0_d" x="0" y="0" width="46" height="28" filterUnits="userSpaceOnUse" color-interpolation-filters="sRGB">
<feFlood flood-opacity="0" result="BackgroundImageFix"/>
<feColorMatrix in="SourceAlpha" type="matrix" values="0 0 0 0 0 0 0 0 0 0 0 0 0 0 0 0 0 0 127 0"/>
<feOffset dy="1"/>
<feGaussianBlur stdDeviation="1.5"/>
<feColorMatrix type="matrix" values="0 0 0 0 0 0 0 0 0 0 0 0 0 0 0 0 0 0 0.2 0"/>
<feBlend mode="normal" in2="BackgroundImageFix" result="effect1_dropShadow"/>
<feBlend mode="normal" in="SourceGraphic" in2="effect1_dropShadow" result="shape"/>
</filter>
</defs>
</svg>
