# Blender v2.91.0 OBJ File: 'semi.blend'
# www.blender.org
mtllib semi.mtl
o stage_Cube.001
v -6.294929 8.994900 0.000000
v 6.294929 8.994900 0.000000
v -3.776958 8.994900 0.000000
v 5.035943 8.994900 0.000000
v 1.258986 8.994900 0.000000
v -2.517972 8.994900 0.000000
v 2.517972 8.994900 0.000000
v -1.258986 8.994900 0.000000
v -5.035943 8.994900 0.000000
v 3.776957 8.994900 0.000000
v -0.000000 8.994900 0.000000
v -5.035943 10.074109 0.750000
v -6.294929 8.994900 0.750000
v 6.294929 8.994900 0.750000
v 5.035943 10.074109 0.750000
v 3.776957 10.863662 0.750000
v 2.517972 11.265323 0.750000
v 1.258986 11.475293 0.750000
v -0.000000 11.541440 0.750000
v -1.258986 11.475293 0.750000
v -2.517972 11.265323 0.750000
v -3.776958 10.863662 0.750000
v 5.035943 8.994900 0.750000
v 3.776957 8.994900 0.750000
v 2.517972 8.994900 0.750000
v 1.258986 8.994900 0.750000
v -0.000000 8.994900 0.750000
v -1.258986 8.994900 0.750000
v -2.517972 8.994900 0.750000
v -3.776958 8.994900 0.750000
v -5.035943 8.994900 0.750000
vt 0.300000 0.500000
vt 0.275000 0.500000
vt 0.300000 0.500000
vt 0.200000 0.500000
vt 0.175000 0.500000
vt 0.200000 0.500000
vt 0.225000 0.500000
vt 0.225000 0.500000
vt 0.325000 0.500000
vt 0.325000 0.500000
vt 0.175000 0.500000
vt 0.150000 0.500000
vt 0.250000 0.500000
vt 0.250000 0.500000
vt 0.150000 0.500000
vt 0.125000 0.500000
vt 0.350000 0.500000
vt 0.350000 0.500000
vt 0.375000 0.500000
vt 0.375000 0.500000
vt 0.275000 0.500000
vt 0.175000 0.500000
vt 0.275000 0.500000
vt 0.350000 0.500000
vt 0.150000 0.500000
vt 0.125000 0.500000
vt 0.225000 0.500000
vt 0.325000 0.500000
vt 0.200000 0.500000
vt 0.300000 0.500000
vt 0.250000 0.500000
vn 0.0000 -1.0000 0.0000
vn 0.0000 0.0000 1.0000
usemtl stage
s off
f 25/1/1 5/2/1 7/3/1
f 29/4/1 3/5/1 6/6/1
f 28/7/1 6/6/1 8/8/1
f 24/9/1 7/3/1 10/10/1
f 30/11/1 9/12/1 3/5/1
f 27/13/1 8/8/1 11/14/1
f 31/15/1 1/16/1 9/12/1
f 23/17/1 10/10/1 4/18/1
f 14/19/1 4/18/1 2/20/1
f 26/21/1 11/14/1 5/2/1
f 29/4/2 22/22/2 30/11/2
f 18/23/2 27/13/2 26/21/2
f 15/24/2 24/9/2 23/17/2
f 31/15/2 12/25/2 13/26/2
f 27/13/2 20/27/2 28/7/2
f 30/11/2 12/25/2 31/15/2
f 16/28/2 25/1/2 24/9/2
f 28/7/2 21/29/2 29/4/2
f 17/30/2 26/21/2 25/1/2
f 14/19/2 15/24/2 23/17/2
f 25/1/1 26/21/1 5/2/1
f 29/4/1 30/11/1 3/5/1
f 28/7/1 29/4/1 6/6/1
f 24/9/1 25/1/1 7/3/1
f 30/11/1 31/15/1 9/12/1
f 27/13/1 28/7/1 8/8/1
f 31/15/1 13/26/1 1/16/1
f 23/17/1 24/9/1 10/10/1
f 14/19/1 23/17/1 4/18/1
f 26/21/1 27/13/1 11/14/1
f 29/4/2 21/29/2 22/22/2
f 18/23/2 19/31/2 27/13/2
f 15/24/2 16/28/2 24/9/2
f 27/13/2 19/31/2 20/27/2
f 30/11/2 22/22/2 12/25/2
f 16/28/2 17/30/2 25/1/2
f 28/7/2 20/27/2 21/29/2
f 17/30/2 18/23/2 26/21/2
o wallslope_Cube.002
v -4.044543 -1.000000 0.000000
v -4.044543 -1.000000 2.000000
v -6.294929 4.264551 0.000000
v -6.294929 4.264551 2.652179
v 4.044543 -1.000000 0.000000
v 4.044543 -1.000000 2.000000
v 6.294929 4.264551 0.000000
v 6.294929 4.264551 2.652179
vt 0.375000 0.250000
vt 0.625000 0.000000
vt 0.375000 0.000000
vt 0.375000 0.500000
vt 0.625000 0.750000
vt 0.625000 0.500000
vt 0.625000 0.250000
vt 0.375000 0.750000
vn 0.9195 0.3931 0.0000
vn -0.9195 0.3931 0.0000
usemtl wallslope
s off
f 34/32/3 33/33/3 32/34/3
f 38/35/4 37/36/4 39/37/4
f 34/32/3 35/38/3 33/33/3
f 38/35/4 36/39/4 37/36/4
o ceilmain_Cube.003
v -6.294929 4.264551 2.652179
v 6.294929 4.264551 2.652179
v -6.294929 8.994900 2.652179
v 6.294929 8.994900 2.652179
v -5.035943 4.264551 2.652179
v -3.776957 4.264551 2.652179
v -2.517972 4.264551 2.652179
v -1.258986 4.264551 2.652179
v 0.000000 4.264551 2.652179
v 1.258986 4.264551 2.652179
v 2.517972 4.264551 2.652179
v 3.776958 4.264551 2.652179
v 5.035943 4.264551 2.652179
v -5.035943 10.074109 2.652179
v -3.776957 10.863662 2.652179
v -2.517972 11.265323 2.652179
v -1.258986 11.475293 2.652179
v 0.000000 11.541440 2.652179
v 1.258986 11.475293 2.652179
v 2.517972 11.265323 2.652179
v 3.776958 10.863662 2.652179
v 5.035943 10.074109 2.652179
vt 0.650000 0.500000
vt 0.625000 0.500000
vt 0.625000 0.500000
vt 0.875000 0.500000
vt 0.850000 0.500000
vt 0.875000 0.500000
vt 0.850000 0.500000
vt 0.825000 0.500000
vt 0.825000 0.500000
vt 0.800000 0.500000
vt 0.800000 0.500000
vt 0.775000 0.500000
vt 0.775000 0.500000
vt 0.750000 0.500000
vt 0.725000 0.500000
vt 0.725000 0.500000
vt 0.700000 0.500000
vt 0.700000 0.500000
vt 0.675000 0.500000
vt 0.675000 0.500000
vt 0.650000 0.500000
vt 0.750000 0.500000
vn 0.0000 0.0000 -1.0000
usemtl ceilmain
s off
f 52/40/5 43/41/5 41/42/5
f 42/43/5 44/44/5 40/45/5
f 53/46/5 45/47/5 44/44/5
f 54/48/5 46/49/5 45/47/5
f 55/50/5 47/51/5 46/49/5
f 56/52/5 48/53/5 47/51/5
f 48/53/5 58/54/5 49/55/5
f 49/55/5 59/56/5 50/57/5
f 50/57/5 60/58/5 51/59/5
f 51/59/5 61/60/5 52/40/5
f 52/40/5 61/60/5 43/41/5
f 42/43/5 53/46/5 44/44/5
f 53/46/5 54/48/5 45/47/5
f 54/48/5 55/50/5 46/49/5
f 55/50/5 56/52/5 47/51/5
f 56/52/5 57/61/5 48/53/5
f 48/53/5 57/61/5 58/54/5
f 49/55/5 58/54/5 59/56/5
f 50/57/5 59/56/5 60/58/5
f 51/59/5 60/58/5 61/60/5
o rear_Cube.004
v -4.044543 -1.000000 0.000000
v -4.044543 -1.000000 2.000000
v 4.044543 -1.000000 0.000000
v 4.044543 -1.000000 2.000000
v -3.235635 -1.000000 0.000000
v -2.426726 -1.000000 0.000000
v -1.617817 -1.000000 0.000000
v -0.808909 -1.000000 0.000000
v 0.000000 -1.000000 0.000000
v 0.808909 -1.000000 0.000000
v 1.617817 -1.000000 0.000000
v 2.426726 -1.000000 0.000000
v 3.235635 -1.000000 0.000000
v 3.235635 -1.000000 2.000000
v 2.426726 -1.000000 2.000000
v 1.617817 -1.000000 2.000000
v 0.808909 -1.000000 2.000000
v -0.000000 -1.000000 2.000000
v -0.808909 -1.000000 2.000000
v -1.617817 -1.000000 2.000000
v -2.426726 -1.000000 2.000000
v -3.235635 -1.000000 2.000000
vt 0.375000 1.000000
vt 0.625000 0.975000
vt 0.375000 0.975000
vt 0.375000 0.775000
vt 0.625000 0.750000
vt 0.375000 0.750000
vt 0.375000 0.800000
vt 0.625000 0.775000
vt 0.375000 0.825000
vt 0.625000 0.800000
vt 0.375000 0.850000
vt 0.625000 0.825000
vt 0.375000 0.875000
vt 0.625000 0.850000
vt 0.375000 0.900000
vt 0.625000 0.875000
vt 0.375000 0.925000
vt 0.625000 0.900000
vt 0.375000 0.950000
vt 0.625000 0.925000
vt 0.625000 0.950000
vt 0.625000 1.000000
vn 0.0000 1.0000 0.0000
usemtl rear
s off
f 62/62/6 83/63/6 66/64/6
f 74/65/6 65/66/6 64/67/6
f 73/68/6 75/69/6 74/65/6
f 72/70/6 76/71/6 73/68/6
f 71/72/6 77/73/6 72/70/6
f 70/74/6 78/75/6 71/72/6
f 69/76/6 79/77/6 70/74/6
f 68/78/6 80/79/6 69/76/6
f 67/80/6 81/81/6 68/78/6
f 66/64/6 82/82/6 67/80/6
f 62/62/6 63/83/6 83/63/6
f 74/65/6 75/69/6 65/66/6
f 73/68/6 76/71/6 75/69/6
f 72/70/6 77/73/6 76/71/6
f 71/72/6 78/75/6 77/73/6
f 70/74/6 79/77/6 78/75/6
f 69/76/6 80/79/6 79/77/6
f 68/78/6 81/81/6 80/79/6
f 67/80/6 82/82/6 81/81/6
f 66/64/6 83/63/6 82/82/6
o floor_Cube.005
v -4.044543 -1.000000 0.000000
v -6.294929 4.264551 0.000000
v 4.044543 -1.000000 0.000000
v 6.294929 4.264551 0.000000
v -6.294929 8.994900 0.000000
v 6.294929 8.994900 0.000000
v 8.294930 4.264551 0.000000
v 8.294930 8.994900 0.000000
v -8.294930 4.264551 0.000000
v -8.294930 8.994900 0.000000
v 5.035943 4.264551 0.000000
v 3.776957 4.264551 0.000000
v 2.517972 4.264551 0.000000
v 1.258986 4.264551 0.000000
v -0.000000 4.264551 0.000000
v -1.258986 4.264551 0.000000
v -2.517972 4.264551 0.000000
v -3.776958 4.264551 0.000000
v -5.035943 4.264551 0.000000
v -3.235635 -1.000000 0.000000
v -2.426726 -1.000000 0.000000
v -1.617817 -1.000000 0.000000
v -0.808909 -1.000000 0.000000
v 0.000000 -1.000000 0.000000
v 0.808909 -1.000000 0.000000
v 1.617817 -1.000000 0.000000
v 2.426726 -1.000000 0.000000
v 3.235635 -1.000000 0.000000
v -3.776958 8.994900 0.000000
v 5.035943 8.994900 0.000000
v 1.258986 8.994900 0.000000
v -2.517972 8.994900 0.000000
v 2.517972 8.994900 0.000000
v -1.258986 8.994900 0.000000
v -5.035943 8.994900 0.000000
v 3.776957 8.994900 0.000000
v -0.000000 8.994900 0.000000
vt 0.350000 0.500000
vt 0.375000 0.750000
vt 0.375000 0.500000
vt 0.150000 0.500000
vt 0.125000 0.500000
vt 0.150000 0.500000
vt 0.375000 0.500000
vt 0.375000 0.500000
vt 0.125000 0.500000
vt 0.125000 0.500000
vt 0.350000 0.500000
vt 0.325000 0.500000
vt 0.325000 0.500000
vt 0.300000 0.500000
vt 0.300000 0.500000
vt 0.275000 0.500000
vt 0.275000 0.500000
vt 0.250000 0.500000
vt 0.250000 0.500000
vt 0.225000 0.500000
vt 0.225000 0.500000
vt 0.200000 0.500000
vt 0.200000 0.500000
vt 0.175000 0.500000
vt 0.175000 0.500000
vt 0.125000 0.750000
vt 0.150000 0.750000
vt 0.175000 0.750000
vt 0.200000 0.750000
vt 0.225000 0.750000
vt 0.275000 0.750000
vt 0.300000 0.750000
vt 0.325000 0.750000
vt 0.350000 0.750000
vt 0.375000 0.500000
vt 0.125000 0.500000
vt 0.250000 0.750000
vn 0.0000 0.0000 1.0000
usemtl ceilsides
s off
f 94/84/7 86/85/7 87/86/7
f 118/87/7 85/88/7 102/89/7
f 90/90/7 89/91/7 87/86/7
f 93/92/7 85/88/7 88/93/7
f 89/91/7 94/84/7 87/86/7
f 113/94/7 95/95/7 94/84/7
f 119/96/7 96/97/7 95/95/7
f 116/98/7 97/99/7 96/97/7
f 114/100/7 98/101/7 97/99/7
f 120/102/7 99/103/7 98/101/7
f 117/104/7 100/105/7 99/103/7
f 115/106/7 101/107/7 100/105/7
f 112/108/7 102/89/7 101/107/7
f 84/109/7 102/89/7 85/88/7
f 103/110/7 101/107/7 102/89/7
f 104/111/7 100/105/7 101/107/7
f 105/112/7 99/103/7 100/105/7
f 106/113/7 98/101/7 99/103/7
f 98/101/7 108/114/7 97/99/7
f 97/99/7 109/115/7 96/97/7
f 96/97/7 110/116/7 95/95/7
f 95/95/7 111/117/7 94/84/7
f 94/84/7 111/117/7 86/85/7
f 118/87/7 88/93/7 85/88/7
f 90/90/7 91/118/7 89/91/7
f 93/92/7 92/119/7 85/88/7
f 89/91/7 113/94/7 94/84/7
f 113/94/7 119/96/7 95/95/7
f 119/96/7 116/98/7 96/97/7
f 116/98/7 114/100/7 97/99/7
f 114/100/7 120/102/7 98/101/7
f 120/102/7 117/104/7 99/103/7
f 117/104/7 115/106/7 100/105/7
f 115/106/7 112/108/7 101/107/7
f 112/108/7 118/87/7 102/89/7
f 84/109/7 103/110/7 102/89/7
f 103/110/7 104/111/7 101/107/7
f 104/111/7 105/112/7 100/105/7
f 105/112/7 106/113/7 99/103/7
f 106/113/7 107/120/7 98/101/7
f 98/101/7 107/120/7 108/114/7
f 97/99/7 108/114/7 109/115/7
f 96/97/7 109/115/7 110/116/7
f 95/95/7 110/116/7 111/117/7
o ceilslope_Cube.006
v -4.044543 -1.000000 2.000000
v -6.294929 4.264551 2.652179
v 4.044543 -1.000000 2.000000
v 6.294929 4.264551 2.652179
v -5.035943 4.264551 2.652179
v -3.776957 4.264551 2.652179
v -2.517972 4.264551 2.652179
v -1.258986 4.264551 2.652179
v 0.000000 4.264551 2.652179
v 1.258986 4.264551 2.652179
v 2.517972 4.264551 2.652179
v 3.776958 4.264551 2.652179
v 5.035943 4.264551 2.652179
v 3.235635 -1.000000 2.000000
v 2.426726 -1.000000 2.000000
v 1.617817 -1.000000 2.000000
v 0.808909 -1.000000 2.000000
v -0.000000 -1.000000 2.000000
v -0.808909 -1.000000 2.000000
v -1.617817 -1.000000 2.000000
v -2.426726 -1.000000 2.000000
v -3.235635 -1.000000 2.000000
vt 0.850000 0.500000
vt 0.875000 0.750000
vt 0.875000 0.500000
vt 0.625000 0.750000
vt 0.650000 0.500000
vt 0.625000 0.500000
vt 0.650000 0.750000
vt 0.675000 0.500000
vt 0.675000 0.750000
vt 0.700000 0.500000
vt 0.700000 0.750000
vt 0.725000 0.500000
vt 0.725000 0.750000
vt 0.750000 0.500000
vt 0.775000 0.750000
vt 0.775000 0.500000
vt 0.800000 0.750000
vt 0.800000 0.500000
vt 0.825000 0.750000
vt 0.825000 0.500000
vt 0.850000 0.750000
vt 0.750000 0.750000
vn 0.0000 0.1229 -0.9924
usemtl ceilslope
s off
f 125/121/8 121/122/8 122/123/8
f 123/124/8 133/125/8 124/126/8
f 134/127/8 132/128/8 133/125/8
f 135/129/8 131/130/8 132/128/8
f 136/131/8 130/132/8 131/130/8
f 137/133/8 129/134/8 130/132/8
f 129/134/8 139/135/8 128/136/8
f 128/136/8 140/137/8 127/138/8
f 127/138/8 141/139/8 126/140/8
f 126/140/8 142/141/8 125/121/8
f 125/121/8 142/141/8 121/122/8
f 123/124/8 134/127/8 133/125/8
f 134/127/8 135/129/8 132/128/8
f 135/129/8 136/131/8 131/130/8
f 136/131/8 137/133/8 130/132/8
f 137/133/8 138/142/8 129/134/8
f 129/134/8 138/142/8 139/135/8
f 128/136/8 139/135/8 140/137/8
f 127/138/8 140/137/8 141/139/8
f 126/140/8 141/139/8 142/141/8
o stageback_Cube.007
v -6.294929 8.994900 2.652179
v 6.294929 8.994900 2.652179
v -5.035943 10.074109 2.652179
v -3.776957 10.863662 2.652179
v -2.517972 11.265323 2.652179
v -1.258986 11.475293 2.652179
v 0.000000 11.541440 2.652179
v 1.258986 11.475293 2.652179
v 2.517972 11.265323 2.652179
v 3.776958 10.863662 2.652179
v 5.035943 10.074109 2.652179
v -5.035943 10.074109 0.750000
v -6.294929 8.994900 0.750000
v 6.294929 8.994900 0.750000
v 5.035943 10.074109 0.750000
v 3.776957 10.863662 0.750000
v 2.517972 11.265323 0.750000
v 1.258986 11.475293 0.750000
v -0.000000 11.541440 0.750000
v -1.258986 11.475293 0.750000
v -2.517972 11.265323 0.750000
v -3.776958 10.863662 0.750000
vt 0.375000 0.475000
vt 0.625000 0.500000
vt 0.625000 0.475000
vt 0.125000 0.500000
vt 0.625000 0.275000
vt 0.875000 0.500000
vt 0.375000 0.300000
vt 0.375000 0.275000
vt 0.375000 0.325000
vt 0.625000 0.300000
vt 0.375000 0.350000
vt 0.625000 0.325000
vt 0.375000 0.375000
vt 0.625000 0.350000
vt 0.375000 0.400000
vt 0.625000 0.375000
vt 0.375000 0.425000
vt 0.625000 0.400000
vt 0.375000 0.450000
vt 0.625000 0.425000
vt 0.625000 0.450000
vt 0.375000 0.500000
vt 0.150000 0.500000
vn -0.6508 -0.7592 0.0000
vn 0.6508 -0.7592 0.0000
vn 0.5313 -0.8472 0.0000
vn 0.3039 -0.9527 -0.0000
vn 0.1645 -0.9864 -0.0000
vn 0.0525 -0.9986 0.0000
vn -0.0525 -0.9986 -0.0000
vn -0.1645 -0.9864 0.0000
vn -0.3039 -0.9527 -0.0000
vn -0.5313 -0.8472 -0.0000
usemtl stageback
s off
f 157/143/9 144/144/9 153/145/9
f 155/146/10 145/147/10 143/148/10
f 164/149/11 145/147/11 154/150/11
f 163/151/12 146/152/12 164/149/12
f 162/153/13 147/154/13 163/151/13
f 161/155/14 148/156/14 162/153/14
f 160/157/15 149/158/15 161/155/15
f 159/159/16 150/160/16 160/157/16
f 158/161/17 151/162/17 159/159/17
f 157/143/18 152/163/18 158/161/18
f 157/143/9 156/164/9 144/144/9
f 155/146/10 154/165/10 145/147/10
f 164/149/11 146/152/11 145/147/11
f 163/151/12 147/154/12 146/152/12
f 162/153/13 148/156/13 147/154/13
f 161/155/14 149/158/14 148/156/14
f 160/157/15 150/160/15 149/158/15
f 159/159/16 151/162/16 150/160/16
f 158/161/17 152/163/17 151/162/17
f 157/143/18 153/145/18 152/163/18
o wallsides_Cube.008
v -6.294929 4.264551 0.000000
v -6.294929 4.264551 2.652179
v 6.294929 4.264551 0.000000
v 6.294929 4.264551 2.652179
v -6.294929 8.994900 2.652179
v -6.294929 8.994900 0.000000
v 6.294929 8.994900 0.000000
v 6.294929 8.994900 2.652179
v 8.294930 4.264551 2.652179
v 8.294930 4.264551 0.000000
v 8.294930 8.994900 2.652179
v 8.294930 8.994900 0.000000
v -8.294930 4.264551 2.652179
v -8.294930 4.264551 0.000000
v -8.294930 8.994900 2.652179
v -8.294930 8.994900 0.000000
vt 0.375000 0.250000
vt 0.625000 0.250000
vt 0.375000 0.250000
vt 0.625000 0.500000
vt 0.375000 0.500000
vt 0.625000 0.500000
vt 0.375000 0.500000
vt 0.625000 0.500000
vt 0.375000 0.500000
vt 0.625000 0.500000
vt 0.375000 0.500000
vt 0.375000 0.250000
vt 0.625000 0.250000
vt 0.625000 0.250000
vt 0.375000 0.250000
vt 0.625000 0.250000
vn 0.0000 1.0000 0.0000
vn -1.0000 0.0000 0.0000
vn 0.0000 -1.0000 0.0000
vn 1.0000 0.0000 0.0000
usemtl wallsides
s off
f 178/166/19 166/167/19 165/168/19
f 175/169/20 174/170/20 173/171/20
f 173/171/19 167/172/19 168/173/19
f 176/174/21 172/175/21 171/176/21
f 180/177/22 177/178/22 178/166/22
f 179/179/21 170/180/21 169/181/21
f 178/166/19 177/178/19 166/167/19
f 175/169/20 176/174/20 174/170/20
f 173/171/19 174/170/19 167/172/19
f 176/174/21 175/169/21 172/175/21
f 180/177/22 179/179/22 177/178/22
f 179/179/21 180/177/21 170/180/21
o ceilsides_Cube.009
v -6.294929 4.264551 2.652179
v -6.294929 8.994900 2.652179
v -8.294930 4.264551 2.652179
v -8.294930 8.994900 2.652179
vt 0.875000 0.500000
vt 0.875000 0.500000
vt 0.875000 0.500000
vt 0.875000 0.500000
vn 0.0000 0.0000 -1.0000
usemtl ceilsides
s off
f 183/182/23 182/183/23 181/184/23
f 183/182/23 184/185/23 182/183/23
o ceilsides.001_Cube.010
v 6.294929 4.264551 2.652179
v 6.294929 8.994900 2.652179
v 8.294930 4.264551 2.652179
v 8.294930 8.994900 2.652179
vt 0.625000 0.500000
vt 0.625000 0.500000
vt 0.625000 0.500000
vt 0.625000 0.500000
vn 0.0000 0.0000 -1.0000
usemtl ceilsides
s off
f 188/186/24 185/187/24 186/188/24
f 188/186/24 187/189/24 185/187/24
