# Blender v2.80 (sub 75) OBJ File: 'sections.blend'
# www.blender.org
mtllib sections.mtl
o Plane.001_Plane.007
v 70.000000 -19.786259 30.000000
v 70.000000 19.786259 30.000000
v -70.000000 19.786259 30.000000
v -70.000000 -19.786259 30.000000
v 29.400003 19.786259 30.000000
v 26.600002 19.786259 30.000000
v -26.600002 19.786259 30.000000
v -29.400003 19.786259 30.000000
v -29.400003 -19.786259 30.000000
v -26.600002 -19.786259 30.000000
v 26.600002 -19.786259 30.000000
v 29.400003 -19.786259 30.000000
v -29.400003 46.142967 30.000000
v -70.000000 46.142967 30.000000
v 70.000000 46.142967 30.000000
v 29.400003 46.142967 30.000000
v 26.600002 46.142967 30.000000
v -26.600002 46.142967 30.000000
v 29.400003 -48.309914 30.000000
v 70.000000 -48.309914 30.000000
v -70.000000 -48.309914 30.000000
v -29.400003 -48.309914 30.000000
v -26.600002 -48.309914 30.000000
v 26.600002 -48.309914 30.000000
vt 0.800000 0.000000
vt 0.800000 1.000000
vt 1.000000 1.000000
vt 1.000000 0.000000
vt 0.800000 1.000000
vt 1.000000 1.000000
vt 0.000000 1.000000
vt 0.000000 1.000000
vt 0.200000 1.000000
vt 0.200000 1.000000
vt 0.400000 1.000000
vt 0.400000 1.000000
vt 0.000000 0.000000
vt 0.200000 0.000000
vt 0.400000 0.000000
vt 0.600000 1.000000
vt 0.600000 0.000000
vt 1.000000 0.000000
vt 0.800000 0.000000
vt 0.600000 0.000000
vt 0.400000 0.000000
vt 0.200000 0.000000
vt 0.000000 0.000000
vt 0.600000 1.000000
vn 0.0000 0.0000 -1.0000
usemtl None
s off
f 8/1/1 9/2/1 4/3/1 3/4/1
f 9/2/1 22/5/1 21/6/1 4/3/1
f 1/7/1 20/8/1 19/9/1 12/10/1
f 12/10/1 19/9/1 24/11/1 11/12/1
f 2/13/1 1/7/1 12/10/1 5/14/1
f 5/14/1 12/10/1 11/12/1 6/15/1
f 6/15/1 11/12/1 10/16/1 7/17/1
f 7/17/1 10/16/1 9/2/1 8/1/1
f 3/4/1 14/18/1 13/19/1 8/1/1
f 7/17/1 18/20/1 17/21/1 6/15/1
f 8/1/1 13/19/1 18/20/1 7/17/1
f 5/14/1 16/22/1 15/23/1 2/13/1
f 11/12/1 24/11/1 23/24/1 10/16/1
o Plane.002_Plane.008
v 70.000000 19.786259 0.000000
v -70.000000 19.786259 0.000000
v 70.000000 -19.786259 0.000000
v -70.000000 -19.786259 0.000000
v 29.400003 19.786259 0.000000
v 26.600002 19.786259 0.000000
v -26.600002 19.786259 0.000000
v -29.400003 19.786259 0.000000
v -29.400003 -19.786259 0.000000
v -26.600002 -19.786259 0.000000
v 26.600002 -19.786259 0.000000
v 29.400003 -19.786259 0.000000
v -29.400003 46.142967 0.000000
v -70.000000 46.142967 0.000000
v 70.000000 46.142967 0.000000
v 29.400003 46.142967 0.000000
v 26.600002 46.142967 0.000000
v -26.600002 46.142967 0.000000
v 29.400003 -48.309914 0.000000
v 70.000000 -48.309914 0.000000
v -70.000000 -48.309914 0.000000
v -29.400003 -48.309914 0.000000
v -26.600002 -48.309914 0.000000
v 26.600002 -48.309914 0.000000
vt 0.800000 0.000000
vt 1.000000 0.000000
vt 1.000000 1.000000
vt 0.800000 1.000000
vt 0.800000 0.000000
vt 1.000000 0.000000
vt 0.400000 0.000000
vt 0.400000 0.000000
vt 0.600000 0.000000
vt 0.600000 0.000000
vt 0.000000 0.000000
vt 0.200000 0.000000
vt 0.200000 1.000000
vt 0.000000 1.000000
vt 0.400000 1.000000
vt 0.600000 1.000000
vt 0.000000 0.000000
vt 0.200000 0.000000
vt 0.600000 1.000000
vt 0.400000 1.000000
vt 0.200000 1.000000
vt 1.000000 1.000000
vt 0.800000 1.000000
vt 0.000000 1.000000
vn 0.0000 0.0000 1.0000
usemtl None
s off
f 32/25/2 26/26/2 28/27/2 33/28/2
f 32/25/2 37/29/2 38/30/2 26/26/2
f 30/31/2 41/32/2 42/33/2 31/34/2
f 25/35/2 29/36/2 36/37/2 27/38/2
f 29/36/2 30/31/2 35/39/2 36/37/2
f 30/31/2 31/34/2 34/40/2 35/39/2
f 31/34/2 32/25/2 33/28/2 34/40/2
f 31/34/2 42/33/2 37/29/2 32/25/2
f 25/35/2 39/41/2 40/42/2 29/36/2
f 34/40/2 47/43/2 48/44/2 35/39/2
f 35/39/2 48/44/2 43/45/2 36/37/2
f 28/27/2 45/46/2 46/47/2 33/28/2
f 36/37/2 43/45/2 44/48/2 27/38/2
o Plane.003_Plane.009
v -29.400003 46.142967 0.000000
v -70.000000 46.142967 0.000000
v -29.400003 46.142967 30.000000
v -70.000000 46.142967 30.000000
v 26.600002 46.142967 0.000000
v -26.600002 46.142967 0.000000
v 26.600002 46.142967 30.000000
v -26.600002 46.142967 30.000000
vt 0.800000 0.000000
vt 0.800000 0.000000
vt 1.000000 0.000000
vt 1.000000 0.000000
vt 0.400000 0.000000
vt 0.400000 0.000000
vt 0.600000 0.000000
vt 0.600000 0.000000
vn 0.0000 -1.0000 0.0000
usemtl None
s off
f 49/49/3 51/50/3 52/51/3 50/52/3
f 53/53/3 55/54/3 56/55/3 54/56/3
f 54/56/3 56/55/3 51/50/3 49/49/3
o Plane.004_Plane.010
v 70.000000 46.142967 0.000000
v 70.000000 46.142967 30.000000
v 29.400003 46.142967 0.000000
v 29.400003 46.142967 30.000000
vt 0.000000 0.000000
vt 0.000000 0.000000
vt 0.200000 0.000000
vt 0.200000 0.000000
vn 0.0000 -1.0000 0.0000
usemtl None
s off
f 57/57/4 58/58/4 60/59/4 59/60/4
o Plane.005_Plane.011
v 70.000000 19.786259 0.000000
v 70.000000 -19.786259 0.000000
v 70.000000 -19.786259 30.000000
v 70.000000 19.786259 30.000000
v 70.000000 46.142967 0.000000
v 70.000000 46.142967 30.000000
v 70.000000 -48.309914 0.000000
v 70.000000 -48.309914 30.000000
vt 0.000000 1.000000
vt 0.000000 1.000000
vt 0.000000 0.000000
vt 0.000000 0.000000
vt 0.000000 1.000000
vt 0.000000 1.000000
vt 0.000000 0.000000
vt 0.000000 0.000000
vn -1.0000 0.0000 0.0000
usemtl None
s off
f 62/61/5 63/62/5 64/63/5 61/64/5
f 62/61/5 67/65/5 68/66/5 63/62/5
f 64/63/5 66/67/5 65/68/5 61/64/5
o Plane.006_Plane.012
v 29.400003 -48.309914 0.000000
v 70.000000 -48.309914 0.000000
v 29.400003 -48.309914 30.000000
v 70.000000 -48.309914 30.000000
v -26.600002 -48.309914 0.000000
v 26.600002 -48.309914 0.000000
v -26.600002 -48.309914 30.000000
v 26.600002 -48.309914 30.000000
vt 0.200000 1.000000
vt 0.200000 1.000000
vt 0.000000 1.000000
vt 0.000000 1.000000
vt 0.600000 1.000000
vt 0.600000 1.000000
vt 0.400000 1.000000
vt 0.400000 1.000000
vn 0.0000 1.0000 0.0000
usemtl None
s off
f 69/69/6 71/70/6 72/71/6 70/72/6
f 73/73/6 75/74/6 76/75/6 74/76/6
f 74/76/6 76/75/6 71/70/6 69/69/6
o Plane.007_Plane.013
v -70.000000 -48.309914 0.000000
v -70.000000 -48.309914 30.000000
v -29.400003 -48.309914 0.000000
v -29.400003 -48.309914 30.000000
vt 1.000000 1.000000
vt 1.000000 1.000000
vt 0.800000 1.000000
vt 0.800000 1.000000
vn 0.0000 1.0000 0.0000
usemtl None
s off
f 77/77/7 78/78/7 80/79/7 79/80/7
o Plane.008_Plane.014
v -29.400003 -19.786259 0.000000
v -29.400003 -19.786259 30.000000
v -29.400003 -48.309914 0.000000
v -29.400003 -48.309914 30.000000
vt 0.800000 1.000000
vt 0.800000 1.000000
vt 0.800000 1.000000
vt 0.800000 1.000000
vn -1.0000 0.0000 0.0000
usemtl None
s off
f 81/81/8 83/82/8 84/83/8 82/84/8
o Plane.009_Plane.015
v -29.400003 -19.786259 0.000000
v -26.600002 -19.786259 0.000000
v -29.400003 -19.786259 30.000000
v -26.600002 -19.786259 30.000000
vt 0.800000 1.000000
vt 0.800000 1.000000
vt 0.600000 1.000000
vt 0.600000 1.000000
vn 0.0000 1.0000 0.0000
usemtl None
s off
f 85/85/9 87/86/9 88/87/9 86/88/9
o Plane.010_Plane.016
v -26.600002 -19.786259 0.000000
v -26.600002 -19.786259 30.000000
v -26.600002 -48.309914 0.000000
v -26.600002 -48.309914 30.000000
vt 0.600000 1.000000
vt 0.600000 1.000000
vt 0.600000 1.000000
vt 0.600000 1.000000
vn 1.0000 0.0000 0.0000
usemtl None
s off
f 90/89/10 92/90/10 91/91/10 89/92/10
o Plane.011_Plane.017
v 26.600002 19.786259 0.000000
v 26.600002 19.786259 30.000000
v 26.600002 46.142967 0.000000
v 26.600002 46.142967 30.000000
vt 0.400000 0.000000
vt 0.400000 0.000000
vt 0.400000 0.000000
vt 0.400000 0.000000
vn -1.0000 0.0000 0.0000
usemtl None
s off
f 94/93/11 96/94/11 95/95/11 93/96/11
o Plane.012_Plane.018
v 29.400003 19.786259 0.000000
v 26.600002 19.786259 0.000000
v 29.400003 19.786259 30.000000
v 26.600002 19.786259 30.000000
vt 0.200000 0.000000
vt 0.200000 0.000000
vt 0.400000 0.000000
vt 0.400000 0.000000
vn 0.0000 -1.0000 0.0000
usemtl None
s off
f 97/97/12 99/98/12 100/99/12 98/100/12
o Plane.013_Plane.019
v 29.400003 19.786259 0.000000
v 29.400003 19.786259 30.000000
v 29.400003 46.142967 0.000000
v 29.400003 46.142967 30.000000
vt 0.200000 0.000000
vt 0.200000 0.000000
vt 0.200000 0.000000
vt 0.200000 0.000000
vn 1.0000 0.0000 0.0000
usemtl None
s off
f 101/101/13 103/102/13 104/103/13 102/104/13
o Plane.014_Plane.020
v -70.000000 19.786259 0.000000
v -70.000000 -19.786259 0.000000
v -70.000000 19.786259 30.000000
v -70.000000 -19.786259 30.000000
v -70.000000 46.142967 0.000000
v -70.000000 46.142967 30.000000
v -70.000000 -48.309914 0.000000
v -70.000000 -48.309914 30.000000
vt 1.000000 0.000000
vt 1.000000 0.000000
vt 1.000000 1.000000
vt 1.000000 1.000000
vt 1.000000 0.000000
vt 1.000000 0.000000
vt 1.000000 1.000000
vt 1.000000 1.000000
vn 1.0000 0.0000 0.0000
usemtl None
s off
f 105/105/14 107/106/14 108/107/14 106/108/14
f 105/105/14 109/109/14 110/110/14 107/106/14
f 108/107/14 112/111/14 111/112/14 106/108/14
