# Blender v2.80 (sub 75) OBJ File: ''
# www.blender.org
mtllib split.mtl
o Cube.001_Cube.010
v -1.078666 1.080155 1.214116
v -1.078666 1.080155 3.214116
v -1.078666 3.080155 1.214116
v -1.078666 3.080155 3.214116
vt 0.625000 0.500000
vt 0.375000 0.750000
vt 0.375000 0.500000
vt 0.625000 0.750000
vn 1.0000 0.0000 0.0000
g Cube.001_Cube.010_None
usemtl None
s off
f 4/1/1 1/2/1 3/3/1
f 4/1/1 2/4/1 1/2/1
o Cube.002_Cube.011
v -3.078666 1.080155 3.214116
v -3.078666 3.080155 3.214116
v -1.078666 1.080155 3.214116
v -1.078666 3.080155 3.214116
vt 0.875000 0.500000
vt 0.625000 0.750000
vt 0.625000 0.500000
vt 0.875000 0.750000
vn 0.0000 0.0000 1.0000
g Cube.002_Cube.011_None
usemtl None
s off
f 6/5/2 7/6/2 8/7/2
f 6/5/2 5/8/2 7/6/2
o Cube.003_Cube.012
v -3.078666 3.080155 1.214116
v -3.078666 3.080155 3.214116
v -1.078666 3.080155 1.214116
v -1.078666 3.080155 3.214116
vt 0.625000 0.250000
vt 0.375000 0.500000
vt 0.375000 0.250000
vt 0.625000 0.500000
vn 0.0000 1.0000 0.0000
g Cube.003_Cube.012_None
usemtl None
s off
f 10/9/3 11/10/3 9/11/3
f 10/9/3 12/12/3 11/10/3
o Cube.004_Cube.013
v -3.078666 1.080155 1.214116
v -3.078666 1.080155 3.214116
v -3.078666 3.080155 1.214116
v -3.078666 3.080155 3.214116
vt 0.625000 0.000000
vt 0.375000 0.250000
vt 0.375000 0.000000
vt 0.625000 0.250000
vn -1.0000 0.0000 0.0000
g Cube.004_Cube.013_None
usemtl None
s off
f 14/13/4 15/14/4 13/15/4
f 14/13/4 16/16/4 15/14/4
o Cube.005_Cube.014
v -3.078666 1.080155 1.214116
v -3.078666 1.080155 3.214116
v -1.078666 1.080155 1.214116
v -1.078666 1.080155 3.214116
vt 0.625000 0.750000
vt 0.375000 1.000000
vt 0.375000 0.750000
vt 0.625000 1.000000
vn 0.0000 -1.0000 0.0000
g Cube.005_Cube.014_None
usemtl None
s off
f 20/17/5 17/18/5 19/19/5
f 20/17/5 18/20/5 17/18/5
o Cube.006_Cube.015
v -3.078666 1.080155 1.214116
v -3.078666 3.080155 1.214116
v -1.078666 1.080155 1.214116
v -1.078666 3.080155 1.214116
vt 0.375000 0.500000
vt 0.125000 0.750000
vt 0.125000 0.500000
vt 0.375000 0.750000
vn 0.0000 0.0000 -1.0000
g Cube.006_Cube.015_None
usemtl None
s off
f 24/21/6 21/22/6 22/23/6
f 24/21/6 23/24/6 21/22/6
