solid Exported from Blender-2.80 (sub 75)
facet normal 0.000000 1.000000 0.000000
outer loop
vertex 0.000000 0.000000 3.350000
vertex 2.360000 -0.000000 1.260000
vertex 2.360000 0.000000 0.000000
endloop
endfacet
facet normal 0.000000 1.000000 0.000000
outer loop
vertex 0.000000 0.000000 3.350000
vertex 2.360000 0.000000 0.000000
vertex 0.000000 0.000000 0.000000
endloop
endfacet
facet normal -0.662985 0.000000 -0.748633
outer loop
vertex 0.000000 6.100000 3.350000
vertex 2.360000 6.099999 1.260000
vertex 2.360000 -0.000000 1.260000
endloop
endfacet
facet normal -0.662984 0.000000 -0.748633
outer loop
vertex 0.000000 6.100000 3.350000
vertex 2.360000 -0.000000 1.260000
vertex 0.000000 0.000000 3.350000
endloop
endfacet
facet normal -1.000000 0.000000 0.000000
outer loop
vertex 2.360000 6.100000 0.000000
vertex 2.360000 0.000000 0.000000
vertex 2.360000 -0.000000 1.260000
endloop
endfacet
facet normal -1.000000 0.000000 0.000000
outer loop
vertex 2.360000 6.100000 0.000000
vertex 2.360000 -0.000000 1.260000
vertex 2.360000 6.099999 1.260000
endloop
endfacet
facet normal 0.000000 -1.000000 -0.000001
outer loop
vertex 0.000000 6.100000 0.000000
vertex 2.360000 6.100000 0.000000
vertex 2.360000 6.099999 1.260000
endloop
endfacet
facet normal -0.000000 -1.000000 0.000000
outer loop
vertex 0.000000 6.100000 0.000000
vertex 2.360000 6.099999 1.260000
vertex 0.000000 6.100000 3.350000
endloop
endfacet
facet normal 1.000000 0.000000 0.000000
outer loop
vertex -2.360000 6.100000 0.000000
vertex -2.360000 6.099999 1.260000
vertex -2.360000 -0.000000 1.260000
endloop
endfacet
facet normal 1.000000 0.000000 0.000000
outer loop
vertex -2.360000 6.100000 0.000000
vertex -2.360000 -0.000000 1.260000
vertex -2.360000 0.000000 0.000000
endloop
endfacet
facet normal 0.000000 -0.000000 1.000000
outer loop
vertex 0.000000 0.000000 0.000000
vertex 2.360000 0.000000 0.000000
vertex 2.360000 6.100000 0.000000
endloop
endfacet
facet normal 0.000000 -0.000000 1.000000
outer loop
vertex 0.000000 0.000000 0.000000
vertex 2.360000 6.100000 0.000000
vertex 0.000000 6.100000 0.000000
endloop
endfacet
facet normal 0.000000 -1.000000 0.000000
outer loop
vertex 0.000000 6.100000 0.000000
vertex 0.000000 6.100000 3.350000
vertex -2.360000 6.099999 1.260000
endloop
endfacet
facet normal 0.000000 -1.000000 -0.000001
outer loop
vertex 0.000000 6.100000 0.000000
vertex -2.360000 6.099999 1.260000
vertex -2.360000 6.100000 0.000000
endloop
endfacet
facet normal 0.662984 0.000000 -0.748633
outer loop
vertex 0.000000 6.100000 3.350000
vertex 0.000000 0.000000 3.350000
vertex -2.360000 -0.000000 1.260000
endloop
endfacet
facet normal 0.662985 0.000000 -0.748633
outer loop
vertex 0.000000 6.100000 3.350000
vertex -2.360000 -0.000000 1.260000
vertex -2.360000 6.099999 1.260000
endloop
endfacet
facet normal 0.000000 1.000000 0.000000
outer loop
vertex 0.000000 0.000000 3.350000
vertex 0.000000 0.000000 0.000000
vertex -2.360000 0.000000 0.000000
endloop
endfacet
facet normal -0.000000 1.000000 0.000000
outer loop
vertex 0.000000 0.000000 3.350000
vertex -2.360000 0.000000 0.000000
vertex -2.360000 -0.000000 1.260000
endloop
endfacet
facet normal 0.000000 -0.000000 1.000000
outer loop
vertex 0.000000 0.000000 0.000000
vertex 0.000000 6.100000 0.000000
vertex -2.360000 6.100000 0.000000
endloop
endfacet
facet normal 0.000000 -0.000000 1.000000
outer loop
vertex 0.000000 0.000000 0.000000
vertex -2.360000 6.100000 0.000000
vertex -2.360000 0.000000 0.000000
endloop
endfacet
endsolid Exported from Blender-2.80 (sub 75)
