# Blender v2.80 (sub 75) OBJ File: 'concord2.blend'
# www.blender.org
mtllib concord2.mtl
o right1_back_Body1.021
v 12.430130 2.348333 4.876800
v 12.430130 5.575300 4.876800
v 12.430130 0.000000 2.933700
v 12.430130 5.575300 0.000000
v 12.430130 0.000000 0.000000
vn -1.0000 0.0000 0.0000
usemtl None
s off
f 1//1 2//1 4//1
f 4//1 5//1 3//1
f 3//1 1//1 4//1
o back1_back_Body1.022
v 12.430130 5.575300 4.876800
v 6.215065 5.575300 0.000000
v 6.215065 5.575300 4.876800
v 12.430130 5.575300 0.000000
vn 0.0000 -1.0000 0.0000
usemtl None
s off
f 8//2 9//2 6//2
f 8//2 7//2 9//2
o right2_back_Body1.023
v 6.215065 10.855532 4.876800
v 6.215065 5.575300 0.000000
v 6.215065 5.575300 4.876800
v 6.215065 10.855532 0.000000
vn -1.0000 0.0000 0.0000
usemtl None
s off
f 13//3 12//3 10//3
f 13//3 11//3 12//3
o back2_back_Body1.024
v 6.215065 10.855532 4.876800
v 0.000000 10.855532 0.000000
v 0.000000 10.855532 4.876800
v 6.215065 10.855532 0.000000
vn 0.0000 -1.0000 0.0000
usemtl None
s off
f 15//4 14//4 16//4
f 15//4 17//4 14//4
o left_back_Body1.025
v 0.000000 0.000000 0.000000
v 0.000000 2.348333 4.876800
v 0.000000 0.000000 2.933700
v 0.000000 10.855532 0.000000
v 0.000000 10.855532 4.876800
vn 1.0000 0.0000 0.0000
usemtl None
s off
f 19//5 18//5 21//5
f 21//5 22//5 19//5
f 19//5 20//5 18//5
o front_back_Body1.026
v 12.430130 0.000000 2.933700
v 0.000000 0.000000 0.000000
v 0.000000 0.000000 2.933700
v 12.430130 0.000000 0.000000
vn 0.0000 1.0000 0.0000
usemtl None
s off
f 26//6 25//6 23//6
f 26//6 24//6 25//6
o slope_back_Body1.027
v 12.430130 2.348333 4.876800
v 12.430130 0.000000 2.933700
v 0.000000 2.348333 4.876800
v 0.000000 0.000000 2.933700
vn 0.0000 0.6375 -0.7705
usemtl None
s off
f 28//7 29//7 27//7
f 28//7 30//7 29//7
o ceil_back_Body1.028
v 12.430130 2.348333 4.876800
v 12.430130 5.575300 4.876800
v 6.215065 10.855532 4.876800
v 6.215065 5.575300 4.876800
v 0.000000 2.348333 4.876800
v 0.000000 10.855532 4.876800
vn 0.0000 0.0000 -1.0000
usemtl None
s off
f 31//8 34//8 32//8
f 34//8 36//8 33//8
f 31//8 35//8 34//8
f 34//8 35//8 36//8
o floor_back_Body1.029
v 0.000000 0.000000 0.000000
v 6.215065 5.575300 0.000000
v 0.000000 10.855532 0.000000
v 12.430130 5.575300 0.000000
v 12.430130 0.000000 0.000000
v 6.215065 10.855532 0.000000
vn 0.0000 0.0000 1.0000
usemtl None
s off
f 38//9 41//9 40//9
f 38//9 39//9 37//9
f 38//9 37//9 41//9
f 38//9 42//9 39//9
