# Blender v2.80 (sub 75) OBJ File: 'baps-better.blend'
# www.blender.org
mtllib baps-better-back.mtl
o back-wall_Bapsextended.039
v -0.000042 38.374130 0.000000
v 74.517151 38.374123 0.000000
v 74.517151 38.374123 5.949477
v -0.000042 38.374123 5.949477
v 56.594357 38.374123 4.462108
v 56.594357 38.374123 5.949477
v 54.809513 38.374123 4.462108
v 17.922756 38.374123 4.462108
v 17.922756 38.374123 5.949477
v 54.809513 38.374123 5.949477
v 19.707600 38.374123 5.949477
v 19.707600 38.374123 4.462108
vn 0.0000 -1.0000 0.0000
usemtl None
s off
f 5//1 3//1 6//1
f 11//1 7//1 10//1
f 12//1 1//1 7//1
f 1//1 2//1 7//1
f 2//1 5//1 7//1
f 4//1 8//1 9//1
f 12//1 8//1 1//1
f 5//1 2//1 3//1
f 11//1 12//1 7//1
f 4//1 1//1 8//1
