# Blender v2.80 (sub 75) OBJ File: 'baps.blend'
# www.blender.org
mtllib baps.mtl
o Baps_V2.000
v 42.761658 6.534933 6.969993
v 42.761658 0.127874 6.969993
v 19.192827 6.534933 6.969993
v 19.192827 0.127874 6.969993
vn 0.0000 0.0000 -1.0000
usemtl None
s off
f 4//1 3//1 2//1
f 3//1 1//1 2//1
o Baps_V2.001_Baps_V2.022
v 42.761658 6.534933 6.969993
v 19.192827 6.534933 6.969993
v 48.978035 6.534933 6.969993
v 12.976450 6.534933 6.969993
v 12.976450 39.561817 6.969993
v 48.978035 39.561817 6.969993
vn 0.0000 0.0000 -1.0000
usemtl None
s off
f 8//2 9//2 6//2
f 9//2 5//2 6//2
f 9//2 10//2 5//2
f 10//2 7//2 5//2
o Baps_V2.002_Baps_V2.025
v 12.976450 39.561817 6.969993
v 0.009781 39.561817 6.969993
v 48.978035 39.561817 6.969993
v 61.944710 39.561817 6.969993
v 61.944710 46.807899 6.969993
v 0.009781 46.807899 6.969993
vn 0.0000 0.0000 -1.0000
usemtl None
s off
f 14//3 13//3 15//3
f 13//3 16//3 15//3
f 13//3 11//3 16//3
f 11//3 12//3 16//3
o Baps_V2.003_Baps_V2.026
v 48.978035 62.062813 3.919012
v 48.978035 46.807899 3.919012
v 12.976450 62.062813 3.919012
v 12.976450 46.807899 3.919012
vn 0.0000 0.0000 -1.0000
usemtl None
s off
f 17//4 18//4 19//4
f 18//4 20//4 19//4
o Baps_V2.004_Baps_V2.027
v 48.978035 46.807899 3.919012
v 48.978035 46.807899 0.257833
v 12.976450 46.807899 0.257833
v 12.976450 46.807899 3.919012
v 61.944710 46.807899 6.969993
v 61.944710 46.807899 0.257833
v 0.009781 46.807899 0.257833
v 0.009781 46.807899 6.969993
vn 0.0000 -1.0000 0.0000
usemtl None
s off
f 24//5 21//5 25//5
f 21//5 26//5 25//5
f 21//5 22//5 26//5
f 23//5 24//5 27//5
f 24//5 28//5 27//5
f 24//5 25//5 28//5
o Baps_V2.005_Baps_V2.028
v 48.978035 62.062813 3.919012
v 48.978035 46.807899 3.919012
v 48.978035 62.062813 0.257833
v 48.978035 46.807899 0.257833
vn -1.0000 0.0000 0.0000
usemtl None
s off
f 29//6 31//6 30//6
f 31//6 32//6 30//6
o Baps_V2.006_Baps_V2.029
v 48.978035 62.062813 3.919012
v 48.978035 62.062813 0.257833
v 12.976450 62.062813 0.257833
v 12.976450 62.062813 3.919012
vn 0.0000 -1.0000 0.0000
usemtl None
s off
f 34//7 33//7 35//7
f 33//7 36//7 35//7
o Baps_V2.007_Baps_V2.030
v 12.976450 62.062813 0.257833
v 12.976450 46.807899 0.257833
v 12.976450 62.062813 3.919012
v 12.976450 46.807899 3.919012
vn 1.0000 0.0000 0.0000
usemtl None
s off
f 37//8 39//8 38//8
f 39//8 40//8 38//8
o Baps_V2.008_Baps_V2.031
v 12.976450 39.561817 0.257833
v 12.976450 39.561817 6.969993
v 0.009781 39.561817 0.257833
v 0.009781 39.561817 6.969993
vn 0.0000 1.0000 0.0000
usemtl None
s off
f 43//9 44//9 41//9
f 44//9 42//9 41//9
o Baps_V2.009_Baps_V2.032
v 0.009781 39.561817 0.257833
v 0.009781 39.561817 6.969993
v 0.009781 46.807899 0.257833
v 0.009781 46.807899 6.969993
vn 1.0000 0.0000 0.0000
usemtl None
s off
f 47//10 48//10 45//10
f 48//10 46//10 45//10
o Baps_V2.010_Baps_V2.033
v 12.976450 6.534933 6.969993
v 12.976450 6.534933 0.257833
v 12.976450 39.561817 0.257833
v 12.976450 39.561817 6.969993
vn 1.0000 0.0000 0.0000
usemtl None
s off
f 51//11 52//11 50//11
f 52//11 49//11 50//11
o Baps_V2.011_Baps_V2.034
v 19.192827 6.534933 6.969993
v 19.192827 6.534933 0.257833
v 12.976450 6.534933 6.969993
v 12.976450 6.534933 0.257833
vn 0.0000 1.0000 0.0000
usemtl None
s off
f 53//12 54//12 55//12
f 54//12 56//12 55//12
o Baps_V2.012_Baps_V2.035
v 19.192827 6.534933 6.969993
v 19.192827 6.534933 0.257833
v 19.192827 0.127874 6.969993
v 19.192827 0.127874 0.257833
vn 1.0000 0.0000 0.0000
usemtl None
s off
f 57//13 59//13 58//13
f 59//13 60//13 58//13
o Baps_V2.013_Baps_V2.036
v 42.761658 0.127874 0.257833
v 42.761658 0.127874 6.969993
v 19.192827 0.127874 6.969993
v 19.192827 0.127874 0.257833
vn 0.0000 1.0000 0.0000
usemtl None
s off
f 63//14 62//14 64//14
f 62//14 61//14 64//14
o Baps_V2.014_Baps_V2.037
v 42.761658 6.534933 0.257833
v 42.761658 6.534933 6.969993
v 42.761658 0.127874 0.257833
v 42.761658 0.127874 6.969993
vn -1.0000 0.0000 0.0000
usemtl None
s off
f 65//15 67//15 66//15
f 67//15 68//15 66//15
o Baps_V2.015_Baps_V2.038
v 42.761658 6.534933 0.257833
v 42.761658 6.534933 6.969993
v 48.978035 6.534933 0.257833
v 48.978035 6.534933 6.969993
vn 0.0000 1.0000 0.0000
usemtl None
s off
f 69//16 70//16 71//16
f 70//16 72//16 71//16
o Baps_V2.016_Baps_V2.039
v 48.978035 6.534933 0.257833
v 48.978035 6.534933 6.969993
v 48.978035 39.561817 0.257833
v 48.978035 39.561817 6.969993
vn -1.0000 0.0000 0.0000
usemtl None
s off
f 73//17 74//17 75//17
f 74//17 76//17 75//17
o Baps_V2.017_Baps_V2.040
v 48.978035 39.561817 0.257833
v 48.978035 39.561817 6.969993
v 61.944710 39.561817 0.257833
v 61.944710 39.561817 6.969993
vn 0.0000 1.0000 0.0000
usemtl None
s off
f 77//18 78//18 79//18
f 78//18 80//18 79//18
o Baps_V2.018_Baps_V2.041
v 61.944710 39.561817 0.257833
v 61.944710 39.561817 6.969993
v 61.944710 46.807899 6.969993
v 61.944710 46.807899 0.257833
vn -1.0000 0.0000 0.0000
usemtl None
s off
f 83//19 84//19 82//19
f 84//19 81//19 82//19
o Baps_V2.019_Baps_V2.042
v 42.761658 6.534933 0.257833
v 42.761658 0.127874 0.257833
v 19.192827 6.534933 0.257833
v 19.192827 0.127874 0.257833
vn 0.0000 0.0000 1.0000
usemtl None
s off
f 87//20 88//20 85//20
f 88//20 86//20 85//20
o Baps_V2.020_Baps_V2.043
v 42.761658 6.534933 0.257833
v 19.192827 6.534933 0.257833
v 48.978035 6.534933 0.257833
v 12.976450 6.534933 0.257833
v 12.976450 39.561817 0.257833
v 48.978035 39.561817 0.257833
vn 0.0000 0.0000 1.0000
usemtl None
s off
f 93//21 90//21 94//21
f 90//21 89//21 94//21
f 94//21 89//21 91//21
f 90//21 93//21 92//21
o Baps_V2.022_Baps_V2.044
v 12.976450 46.807899 0.257833
v 48.978035 46.807899 0.257833
v 61.944710 46.807899 0.257833
v 0.009781 46.807899 0.257833
v 0.009781 39.561817 0.257833
v 61.944710 39.561817 0.257833
v 48.978035 39.561817 0.257833
v 12.976450 39.561817 0.257833
vn 0.0000 0.0000 1.0000
usemtl None
s off
f 98//22 99//22 95//22
f 102//22 95//22 99//22
f 101//22 95//22 102//22
f 95//22 101//22 96//22
f 96//22 101//22 97//22
f 100//22 97//22 101//22
o Baps_V2.023_Baps_V2.045
v 12.976450 62.062813 0.257833
v 12.976450 46.807899 0.257833
v 48.978035 62.062813 0.257833
v 48.978035 46.807899 0.257833
vn 0.0000 0.0000 1.0000
usemtl None
s off
f 104//23 106//23 103//23
f 106//23 105//23 103//23
