# Blender v2.80 (sub 75) OBJ File: 'basement.blend'
# www.blender.org
mtllib basement_cm.mtl
o room-ceiling
v 0.000000 105.000000 24.889999
v 0.000000 49.600002 24.889999
v 44.699997 49.600002 24.889999
v 6.299998 49.600002 24.889999
v 6.299998 105.000000 24.889999
v 44.699997 105.000000 24.889999
vt 0.819617 0.630278
vt 0.875000 0.500000
vt 0.819617 0.500000
vt 0.625000 0.630278
vt 0.625000 0.500000
vt 0.875000 0.630278
vn 0.0000 0.0000 -1.0000
usemtl None
s off
f 4/1/1 1/2/1 5/3/1
f 3/4/1 5/3/1 6/5/1
f 4/1/1 2/6/1 1/2/1
f 3/4/1 4/1/1 5/3/1
o whiteboard
v 37.426239 105.000000 10.652614
v 37.426239 105.000000 20.756813
v 13.573754 105.000000 10.652614
v 13.573754 105.000000 20.756813
vt 0.416515 0.463135
vt 0.583485 0.342247
vt 0.416515 0.342247
vt 0.583485 0.463135
vn 0.0000 -1.0000 0.0000
usemtl None
s off
f 7/7/2 10/8/2 9/9/2
f 7/7/2 8/10/2 10/8/2
o room-back-wall
v 0.000000 105.000000 0.000000
v 0.000000 105.000000 24.889999
v 37.426239 105.000000 10.652614
v 37.426239 105.000000 20.756813
v 13.573754 105.000000 10.652614
v 13.573754 105.000000 20.756813
v 6.299998 105.000000 24.889999
v 44.699997 105.000000 24.889999
v 44.699997 105.000000 0.000000
v 6.299998 105.000000 0.000000
vt 0.375000 0.305383
vt 0.625000 0.250000
vt 0.375000 0.250000
vt 0.625000 0.500000
vt 0.583485 0.342247
vt 0.583485 0.463135
vt 0.416515 0.463135
vt 0.416515 0.342247
vt 0.625000 0.305383
vt 0.375000 0.500000
vn 0.0000 -1.0000 0.0000
usemtl None
s off
f 20/11/3 12/12/3 11/13/3
f 18/14/3 16/15/3 14/16/3
f 13/17/3 18/14/3 14/16/3
f 20/11/3 13/17/3 15/18/3
f 17/19/3 15/18/3 16/15/3
f 20/11/3 17/19/3 12/12/3
f 18/14/3 17/19/3 16/15/3
f 13/17/3 19/20/3 18/14/3
f 20/11/3 19/20/3 13/17/3
f 17/19/3 20/11/3 15/18/3
o room-left-wall
v 0.000000 105.000000 0.000000
v 0.000000 105.000000 24.889999
v 0.000000 49.600002 0.000000
v 0.000000 49.600002 24.889999
vt 0.375000 0.250000
vt 0.625000 0.119722
vt 0.375000 0.119722
vt 0.625000 0.250000
vn 1.0000 0.0000 0.0000
usemtl None
s off
f 21/21/4 24/22/4 23/23/4
f 21/21/4 22/24/4 24/22/4
o ceiling-step
v 0.000000 49.600002 24.889999
v 6.299998 49.600002 24.889999
v 0.000000 49.600002 25.400000
v 6.299998 49.600002 25.400000
vt 0.819617 0.630278
vt 0.875000 0.630278
vt 0.819617 0.630278
vt 0.875000 0.630278
vn 0.0000 -1.0000 0.0000
usemtl None
s off
f 28/25/5 25/26/5 26/27/5
f 28/25/5 27/28/5 25/26/5
o basement-left-wall
v 0.000000 0.000000 0.000000
v 0.000000 0.000000 25.400000
v 0.000000 48.599998 25.400000
v 0.000000 48.599998 0.000000
v 0.000000 49.600002 0.000000
v 0.000000 49.600002 24.889999
v 0.000000 49.600002 25.400000
vt 0.375000 0.112027
vt 0.625000 0.000000
vt 0.375000 0.000000
vt 0.875000 0.630278
vt 0.875000 0.630278
vt 0.625000 0.112027
vt 0.375000 0.119722
vn 1.0000 0.0000 0.0000
usemtl None
s off
f 32/29/6 30/30/6 29/31/6
f 34/32/6 35/33/6 31/34/6
f 32/29/6 31/34/6 30/30/6
f 31/34/6 32/29/6 34/32/6
f 32/29/6 33/35/6 34/32/6
o basement-ceiling
v 0.000000 0.000000 25.400000
v 0.000000 48.599998 25.400000
v 6.299998 0.000000 25.400000
v 6.299998 48.599998 25.400000
v 86.400002 48.599998 25.400000
v 86.400002 0.000000 25.400000
v 45.700001 0.000000 25.400000
v 45.700001 48.599998 25.400000
v 86.400002 105.000000 25.400000
v 45.700001 105.000000 25.400000
v 0.000000 49.600002 25.400000
v 6.299998 49.600002 25.400000
vt 0.819617 0.750000
vt 0.875000 0.637973
vt 0.819617 0.637973
vt 0.807109 0.650481
vt 0.875000 0.630278
vt 0.819617 0.630278
vt 0.819617 0.637973
vt 0.819617 0.750000
vt 0.819617 0.637973
vt 0.819617 0.637973
vt 0.875000 0.750000
vt 0.819617 0.750000
vt 0.819617 0.637973
vn 0.0000 0.0000 -1.0000
usemtl None
s off
f 38/36/7 37/37/7 39/38/7
f 39/39/7 46/40/7 47/41/7
f 40/42/7 42/43/7 43/44/7
f 43/44/7 38/36/7 39/38/7
f 45/45/7 40/42/7 43/44/7
f 38/36/7 36/46/7 37/37/7
f 39/39/7 37/37/7 46/40/7
f 40/42/7 41/47/7 42/43/7
f 43/44/7 42/43/7 38/36/7
f 45/45/7 44/48/7 40/42/7
o basement-front-wall
v 0.000000 0.000000 0.000000
v 0.000000 0.000000 25.400000
v 6.299998 0.000000 0.000000
v 6.299998 0.000000 25.400000
v 86.400002 0.000000 25.400000
v 86.400002 0.000000 0.000000
v 45.700001 0.000000 0.000000
v 45.700001 0.000000 25.400000
vt 0.375000 1.000000
vt 0.625000 0.944617
vt 0.375000 0.944617
vt 0.625000 0.944617
vt 0.375000 0.944617
vt 0.625000 0.944617
vt 0.625000 1.000000
vt 0.375000 0.944617
vn 0.0000 1.0000 0.0000
usemtl None
s off
f 48/49/8 51/50/8 50/51/8
f 52/52/8 54/53/8 55/54/8
f 55/54/8 50/51/8 51/50/8
f 48/49/8 49/55/8 51/50/8
f 52/52/8 53/56/8 54/53/8
f 55/54/8 54/53/8 50/51/8
o basement-right-wall
v 86.400002 48.599998 25.400000
v 86.400002 0.000000 25.400000
v 86.400002 48.599998 0.000000
v 86.400002 0.000000 0.000000
v 86.400002 105.000000 25.400000
v 86.400002 105.000000 0.000000
vt 0.180383 0.750000
vt 0.807109 0.650481
vt 0.180383 0.637973
vt 0.807109 0.650481
vt 0.625000 0.944617
vt 0.180383 0.637973
vn -1.0000 0.0000 0.0000
usemtl None
s off
f 59/57/9 56/58/9 58/59/9
f 60/60/9 58/59/9 56/58/9
f 59/57/9 57/61/9 56/58/9
f 60/60/9 61/62/9 58/59/9
o basement-rear-wall
v 86.400002 105.000000 25.400000
v 86.400002 105.000000 0.000000
v 45.700001 105.000000 25.400000
v 45.700001 105.000000 0.000000
vt 0.180383 0.637973
vt 0.807109 0.650481
vt 0.180383 0.637973
vt 0.807109 0.650481
vn 0.0000 -1.0000 0.0000
usemtl None
s off
f 63/63/10 64/64/10 65/65/10
f 63/63/10 62/66/10 64/64/10
o room-right-wall
v 44.699997 49.600002 0.000000
v 44.699997 49.600002 24.889999
v 44.699997 105.000000 24.889999
v 44.699997 105.000000 0.000000
vt 0.375000 0.630278
vt 0.625000 0.500000
vt 0.375000 0.500000
vt 0.625000 0.630278
vn -1.0000 0.0000 0.0000
usemtl None
s off
f 66/67/11 68/68/11 69/69/11
f 66/67/11 67/70/11 68/68/11
o room-front-wall
v 44.699997 49.600002 0.000000
v 44.699997 49.600002 24.889999
v 6.299998 49.600002 24.889999
v 6.299998 49.600002 0.000000
vt 0.625000 0.630278
vt 0.180383 0.630278
vt 0.819617 0.630278
vt 0.375000 0.630278
vn 0.0000 1.0000 0.0000
usemtl None
s off
f 71/71/12 73/72/12 72/73/12
f 71/71/12 70/74/12 73/72/12
o room-floor
v 0.000000 105.000000 0.000000
v 0.000000 49.600002 0.000000
v 44.699997 49.600002 0.000000
v 6.299998 49.600002 0.000000
v 44.699997 105.000000 0.000000
v 6.299998 105.000000 0.000000
vt 0.180383 0.630278
vt 0.375000 0.500000
vt 0.180383 0.500000
vt 0.125000 0.630278
vt 0.125000 0.500000
vt 0.375000 0.630278
vn 0.0000 0.0000 1.0000
usemtl None
s off
f 77/75/13 78/76/13 79/77/13
f 75/78/13 79/77/13 74/79/13
f 77/75/13 76/80/13 78/76/13
f 75/78/13 77/75/13 79/77/13
o room-right-wall-backside
v 45.700001 48.599998 25.400000
v 45.700001 48.599998 0.000000
v 45.700001 105.000000 25.400000
v 45.700001 105.000000 0.000000
vt 0.180383 0.637973
vt 0.807109 0.650481
vt 0.180383 0.637973
vt 0.807109 0.650481
vn 1.0000 0.0000 0.0000
usemtl None
s off
f 83/81/14 80/82/14 81/83/14
f 83/81/14 82/84/14 80/82/14
o room-front-wall-backside
v 6.299998 48.599998 25.400000
v 6.299998 48.599998 0.000000
v 45.700001 48.599998 25.400000
v 45.700001 48.599998 0.000000
vt 0.180383 0.637973
vt 0.807109 0.650481
vt 0.180383 0.637973
vt 0.807109 0.650481
vn 0.0000 -1.0000 0.0000
usemtl None
s off
f 87/85/15 84/86/15 85/87/15
f 87/85/15 86/88/15 84/86/15
o room-front-wall-width
v 6.299998 49.600002 24.889999
v 6.299998 49.600002 0.000000
v 6.299998 48.599998 25.400000
v 6.299998 48.599998 0.000000
v 6.299998 49.600002 25.400000
vt 0.807109 0.650481
vt 0.819617 0.630278
vt 0.819617 0.630278
vt 0.180383 0.630278
vt 0.180383 0.637973
vn -1.0000 0.0000 0.0000
usemtl None
s off
f 90/89/16 92/90/16 88/91/16
f 89/92/16 91/93/16 88/91/16
f 91/93/16 90/89/16 88/91/16
o basement-floor
v 0.000000 0.000000 0.000000
v 0.000000 48.599998 0.000000
v 0.000000 49.600002 0.000000
v 6.299998 0.000000 0.000000
v 6.299998 49.600002 0.000000
v 6.299998 48.599998 0.000000
v 86.400002 48.599998 0.000000
v 86.400002 0.000000 0.000000
v 45.700001 0.000000 0.000000
v 45.700001 48.599998 0.000000
v 86.400002 105.000000 0.000000
v 45.700001 105.000000 0.000000
vt 0.125000 0.637973
vt 0.180383 0.630278
vt 0.125000 0.630278
vt 0.125000 0.750000
vt 0.180383 0.637973
vt 0.180383 0.750000
vt 0.180383 0.637973
vt 0.180383 0.750000
vt 0.180383 0.750000
vt 0.180383 0.637973
vt 0.180383 0.637973
vt 0.180383 0.637973
vn 0.0000 0.0000 1.0000
usemtl None
s off
f 94/94/17 97/95/17 95/96/17
f 93/97/17 98/98/17 94/94/17
f 100/99/17 102/100/17 101/101/17
f 101/101/17 98/98/17 96/102/17
f 103/103/17 102/100/17 99/104/17
f 94/94/17 98/98/17 97/95/17
f 93/97/17 96/102/17 98/98/17
f 100/99/17 99/104/17 102/100/17
f 101/101/17 102/100/17 98/98/17
f 103/103/17 104/105/17 102/100/17
