# Blender v2.80 (sub 75) OBJ File: 'basement-wayverb.blend'
# www.blender.org
mtllib basement-wayverb.mtl
g room-right-wall-backside
v 0.630000 2.489000 -4.960000
v 0.630000 2.489000 -10.499999
v 3.742624 1.065261 -10.499999
v 3.742624 2.075681 -10.499999
v 1.357376 1.065261 -10.499999
v 1.357376 2.075681 -10.499999
v 0.000000 0.000000 -10.499999
v 4.470000 2.489000 -10.499999
v 0.630000 0.000000 -10.499999
v 0.000000 2.489000 -10.499999
v 0.000000 2.540000 -4.960000
v 0.000000 0.000000 -4.860000
v 0.000000 0.000000 -4.960000
v 0.000000 2.489000 -4.960000
v 0.000000 2.540000 0.000000
v 0.000000 2.540000 -4.860000
v 0.630000 2.540000 -4.860000
v 8.640000 2.540000 -4.860000
v 4.570000 2.540000 0.000000
v 4.570000 2.540000 -4.860000
v 8.640000 2.540000 -10.499999
v 4.570000 2.540000 -10.499999
v 0.630000 2.540000 0.000000
v 8.640000 2.540000 0.000000
v 8.640000 0.000000 -4.860000
v 8.640000 0.000000 -10.499999
v 4.470000 2.489000 -4.960000
v 4.470000 0.000000 -4.960000
v 4.470000 0.000000 -10.499999
v 4.570000 0.000000 -4.860000
v 0.630000 0.000000 -4.860000
v 0.630000 2.540000 -4.960000
v 0.000000 0.000000 0.000000
v 0.630000 0.000000 0.000000
v 0.630000 0.000000 -4.960000
v 8.640000 0.000000 0.000000
v 4.570000 0.000000 0.000000
v 4.570000 0.000000 -10.499999
vt 0.375000 0.305383
vt 0.625000 0.250000
vt 0.375000 0.250000
vt 0.625000 0.500000
vt 0.583485 0.342247
vt 0.583485 0.463135
vt 0.416515 0.463135
vt 0.416515 0.342247
vt 0.625000 0.305383
vt 0.625000 0.119722
vt 0.375000 0.119722
vt 0.375000 1.000000
vt 0.625000 0.944617
vt 0.375000 0.944617
vt 0.625000 0.944617
vt 0.375000 0.630278
vt 0.375000 0.500000
vt 0.625000 0.630278
vt 0.180383 0.630278
vt 0.819617 0.630278
vt 0.807109 0.650481
vt 0.819617 0.630278
vt 0.625000 1.000000
vt 0.375000 0.944617
vt 0.180383 0.637973
vt 0.875000 0.500000
vt 0.819617 0.500000
vt 0.875000 0.630278
vt 0.819617 0.750000
vt 0.875000 0.637973
vt 0.819617 0.637973
vt 0.875000 0.630278
vt 0.819617 0.637973
vt 0.819617 0.750000
vt 0.819617 0.637973
vt 0.819617 0.637973
vt 0.875000 0.750000
vt 0.819617 0.750000
vt 0.819617 0.637973
vt 0.375000 0.112027
vt 0.625000 0.000000
vt 0.375000 0.000000
vt 0.625000 0.112027
vt 0.180383 0.750000
vt 0.807109 0.650481
vt 0.180383 0.637973
vt 0.807109 0.650481
vt 0.180383 0.500000
vt 0.125000 0.630278
vt 0.125000 0.500000
vt 0.125000 0.637973
vt 0.125000 0.750000
vt 0.180383 0.637973
vt 0.180383 0.750000
vt 0.180383 0.750000
vt 0.180383 0.637973
vt 0.625000 0.944617
vt 0.180383 0.637973
vt 0.807109 0.650481
vt 0.375000 0.944617
vt 0.807109 0.650481
vn 0.0000 0.0000 1.0000
vn 1.0000 0.0000 0.0000
vn 0.0000 0.0000 -1.0000
vn -1.0000 0.0000 0.0000
vn 0.0000 -1.0000 0.0000
vn 0.0000 1.0000 0.0000
usemtl Wall
s off
f 9/1/1 10/2/1 7/3/1
f 8/4/1 6/5/1 4/6/1
f 3/7/1 8/4/1 4/6/1
f 9/1/1 3/7/1 5/8/1
f 2/9/1 5/8/1 6/5/1
f 7/3/2 14/10/2 13/11/2
f 33/12/3 23/13/3 34/14/3
f 19/15/3 34/14/3 23/13/3
f 28/16/4 8/4/4 29/17/4
f 27/18/3 35/19/3 1/20/3
f 17/21/4 32/22/4 1/20/4
f 9/1/1 2/9/1 10/2/1
f 8/4/1 2/9/1 6/5/1
f 3/7/1 29/17/1 8/4/1
f 9/1/1 29/17/1 3/7/1
f 2/9/1 9/1/1 5/8/1
f 7/3/2 10/2/2 14/10/2
f 33/12/3 15/23/3 23/13/3
f 19/15/3 37/24/3 34/14/3
f 28/16/4 27/18/4 8/4/4
f 27/18/3 28/16/3 35/19/3
f 35/19/4 31/25/4 1/20/4
f 31/25/4 17/21/4 1/20/4
usemtl Whiteboard
f 3/7/1 6/5/1 5/8/1
f 3/7/1 4/6/1 6/5/1
usemtl Wood_Ceil
f 1/20/5 10/26/5 2/27/5
f 27/18/5 2/27/5 8/4/5
f 1/20/5 14/28/5 10/26/5
f 27/18/5 1/20/5 2/27/5
usemtl Joist_Ceil
f 32/22/1 14/28/1 1/20/1
f 23/29/5 16/30/5 17/31/5
f 17/21/5 11/32/5 32/22/5
f 18/33/5 19/34/5 20/35/5
f 20/35/5 23/29/5 17/31/5
f 22/36/5 18/33/5 20/35/5
f 32/22/1 11/32/1 14/28/1
f 23/29/5 15/37/5 16/30/5
f 17/21/5 16/30/5 11/32/5
f 18/33/5 24/38/5 19/34/5
f 20/35/5 19/34/5 23/29/5
f 22/36/5 21/39/5 18/33/5
usemtl Concrete
f 12/40/2 15/41/2 33/42/2
f 14/28/2 11/32/2 16/43/2
f 36/44/4 18/45/4 25/46/4
f 21/47/4 25/46/4 18/45/4
f 35/19/6 29/17/6 9/48/6
f 13/49/6 9/48/6 7/50/6
f 12/51/6 35/19/6 13/49/6
f 33/52/6 31/25/6 12/51/6
f 36/44/6 30/53/6 37/54/6
f 37/54/6 31/25/6 34/55/6
f 26/56/6 30/53/6 25/46/6
f 12/40/2 16/43/2 15/41/2
f 16/43/2 12/40/2 14/28/2
f 12/40/2 13/11/2 14/28/2
f 36/44/4 24/57/4 18/45/4
f 21/47/4 26/56/4 25/46/4
f 35/19/6 28/16/6 29/17/6
f 13/49/6 35/19/6 9/48/6
f 12/51/6 31/25/6 35/19/6
f 33/52/6 34/55/6 31/25/6
f 36/44/6 25/46/6 30/53/6
f 37/54/6 30/53/6 31/25/6
f 26/56/6 38/58/6 30/53/6
usemtl PassThrough
f 24/57/3 37/24/3 19/15/3
f 26/56/1 22/59/1 38/58/1
f 24/57/3 36/60/3 37/24/3
f 26/56/1 21/47/1 22/59/1
usemtl Insul
f 38/58/2 20/61/2 30/53/2
f 30/53/1 17/21/1 31/25/1
f 38/58/2 22/59/2 20/61/2
f 30/53/1 20/61/1 17/21/1
