                                                                        S      1
,,8HUntitled,8HUntitled,7Hunknown,7Hunknown,32,38,7,99,15,,1.,6,1HM,1,  G      1
0.08,15H20200515.205909,1D-5,10000.,7Hunknown,7Hunknown,11,0,;          G      2
     186       1                                                00000000D      1
     186            -143       1       0                               0D      2
     514       2                                                00010000D      3
     514                       1       1                               0D      4
     510       3                                                00010000D      5
     510            -143       1       1                               0D      6
     510       4                                                00010000D      7
     510            -143       1       1                               0D      8
     510       5                                                00010000D      9
     510            -143       1       1                               0D     10
     510       6                                                00010000D     11
     510            -143       1       1                               0D     12
     510       7                                                00010000D     13
     510            -143       1       1                               0D     14
     510       8                                                00010000D     15
     510            -143       1       1                               0D     16
     510       9                                                00010000D     17
     510            -143       1       1                               0D     18
     510      10                                                00010000D     19
     510            -143       1       1                               0D     20
     510      11                                                00010000D     21
     510            -143       1       1                               0D     22
     510      12                                                00010000D     23
     510            -143       1       1                               0D     24
     510      13                                                00010000D     25
     510            -143       1       1                               0D     26
     510      14                                                00010000D     27
     510            -143       1       1                               0D     28
     508      15                                                00010000D     29
     508                       1       1                               0D     30
     508      16                                                00010000D     31
     508                       1       1                               0D     32
     508      17                                                00010000D     33
     508                       1       1                               0D     34
     508      18                                                00010000D     35
     508                       1       1                               0D     36
     508      19                                                00010000D     37
     508                       1       1                               0D     38
     508      20                                                00010000D     39
     508                       1       1                               0D     40
     508      21                                                00010000D     41
     508                       1       1                               0D     42
     508      22                                                00010000D     43
     508                       1       1                               0D     44
     508      23                                                00010000D     45
     508                       1       1                               0D     46
     508      24                                                00010000D     47
     508                       1       1                               0D     48
     508      25                                                00010000D     49
     508                       3       1                               0D     50
     508      28                                                00010000D     51
     508                       3       1                               0D     52
     126      31                                                00010000D     53
     126       0               2       0                               0D     54
     126      33                                                00010000D     55
     126       0               2       0                               0D     56
     126      35                                                00010000D     57
     126       0               2       0                               0D     58
     126      37                                                00010000D     59
     126       0               2       0                               0D     60
     126      39                                                00010000D     61
     126       0               2       0                               0D     62
     126      41                                                00010000D     63
     126       0               2       0                               0D     64
     126      43                                                00010000D     65
     126       0               2       0                               0D     66
     126      45                                                00010000D     67
     126       0               2       0                               0D     68
     126      47                                                00010000D     69
     126       0               2       0                               0D     70
     126      49                                                00010000D     71
     126       0               2       0                               0D     72
     126      51                                                00010000D     73
     126       0               2       0                               0D     74
     126      53                                                00010000D     75
     126       0               2       0                               0D     76
     126      55                                                00010000D     77
     126       0               2       0                               0D     78
     126      57                                                00010000D     79
     126       0               2       0                               0D     80
     126      59                                                00010000D     81
     126       0               2       0                               0D     82
     126      61                                                00010000D     83
     126       0               2       0                               0D     84
     126      63                                                00010000D     85
     126       0               2       0                               0D     86
     126      65                                                00010000D     87
     126       0               2       0                               0D     88
     126      67                                                00010000D     89
     126       0               2       0                               0D     90
     126      69                                                00010000D     91
     126       0               2       0                               0D     92
     126      71                                                00010000D     93
     126       0               2       0                               0D     94
     126      73                                                00010000D     95
     126       0               2       0                               0D     96
     126      75                                                00010000D     97
     126       0               2       0                               0D     98
     126      77                                                00010000D     99
     126       0               2       0                               0D    100
     126      79                                                00010000D    101
     126       0               2       0                               0D    102
     126      81                                                00010000D    103
     126       0               2       0                               0D    104
     126      83                                                00010000D    105
     126       0               2       0                               0D    106
     126      85                                                00010000D    107
     126       0               2       0                               0D    108
     126      87                                                00010000D    109
     126       0               2       0                               0D    110
     126      89                                                00010000D    111
     126       0               2       0                               0D    112
     128      91                                                00010000D    113
     128       0    -143       4       0                               0D    114
     128      95                                                00010000D    115
     128       0    -143       5       0                               0D    116
     128     100                                                00010000D    117
     128       0    -143       4       0                               0D    118
     128     104                                                00010000D    119
     128       0    -143       4       0                               0D    120
     128     108                                                00010000D    121
     128       0    -143       4       0                               0D    122
     128     112                                                00010000D    123
     128       0    -143       4       0                               0D    124
     128     116                                                00010000D    125
     128       0    -143       4       0                               0D    126
     128     120                                                00010000D    127
     128       0    -143       4       0                               0D    128
     128     124                                                00010000D    129
     128       0    -143       4       0                               0D    130
     128     128                                                00010000D    131
     128       0    -143       4       0                               0D    132
     128     132                                                00010000D    133
     128       0    -143       5       0                               0D    134
     128     137                                                00010000D    135
     128       0    -143       6       0                               0D    136
     502     143                                                00010000D    137
     502                       5       1                               0D    138
     504     148                                                00010001D    139
     504                       8       1                               0D    140
     406     156                                                00000000D    141
     406                       1      15                               0D    142
     314     157                                                00000200D    143
     314                       2       0                               0D    144
186,3,1,0,0,1,141;                                                     1P      1
514,12,5,1,7,1,9,1,11,1,13,1,15,1,17,1,19,1,21,1,23,1,25,1,27,1;       3P      2
510,113,1,1,29;                                                        5P      3
510,115,1,1,31;                                                        7P      4
510,117,1,1,33;                                                        9P      5
510,119,1,1,35;                                                       11P      6
510,121,1,1,37;                                                       13P      7
510,123,1,1,39;                                                       15P      8
510,125,1,1,41;                                                       17P      9
510,127,1,1,43;                                                       19P     10
510,129,1,1,45;                                                       21P     11
510,131,1,1,47;                                                       23P     12
510,133,1,1,49;                                                       25P     13
510,135,1,1,51;                                                       27P     14
508,4,0,139,1,0,0,0,139,2,1,0,0,139,3,0,0,0,139,4,0,0;                29P     15
508,4,0,139,5,0,0,0,139,4,1,0,0,139,6,0,0,0,139,7,0,0;                31P     16
508,4,0,139,8,0,0,0,139,7,1,0,0,139,9,0,0,0,139,10,0,0;               33P     17
508,4,0,139,11,0,0,0,139,10,1,0,0,139,12,0,0,0,139,13,0,0;            35P     18
508,4,0,139,14,0,0,0,139,13,1,0,0,139,15,0,0,0,139,16,0,0;            37P     19
508,4,0,139,17,1,0,0,139,16,1,0,0,139,18,0,0,0,139,19,0,0;            39P     20
508,4,0,139,20,1,0,0,139,19,1,0,0,139,21,0,0,0,139,22,0,0;            41P     21
508,4,0,139,23,1,0,0,139,22,1,0,0,139,24,0,0,0,139,25,0,0;            43P     22
508,4,0,139,26,1,0,0,139,25,1,0,0,139,27,0,0,0,139,28,0,0;            45P     23
508,4,0,139,29,1,0,0,139,28,1,0,0,139,30,0,0,0,139,2,0,0;             47P     24
508,10,0,139,30,1,0,0,139,27,1,0,0,139,24,1,0,0,139,21,1,0,0,         49P     25
139,18,1,0,0,139,15,1,0,0,139,12,1,0,0,139,9,1,0,0,139,6,1,0,0,       49P     26
139,3,1,0;                                                            49P     27
508,10,0,139,29,0,0,0,139,1,1,0,0,139,5,1,0,0,139,8,1,0,0,139,        51P     28
11,1,0,0,139,14,1,0,0,139,17,0,0,0,139,20,0,0,0,139,23,0,0,0,         51P     29
139,26,0,0;                                                           51P     30
126,1,1,0,0,1,0,0.,0.,558.,558.,1.,1.,4.5,10.5,0.,4.5,4.92,0.,        53P     31
0.,558.,0.,0.,0.;                                                     53P     32
126,1,1,0,0,1,0,0.,0.,254.,254.,1.,1.,4.5,10.5,0.,4.5,10.5,2.54,      55P     33
0.,254.,0.,0.,0.;                                                     55P     34
126,1,1,0,0,1,0,-558.,-558.,0.,0.,1.,1.,4.5,4.92,2.54,4.5,10.5,       57P     35
2.54,-558.,0.,0.,0.,0.;                                               57P     36
126,1,1,0,0,1,0,0.,0.,254.,254.,1.,1.,4.5,4.92,0.,4.5,4.92,2.54,      59P     37
0.,254.,0.,0.,0.;                                                     59P     38
126,1,1,0,0,1,0,0.,0.,385.2,385.2,1.,1.,4.5,4.92,0.,0.648,4.92,       61P     39
0.,0.,385.2,0.,0.,0.;                                                 61P     40
126,1,1,0,0,1,0,-385.2,-385.2,0.,0.,1.,1.,0.648,4.92,2.54,4.5,        63P     41
4.92,2.54,-385.2,0.,0.,0.,0.;                                         63P     42
126,1,1,0,0,1,0,0.,0.,254.,254.,1.,1.,0.648,4.92,0.,0.648,4.92,       65P     43
2.54,0.,254.,0.,0.,0.;                                                65P     44
126,1,1,0,0,1,0,0.,0.,10.,10.,1.,1.,0.648,4.92,0.,0.648,4.82,0.,      67P     45
0.,10.,0.,0.,0.;                                                      67P     46
126,1,1,0,0,1,0,-10.,-10.,0.,0.,1.,1.,0.648,4.82,2.54,0.648,          69P     47
4.92,2.54,-10.,0.,0.,0.,0.;                                           69P     48
126,1,1,0,0,1,0,0.,0.,254.,254.,1.,1.,0.648,4.82,0.,0.648,4.82,       71P     49
2.54,0.,254.,0.,0.,0.;                                                71P     50
126,1,1,0,0,1,0,0.,0.,395.2,395.2,1.,1.,0.648,4.82,0.,4.6,4.82,       73P     51
0.,0.,395.2,0.,0.,0.;                                                 73P     52
126,1,1,0,0,1,0,-395.2,-395.2,0.,0.,1.,1.,4.6,4.82,2.54,0.648,        75P     53
4.82,2.54,-395.2,0.,0.,0.,0.;                                         75P     54
126,1,1,0,0,1,0,0.,0.,254.,254.,1.,1.,4.6,4.82,0.,4.6,4.82,2.54,      77P     55
0.,254.,0.,0.,0.;                                                     77P     56
126,1,1,0,0,1,0,0.,0.,568.,568.,1.,1.,4.6,4.82,0.,4.6,10.5,0.,        79P     57
0.,568.,0.,0.,0.;                                                     79P     58
126,1,1,0,0,1,0,-568.,-568.,0.,0.,1.,1.,4.6,10.5,2.54,4.6,4.82,       81P     59
2.54,-568.,0.,0.,0.,0.;                                               81P     60
126,1,1,0,0,1,0,0.,0.,254.,254.,1.,1.,4.6,10.5,0.,4.6,10.5,2.54,      83P     61
0.,254.,0.,0.,0.;                                                     83P     62
126,1,1,0,0,1,0,0.,0.,407.,407.,1.,1.,8.67,10.5,0.,4.6,10.5,0.,       85P     63
0.,407.,0.,0.,0.;                                                     85P     64
126,1,1,0,0,1,0,0.,0.,407.,407.,1.,1.,8.67,10.5,2.54,4.6,10.5,        87P     65
2.54,0.,407.,0.,0.,0.;                                                87P     66
126,1,1,0,0,1,0,0.,0.,254.,254.,1.,1.,8.67,10.5,0.,8.67,10.5,         89P     67
2.54,0.,254.,0.,0.,0.;                                                89P     68
126,1,1,0,0,1,0,0.,0.,1050.,1050.,1.,1.,8.67,0.,0.,8.67,10.5,0.,      91P     69
0.,1050.,0.,0.,0.;                                                    91P     70
126,1,1,0,0,1,0,0.,0.,1050.,1050.,1.,1.,8.67,0.,2.54,8.67,10.5,       93P     71
2.54,0.,1050.,0.,0.,0.;                                               93P     72
126,1,1,0,0,1,0,0.,0.,254.,254.,1.,1.,8.67,0.,0.,8.67,0.,2.54,        95P     73
0.,254.,0.,0.,0.;                                                     95P     74
126,1,1,0,0,1,0,0.,0.,867.,867.,1.,1.,0.,0.,0.,8.67,0.,0.,0.,         97P     75
867.,0.,0.,0.;                                                        97P     76
126,1,1,0,0,1,0,0.,0.,867.,867.,1.,1.,0.,0.,2.54,8.67,0.,2.54,        99P     77
0.,867.,0.,0.,0.;                                                     99P     78
126,1,1,0,0,1,0,0.,0.,254.,254.,1.,1.,0.,0.,0.,0.,0.,2.54,0.,        101P     79
254.,0.,0.,0.;                                                       101P     80
126,1,1,0,0,1,0,0.,0.,1050.,1050.,1.,1.,0.,10.5,0.,0.,0.,0.,0.,      103P     81
1050.,0.,0.,0.;                                                      103P     82
126,1,1,0,0,1,0,0.,0.,1050.,1050.,1.,1.,0.,10.5,2.54,0.,0.,2.54,     105P     83
0.,1050.,0.,0.,0.;                                                   105P     84
126,1,1,0,0,1,0,0.,0.,254.,254.,1.,1.,0.,10.5,0.,0.,10.5,2.54,       107P     85
0.,254.,0.,0.,0.;                                                    107P     86
126,1,1,0,0,1,0,417.,417.,867.,867.,1.,1.,4.5,10.5,0.,0.,10.5,       109P     87
0.,417.,867.,0.,0.,0.;                                               109P     88
126,1,1,0,0,1,0,417.,417.,867.,867.,1.,1.,4.5,10.5,2.54,0.,10.5,     111P     89
2.54,417.,867.,0.,0.,0.;                                             111P     90
128,1,1,1,1,0,0,1,0,0,-0.001,-0.001,558.001,558.001,-0.001,          113P     91
-0.001,254.001,254.001,1.,1.,1.,1.,4.5,4.91999,-1D-5,4.5,            113P     92
10.50001,-1D-5,4.5,4.91999,2.54001,4.5,10.50001,2.54001,-0.001,      113P     93
558.001,-0.001,254.001;                                              113P     94
128,1,1,1,1,0,0,1,0,0,-0.00100000000001421,-0.00100000000001421,     115P     95
385.201,385.201,-0.001,-0.001,254.001,254.001,1.,1.,1.,1.,           115P     96
0.64799,4.92,-1D-5,4.50001,4.92,-1D-5,0.64799,4.92,2.54001,          115P     97
4.50001,4.92,2.54001,-0.00100000000001421,385.201,-0.001,            115P     98
254.001;                                                             115P     99
128,1,1,1,1,0,0,1,0,0,-0.001,-0.001,10.001,10.001,-0.001,-0.001,     117P    100
254.001,254.001,1.,1.,1.,1.,0.648,4.81999,-1D-5,0.648,4.92001,       117P    101
-1D-5,0.648,4.81999,2.54001,0.648,4.92001,2.54001,-0.001,10.001,     117P    102
-0.001,254.001;                                                      117P    103
128,1,1,1,1,0,0,1,0,0,-0.001,-0.001,395.201,395.201,-0.001,          119P    104
-0.001,254.001,254.001,1.,1.,1.,1.,4.60001,4.82,-1D-5,0.64799,       119P    105
4.82,-1D-5,4.60001,4.82,2.54001,0.64799,4.82,2.54001,-0.001,         119P    106
395.201,-0.001,254.001;                                              119P    107
128,1,1,1,1,0,0,1,0,0,-0.001,-0.001,568.001,568.001,-0.001,          121P    108
-0.001,254.001,254.001,1.,1.,1.,1.,4.6,10.50001,-1D-5,4.6,           121P    109
4.81999,-1D-5,4.6,10.50001,2.54001,4.6,4.81999,2.54001,-0.001,       121P    110
568.001,-0.001,254.001;                                              121P    111
128,1,1,1,1,0,0,1,0,0,-0.001,-0.001,407.001,407.001,-0.001,          123P    112
-0.001,254.001,254.001,1.,1.,1.,1.,8.67001,10.5,-1D-5,4.59999,       123P    113
10.5,-1D-5,8.67001,10.5,2.54001,4.59999,10.5,2.54001,-0.001,         123P    114
407.001,-0.001,254.001;                                              123P    115
128,1,1,1,1,0,0,1,0,0,-0.001,-0.001,1050.001,1050.001,-0.001,        125P    116
-0.001,254.001,254.001,1.,1.,1.,1.,8.67,-1D-5,-1D-5,8.67,            125P    117
10.50001,-1D-5,8.67,-1D-5,2.54001,8.67,10.50001,2.54001,-0.001,      125P    118
1050.001,-0.001,254.001;                                             125P    119
128,1,1,1,1,0,0,1,0,0,-0.001,-0.001,867.001,867.001,-0.001,          127P    120
-0.001,254.001,254.001,1.,1.,1.,1.,-1D-5,0.,-1D-5,8.67001,0.,        127P    121
-1D-5,-1D-5,0.,2.54001,8.67001,0.,2.54001,-0.001,867.001,-0.001,     127P    122
254.001;                                                             127P    123
128,1,1,1,1,0,0,1,0,0,-0.001,-0.001,1050.001,1050.001,-0.001,        129P    124
-0.001,254.001,254.001,1.,1.,1.,1.,0.,10.50001,-1D-5,0.,             129P    125
-9.99999999976353D-6,-1D-5,0.,10.50001,2.54001,0.,                   129P    126
-9.99999999976353D-6,2.54001,-0.001,1050.001,-0.001,254.001;         129P    127
128,1,1,1,1,0,0,1,0,0,-0.001,-0.001,450.001,450.001,-0.001,          131P    128
-0.001,254.001,254.001,1.,1.,1.,1.,4.50001,10.5,-1D-5,               131P    129
-9.99999999976353D-6,10.5,-1D-5,4.50001,10.5,2.54001,                131P    130
-9.99999999976353D-6,10.5,2.54001,-0.001,450.001,-0.001,254.001;     131P    131
128,1,1,1,1,0,0,1,0,0,-433.501,-433.501,433.501,433.501,             133P    132
-525.001,-525.001,525.001,525.001,1.,1.,1.,1.,                       133P    133
-9.99999999976353D-6,-9.99999999976353D-6,2.54,8.67001,              133P    134
-9.99999999976353D-6,2.54,-9.99999999976353D-6,10.50001,2.54,        133P    135
8.67001,10.50001,2.54,-433.501,433.501,-525.001,525.001;             133P    136
128,1,1,1,1,0,0,1,0,0,-433.501,-433.501,433.501,433.501,             135P    137
-525.001,-525.001,525.001,525.001,1.,1.,1.,1.,8.67001,               135P    138
-9.99999999976353D-6,0.,-9.99999999976353D-6,                        135P    139
-9.99999999976353D-6,0.,8.67001,10.50001,0.,                         135P    140
-9.99999999976353D-6,10.50001,0.,-433.501,433.501,-525.001,          135P    141
525.001;                                                             135P    142
502,20,4.5,10.5,0.,4.5,4.92,0.,4.5,10.5,2.54,4.5,4.92,2.54,          137P    143
0.648,4.92,0.,0.648,4.92,2.54,0.648,4.82,0.,0.648,4.82,2.54,4.6,     137P    144
4.82,0.,4.6,4.82,2.54,4.6,10.5,0.,4.6,10.5,2.54,8.67,10.5,0.,        137P    145
8.67,10.5,2.54,8.67,0.,0.,8.67,0.,2.54,0.,0.,0.,0.,0.,2.54,0.,       137P    146
10.5,0.,0.,10.5,2.54;                                                137P    147
504,30,53,137,1,137,2,55,137,1,137,3,57,137,4,137,3,59,137,2,        139P    148
137,4,61,137,2,137,5,63,137,6,137,4,65,137,5,137,6,67,137,5,137,     139P    149
7,69,137,8,137,6,71,137,7,137,8,73,137,7,137,9,75,137,10,137,8,      139P    150
77,137,9,137,10,79,137,9,137,11,81,137,12,137,10,83,137,11,137,      139P    151
12,85,137,13,137,11,87,137,14,137,12,89,137,13,137,14,91,137,15,     139P    152
137,13,93,137,16,137,14,95,137,15,137,16,97,137,17,137,15,99,        139P    153
137,18,137,16,101,137,17,137,18,103,137,19,137,17,105,137,20,        139P    154
137,18,107,137,19,137,20,109,137,1,137,19,111,137,3,137,20;          139P    155
406,1,5HBody1;                                                       141P    156
314,96.078431372549,96.078431372549,96.4705882352941,16HAluminum     143P    157
 - Satin;                                                            143P    158
S      1G      2D    144P    158                                        T      1
