# Blender v2.80 (sub 75) OBJ File: ''
# www.blender.org
mtllib bigger.mtl
o ceiling_Cube.002
v 0.000000 0.000000 3.000000
v 0.000000 15.800000 3.000000
v 13.800000 0.000000 3.000000
v 13.800000 15.800000 3.000000
v 2.300000 17.738150 3.000000
v 4.600000 17.738150 3.000000
v 6.900000 15.800000 3.000000
v 9.200001 15.800000 3.000000
v 11.500001 15.800000 3.000000
v 11.500000 0.000000 3.000000
v 9.200000 0.000000 3.000000
v 6.900000 0.000000 3.000000
v 4.600000 0.000000 3.000000
v 2.300000 0.000000 3.000000
v 0.000000 2.633333 3.000000
v 0.000000 5.266667 3.000000
v 0.000000 7.900000 3.000000
v 0.000000 10.533334 3.000000
v 0.000000 13.166667 3.000000
v 13.800000 13.166667 3.000000
v 13.800000 10.533333 3.000000
v 13.800000 7.900000 3.000000
v 16.128151 5.266666 3.000000
v 16.128151 2.633333 3.000000
v 11.500001 13.166667 3.000000
v 11.500001 10.533333 3.000000
v 11.500001 7.900000 3.000000
v 11.500001 5.266666 3.000000
v 11.500001 2.633333 3.000000
v 9.200001 13.166667 3.000000
v 9.200001 10.533333 3.000000
v 9.200001 7.900000 3.000000
v 9.200001 5.266666 3.000000
v 9.200000 2.633333 3.000000
v 6.900000 13.166667 3.000000
v 6.900000 10.533333 3.000000
v 6.900000 7.900000 3.000000
v 6.900000 5.266666 3.000000
v 6.900000 2.633333 3.000000
v 4.600000 13.166667 3.000000
v 4.600000 10.533333 3.000000
v 4.600000 7.900000 3.000000
v 4.600000 5.266666 3.000000
v 4.600000 2.633333 3.000000
v 2.300000 13.166667 3.000000
v 2.300000 10.533333 3.000000
v 2.300000 7.900000 3.000000
v 2.300000 5.266666 3.000000
v 2.300000 2.633333 3.000000
v 11.500001 21.342546 3.000000
v 13.800000 21.342546 3.000000
v 9.200001 21.342546 3.000000
vt 0.708333 0.500000
vt 0.666667 0.500000
vt 0.708333 0.500000
vt 0.833333 0.750000
vt 0.875000 0.708333
vt 0.833333 0.708333
vt 0.625000 0.750000
vt 0.666667 0.708333
vt 0.625000 0.708333
vt 0.666667 0.750000
vt 0.708333 0.708333
vt 0.708333 0.750000
vt 0.750000 0.708333
vt 0.750000 0.750000
vt 0.791667 0.708333
vt 0.791667 0.750000
vt 0.791667 0.541667
vt 0.833333 0.500000
vt 0.791667 0.500000
vt 0.791667 0.583333
vt 0.833333 0.541667
vt 0.791667 0.625000
vt 0.833333 0.583333
vt 0.791667 0.666667
vt 0.833333 0.625000
vt 0.833333 0.666667
vt 0.750000 0.500000
vt 0.750000 0.583333
vt 0.750000 0.541667
vt 0.750000 0.625000
vt 0.750000 0.666667
vt 0.708333 0.541667
vt 0.708333 0.583333
vt 0.708333 0.625000
vt 0.708333 0.666667
vt 0.666667 0.541667
vt 0.666667 0.583333
vt 0.666667 0.625000
vt 0.666667 0.666667
vt 0.625000 0.541667
vt 0.625000 0.500000
vt 0.625000 0.583333
vt 0.625000 0.625000
vt 0.625000 0.666667
vt 0.875000 0.500000
vt 0.875000 0.583333
vt 0.875000 0.541667
vt 0.875000 0.625000
vt 0.875000 0.666667
vt 0.666667 0.500000
vt 0.875000 0.750000
vt 0.625000 0.500000
vn 0.0000 0.0000 -1.0000
usemtl None
s off
f 52/1/1 9/2/1 8/3/1
f 14/4/1 15/5/1 49/6/1
f 3/7/1 29/8/1 24/9/1
f 10/10/1 34/11/1 29/8/1
f 11/12/1 39/13/1 34/11/1
f 12/14/1 44/15/1 39/13/1
f 13/16/1 49/6/1 44/15/1
f 40/17/1 5/18/1 6/19/1
f 41/20/1 45/21/1 40/17/1
f 42/22/1 46/23/1 41/20/1
f 43/24/1 47/25/1 42/22/1
f 44/15/1 48/26/1 43/24/1
f 7/27/1 40/17/1 6/19/1
f 36/28/1 40/17/1 35/29/1
f 37/30/1 41/20/1 36/28/1
f 38/31/1 42/22/1 37/30/1
f 39/13/1 43/24/1 38/31/1
f 30/32/1 7/27/1 8/3/1
f 31/33/1 35/29/1 30/32/1
f 32/34/1 36/28/1 31/33/1
f 33/35/1 37/30/1 32/34/1
f 34/11/1 38/31/1 33/35/1
f 25/36/1 8/3/1 9/2/1
f 26/37/1 30/32/1 25/36/1
f 27/38/1 31/33/1 26/37/1
f 28/39/1 32/34/1 27/38/1
f 29/8/1 33/35/1 28/39/1
f 20/40/1 9/2/1 4/41/1
f 21/42/1 25/36/1 20/40/1
f 22/43/1 26/37/1 21/42/1
f 22/43/1 28/39/1 27/38/1
f 24/9/1 28/39/1 23/44/1
f 45/21/1 2/45/1 5/18/1
f 45/21/1 18/46/1 19/47/1
f 46/23/1 17/48/1 18/46/1
f 47/25/1 16/49/1 17/48/1
f 48/26/1 15/5/1 16/49/1
f 50/50/1 4/41/1 9/2/1
f 52/1/1 50/50/1 9/2/1
f 14/4/1 1/51/1 15/5/1
f 3/7/1 10/10/1 29/8/1
f 10/10/1 11/12/1 34/11/1
f 11/12/1 12/14/1 39/13/1
f 12/14/1 13/16/1 44/15/1
f 13/16/1 14/4/1 49/6/1
f 40/17/1 45/21/1 5/18/1
f 41/20/1 46/23/1 45/21/1
f 42/22/1 47/25/1 46/23/1
f 43/24/1 48/26/1 47/25/1
f 44/15/1 49/6/1 48/26/1
f 7/27/1 35/29/1 40/17/1
f 36/28/1 41/20/1 40/17/1
f 37/30/1 42/22/1 41/20/1
f 38/31/1 43/24/1 42/22/1
f 39/13/1 44/15/1 43/24/1
f 30/32/1 35/29/1 7/27/1
f 31/33/1 36/28/1 35/29/1
f 32/34/1 37/30/1 36/28/1
f 33/35/1 38/31/1 37/30/1
f 34/11/1 39/13/1 38/31/1
f 25/36/1 30/32/1 8/3/1
f 26/37/1 31/33/1 30/32/1
f 27/38/1 32/34/1 31/33/1
f 28/39/1 33/35/1 32/34/1
f 29/8/1 34/11/1 33/35/1
f 20/40/1 25/36/1 9/2/1
f 21/42/1 26/37/1 25/36/1
f 22/43/1 27/38/1 26/37/1
f 22/43/1 23/44/1 28/39/1
f 24/9/1 29/8/1 28/39/1
f 45/21/1 19/47/1 2/45/1
f 45/21/1 46/23/1 18/46/1
f 46/23/1 47/25/1 17/48/1
f 47/25/1 48/26/1 16/49/1
f 48/26/1 49/6/1 15/5/1
f 50/50/1 51/52/1 4/41/1
o rear_wall_Cube.003
v 0.000000 0.000000 0.000000
v 0.000000 0.000000 3.000000
v 13.800000 0.000000 0.000000
v 13.800000 0.000000 3.000000
v 2.300000 0.000000 0.000000
v 4.600000 0.000000 0.000000
v 6.900000 0.000000 0.000000
v 9.200001 0.000000 0.000000
v 11.500001 0.000000 0.000000
v 11.500000 0.000000 3.000000
v 9.200000 0.000000 3.000000
v 6.900000 0.000000 3.000000
v 4.600000 0.000000 3.000000
v 2.300000 0.000000 3.000000
vt 0.375000 1.000000
vt 0.625000 0.958333
vt 0.375000 0.958333
vt 0.375000 0.791667
vt 0.625000 0.750000
vt 0.375000 0.750000
vt 0.375000 0.833333
vt 0.625000 0.791667
vt 0.375000 0.875000
vt 0.625000 0.833333
vt 0.375000 0.916667
vt 0.625000 0.875000
vt 0.625000 0.916667
vt 0.625000 1.000000
vn 0.0000 1.0000 0.0000
usemtl None
s off
f 53/53/2 66/54/2 57/55/2
f 61/56/2 56/57/2 55/58/2
f 60/59/2 62/60/2 61/56/2
f 59/61/2 63/62/2 60/59/2
f 58/63/2 64/64/2 59/61/2
f 57/55/2 65/65/2 58/63/2
f 53/53/2 54/66/2 66/54/2
f 61/56/2 62/60/2 56/57/2
f 60/59/2 63/62/2 62/60/2
f 59/61/2 64/64/2 63/62/2
f 58/63/2 65/65/2 64/64/2
f 57/55/2 66/54/2 65/65/2
o chamfer_3_Cube.004
v 13.800000 0.000000 0.000000
v 13.800000 0.000000 3.000000
v 16.128151 2.633333 0.000000
v 16.128151 2.633333 3.000000
vt 0.375000 0.750000
vt 0.625000 0.708333
vt 0.375000 0.708333
vt 0.625000 0.750000
vn -0.7492 0.6624 0.0000
usemtl None
s off
f 67/67/3 70/68/3 69/69/3
f 67/67/3 68/70/3 70/68/3
o flat_2_Cube.005
v 16.128151 2.633333 0.000000
v 16.128151 5.266667 0.000000
v 16.128151 5.266666 3.000000
v 16.128151 2.633333 3.000000
vt 0.375000 0.708333
vt 0.625000 0.666667
vt 0.375000 0.666667
vt 0.625000 0.708333
vn -1.0000 0.0000 0.0000
usemtl None
s off
f 71/71/4 73/72/4 72/73/4
f 71/71/4 74/74/4 73/72/4
o chanfer_2_Cube.006
v 16.128151 5.266667 0.000000
v 13.800000 7.900000 0.000000
v 13.800000 7.900000 3.000000
v 16.128151 5.266666 3.000000
vt 0.375000 0.666667
vt 0.625000 0.625000
vt 0.375000 0.625000
vt 0.625000 0.666667
vn -0.7492 -0.6624 -0.0000
usemtl None
s off
f 75/75/5 77/76/5 76/77/5
f 75/75/5 78/78/5 77/76/5
o hall_wall_Cube.007
v 13.800000 15.800000 0.000000
v 13.800000 15.800000 3.000000
v 13.800000 7.900000 0.000000
v 13.800000 10.533334 0.000000
v 13.800000 13.166667 0.000000
v 13.800000 13.166667 3.000000
v 13.800000 10.533333 3.000000
v 13.800000 7.900000 3.000000
v 13.800000 21.342546 3.000000
v 13.800000 21.342546 0.000000
vt 0.375000 0.541667
vt 0.625000 0.500000
vt 0.375000 0.500000
vt 0.375000 0.583333
vt 0.625000 0.541667
vt 0.375000 0.625000
vt 0.625000 0.583333
vt 0.625000 0.500000
vt 0.625000 0.625000
vt 0.375000 0.500000
vn -1.0000 0.0000 0.0000
usemtl None
s off
f 83/79/6 80/80/6 79/81/6
f 82/82/6 84/83/6 83/79/6
f 81/84/6 85/85/6 82/82/6
f 87/86/6 79/81/6 80/80/6
f 83/79/6 84/83/6 80/80/6
f 82/82/6 85/85/6 84/83/6
f 81/84/6 86/87/6 85/85/6
f 87/86/6 88/88/6 79/81/6
o back_hall_wall_Cube.008
v 11.500001 21.342546 3.000000
v 13.800000 21.342546 3.000000
v 13.800000 21.342546 0.000000
v 11.500000 21.342546 0.000000
v 9.200000 21.342546 0.000000
v 9.200001 21.342546 3.000000
vt 0.375000 0.500000
vt 0.625000 0.458333
vt 0.375000 0.458333
vt 0.625000 0.416667
vt 0.375000 0.416667
vt 0.625000 0.500000
vn 0.0000 -1.0000 0.0000
usemtl None
s off
f 91/89/7 89/90/7 92/91/7
f 92/91/7 94/92/7 93/93/7
f 91/89/7 90/94/7 89/90/7
f 92/91/7 89/90/7 94/92/7
o hall_other_wall_Cube.009
v 9.200000 15.800000 0.000000
v 9.200001 15.800000 3.000000
v 9.200000 21.342546 0.000000
v 9.200001 21.342546 3.000000
vt 0.375000 0.416667
vt 0.625000 0.416667
vt 0.375000 0.416667
vt 0.625000 0.416667
vn 1.0000 0.0000 -0.0000
usemtl None
s off
f 97/95/8 96/96/8 95/97/8
f 97/95/8 98/98/8 96/96/8
o other_wall_Cube.011
v 0.000000 0.000000 0.000000
v 0.000000 0.000000 3.000000
v 0.000000 15.800000 0.000000
v 0.000000 15.800000 3.000000
v 0.000000 13.166667 0.000000
v 0.000000 10.533333 0.000000
v 0.000000 7.900000 0.000000
v 0.000000 5.266666 0.000000
v 0.000000 2.633333 0.000000
v 0.000000 2.633333 3.000000
v 0.000000 5.266667 3.000000
v 0.000000 7.900000 3.000000
v 0.000000 10.533334 3.000000
v 0.000000 13.166667 3.000000
vt 0.375000 0.250000
vt 0.625000 0.208333
vt 0.375000 0.208333
vt 0.375000 0.041667
vt 0.625000 0.000000
vt 0.375000 0.000000
vt 0.375000 0.083333
vt 0.625000 0.041667
vt 0.375000 0.125000
vt 0.625000 0.083333
vt 0.375000 0.166667
vt 0.625000 0.125000
vt 0.625000 0.166667
vt 0.625000 0.250000
vn 1.0000 0.0000 0.0000
usemtl None
s off
f 101/99/9 112/100/9 103/101/9
f 107/102/9 100/103/9 99/104/9
f 106/105/9 108/106/9 107/102/9
f 105/107/9 109/108/9 106/105/9
f 104/109/9 110/110/9 105/107/9
f 103/101/9 111/111/9 104/109/9
f 101/99/9 102/112/9 112/100/9
f 107/102/9 108/106/9 100/103/9
f 106/105/9 109/108/9 108/106/9
f 105/107/9 110/110/9 109/108/9
f 104/109/9 111/111/9 110/110/9
f 103/101/9 112/100/9 111/111/9
o floor_Cube.012
v 0.000000 0.000000 0.000000
v 0.000000 15.800000 0.000000
v 13.800000 0.000000 0.000000
v 13.800000 15.800000 0.000000
v 11.500000 15.800000 0.000000
v 9.200000 15.800000 0.000000
v 6.900000 15.800000 0.000000
v 4.600000 17.738150 0.000000
v 2.300000 17.738150 0.000000
v 2.300000 0.000000 0.000000
v 4.600000 0.000000 0.000000
v 6.900000 0.000000 0.000000
v 9.200001 0.000000 0.000000
v 11.500001 0.000000 0.000000
v 0.000000 13.166667 0.000000
v 0.000000 10.533333 0.000000
v 0.000000 7.900000 0.000000
v 0.000000 5.266666 0.000000
v 0.000000 2.633333 0.000000
v 16.128151 2.633333 0.000000
v 16.128151 5.266667 0.000000
v 13.800000 7.900000 0.000000
v 13.800000 10.533334 0.000000
v 13.800000 13.166667 0.000000
v 2.300000 13.166667 0.000000
v 2.300000 10.533333 0.000000
v 2.300000 7.900000 0.000000
v 2.300000 5.266666 0.000000
v 2.300000 2.633333 0.000000
v 4.600000 13.166667 0.000000
v 4.600000 10.533333 0.000000
v 4.600000 7.900000 0.000000
v 4.600000 5.266666 0.000000
v 4.600000 2.633333 0.000000
v 6.900000 13.166667 0.000000
v 6.900000 10.533333 0.000000
v 6.900000 7.900000 0.000000
v 6.900000 5.266666 0.000000
v 6.900000 2.633333 0.000000
v 9.200000 13.166667 0.000000
v 9.200000 10.533333 0.000000
v 9.200000 7.900000 0.000000
v 9.200000 5.266666 0.000000
v 9.200000 2.633333 0.000000
v 11.500000 13.166667 0.000000
v 11.500000 10.533333 0.000000
v 11.500000 7.900000 0.000000
v 11.500000 5.266666 0.000000
v 11.500001 2.633333 0.000000
v 13.800000 21.342546 0.000000
v 11.500000 21.342546 0.000000
v 9.200000 21.342546 0.000000
vt 0.333333 0.708333
vt 0.375000 0.750000
vt 0.375000 0.708333
vt 0.125000 0.750000
vt 0.166667 0.708333
vt 0.125000 0.708333
vt 0.166667 0.750000
vt 0.208333 0.708333
vt 0.208333 0.750000
vt 0.250000 0.708333
vt 0.250000 0.750000
vt 0.291667 0.708333
vt 0.291667 0.750000
vt 0.375000 0.500000
vt 0.333333 0.500000
vt 0.375000 0.500000
vt 0.291667 0.541667
vt 0.291667 0.500000
vt 0.291667 0.583333
vt 0.333333 0.541667
vt 0.291667 0.625000
vt 0.333333 0.583333
vt 0.291667 0.666667
vt 0.333333 0.625000
vt 0.333333 0.666667
vt 0.250000 0.541667
vt 0.250000 0.500000
vt 0.250000 0.583333
vt 0.250000 0.625000
vt 0.250000 0.666667
vt 0.208333 0.541667
vt 0.208333 0.500000
vt 0.208333 0.583333
vt 0.208333 0.625000
vt 0.208333 0.666667
vt 0.166667 0.541667
vt 0.166667 0.500000
vt 0.166667 0.583333
vt 0.166667 0.625000
vt 0.166667 0.666667
vt 0.125000 0.500000
vt 0.125000 0.583333
vt 0.125000 0.541667
vt 0.125000 0.625000
vt 0.125000 0.666667
vt 0.375000 0.541667
vt 0.375000 0.625000
vt 0.375000 0.583333
vt 0.375000 0.666667
vt 0.333333 0.500000
vt 0.333333 0.750000
vt 0.291667 0.500000
vn 0.0000 0.0000 1.0000
usemtl None
s off
f 161/113/10 115/114/10 132/115/10
f 113/116/10 141/117/10 131/118/10
f 122/119/10 146/120/10 141/117/10
f 123/121/10 151/122/10 146/120/10
f 124/123/10 156/124/10 151/122/10
f 125/125/10 161/113/10 156/124/10
f 162/126/10 117/127/10 116/128/10
f 152/129/10 117/127/10 118/130/10
f 153/131/10 157/132/10 152/129/10
f 154/133/10 158/134/10 153/131/10
f 155/135/10 159/136/10 154/133/10
f 156/124/10 160/137/10 155/135/10
f 147/138/10 118/130/10 119/139/10
f 148/140/10 152/129/10 147/138/10
f 149/141/10 153/131/10 148/140/10
f 150/142/10 154/133/10 149/141/10
f 151/122/10 155/135/10 150/142/10
f 142/143/10 119/139/10 120/144/10
f 143/145/10 147/138/10 142/143/10
f 144/146/10 148/140/10 143/145/10
f 145/147/10 149/141/10 144/146/10
f 146/120/10 150/142/10 145/147/10
f 137/148/10 120/144/10 121/149/10
f 138/150/10 142/143/10 137/148/10
f 139/151/10 143/145/10 138/150/10
f 140/152/10 144/146/10 139/151/10
f 141/117/10 145/147/10 140/152/10
f 114/153/10 137/148/10 121/149/10
f 128/154/10 137/148/10 127/155/10
f 129/156/10 138/150/10 128/154/10
f 130/157/10 139/151/10 129/156/10
f 131/118/10 140/152/10 130/157/10
f 117/127/10 136/158/10 116/128/10
f 158/134/10 136/158/10 157/132/10
f 158/134/10 134/159/10 135/160/10
f 160/137/10 134/159/10 159/136/10
f 161/113/10 133/161/10 160/137/10
f 163/162/10 118/130/10 117/127/10
f 161/113/10 126/163/10 115/114/10
f 113/116/10 122/119/10 141/117/10
f 122/119/10 123/121/10 146/120/10
f 123/121/10 124/123/10 151/122/10
f 124/123/10 125/125/10 156/124/10
f 125/125/10 126/163/10 161/113/10
f 162/126/10 163/162/10 117/127/10
f 152/129/10 157/132/10 117/127/10
f 153/131/10 158/134/10 157/132/10
f 154/133/10 159/136/10 158/134/10
f 155/135/10 160/137/10 159/136/10
f 156/124/10 161/113/10 160/137/10
f 147/138/10 152/129/10 118/130/10
f 148/140/10 153/131/10 152/129/10
f 149/141/10 154/133/10 153/131/10
f 150/142/10 155/135/10 154/133/10
f 151/122/10 156/124/10 155/135/10
f 142/143/10 147/138/10 119/139/10
f 143/145/10 148/140/10 147/138/10
f 144/146/10 149/141/10 148/140/10
f 145/147/10 150/142/10 149/141/10
f 146/120/10 151/122/10 150/142/10
f 137/148/10 142/143/10 120/144/10
f 138/150/10 143/145/10 142/143/10
f 139/151/10 144/146/10 143/145/10
f 140/152/10 145/147/10 144/146/10
f 141/117/10 146/120/10 145/147/10
f 114/153/10 127/155/10 137/148/10
f 128/154/10 138/150/10 137/148/10
f 129/156/10 139/151/10 138/150/10
f 130/157/10 140/152/10 139/151/10
f 131/118/10 141/117/10 140/152/10
f 117/127/10 157/132/10 136/158/10
f 158/134/10 135/160/10 136/158/10
f 158/134/10 159/136/10 134/159/10
f 160/137/10 133/161/10 134/159/10
f 161/113/10 132/115/10 133/161/10
f 163/162/10 164/164/10 118/130/10
o chamfer_4_Cube.013
v 0.000000 15.800000 0.000000
v 0.000000 15.800000 3.000000
v 2.300000 17.738150 0.000000
v 2.300000 17.738150 3.000000
vt 0.375000 0.291667
vt 0.625000 0.250000
vt 0.375000 0.250000
vt 0.625000 0.291667
vn 0.6444 -0.7647 0.0000
usemtl None
s off
f 167/165/11 166/166/11 165/167/11
f 167/165/11 168/168/11 166/166/11
o flawt_1_Cube.014
v 4.600000 17.738150 0.000000
v 2.300000 17.738150 0.000000
v 2.300000 17.738150 3.000000
v 4.600000 17.738150 3.000000
vt 0.375000 0.333333
vt 0.625000 0.291667
vt 0.375000 0.291667
vt 0.625000 0.333333
vn 0.0000 -1.0000 0.0000
usemtl None
s off
f 169/169/12 171/170/12 170/171/12
f 169/169/12 172/172/12 171/170/12
o chamfer1_Cube.015
v 6.900000 15.800000 0.000000
v 4.600000 17.738150 0.000000
v 4.600000 17.738150 3.000000
v 6.900000 15.800000 3.000000
vt 0.375000 0.375000
vt 0.625000 0.333333
vt 0.375000 0.333333
vt 0.625000 0.375000
vn -0.6444 -0.7647 0.0000
usemtl None
s off
f 173/173/13 175/174/13 174/175/13
f 173/173/13 176/176/13 175/174/13
o section_Cube.016
v 9.200000 15.800000 0.000000
v 6.900000 15.800000 0.000000
v 6.900000 15.800000 3.000000
v 9.200001 15.800000 3.000000
vt 0.375000 0.416667
vt 0.625000 0.375000
vt 0.375000 0.375000
vt 0.625000 0.416667
vn 0.0000 -1.0000 -0.0000
usemtl None
s off
f 177/177/14 179/178/14 178/179/14
f 177/177/14 180/180/14 179/178/14
