{
    "asset" : {
        "generator" : "Khronos glTF Blender I/O v0.9.36",
        "version" : "2.0"
    },
    "scene" : 0,
    "scenes" : [
        {
            "name" : "Scene",
            "nodes" : [
                0
            ]
        }
    ],
    "nodes" : [
        {
            "mesh" : 0,
            "name" : "concord"
        }
    ],
    "materials" : [
        {
            "doubleSided" : true,
            "name" : "wood_ceiling",
            "pbrMetallicRoughness" : {
                "baseColorFactor" : [
                    0.8000000715255737,
                    0.6674684882164001,
                    0.4845164716243744,
                    1
                ],
                "metallicFactor" : 0,
                "roughnessFactor" : 0.8333333730697632
            }
        },
        {
            "doubleSided" : true,
            "name" : "gypsum",
            "pbrMetallicRoughness" : {
                "baseColorFactor" : [
                    0.5900489687919617,
                    0.46280544996261597,
                    0.7356585264205933,
                    1
                ],
                "metallicFactor" : 0,
                "roughnessFactor" : 0.5416669845581055
            }
        },
        {
            "doubleSided" : true,
            "name" : "wood_floor",
            "pbrMetallicRoughness" : {
                "baseColorFactor" : [
                    0.8000000715255737,
                    0.6080197691917419,
                    0.38638922572135925,
                    1
                ],
                "metallicFactor" : 0,
                "roughnessFactor" : 0.8083333373069763
            }
        }
    ],
    "meshes" : [
        {
            "name" : "back_Body1.009",
            "primitives" : [
                {
                    "attributes" : {
                        "POSITION" : 0,
                        "NORMAL" : 1
                    },
                    "indices" : 2,
                    "material" : 0
                },
                {
                    "attributes" : {
                        "POSITION" : 3,
                        "NORMAL" : 4
                    },
                    "indices" : 5,
                    "material" : 1
                },
                {
                    "attributes" : {
                        "POSITION" : 6,
                        "NORMAL" : 7
                    },
                    "indices" : 8,
                    "material" : 2
                }
            ]
        }
    ],
    "accessors" : [
        {
            "bufferView" : 0,
            "componentType" : 5126,
            "count" : 8,
            "max" : [
                12.430130004882812,
                5.575300216674805,
                4.876800060272217
            ],
            "min" : [
                0,
                0,
                2.9337000846862793
            ],
            "type" : "VEC3"
        },
        {
            "bufferView" : 1,
            "componentType" : 5126,
            "count" : 8,
            "type" : "VEC3"
        },
        {
            "bufferView" : 2,
            "componentType" : 5123,
            "count" : 12,
            "type" : "SCALAR"
        },
        {
            "bufferView" : 3,
            "componentType" : 5126,
            "count" : 18,
            "max" : [
                12.430130004882812,
                5.575300216674805,
                4.876800060272217
            ],
            "min" : [
                0,
                0,
                0
            ],
            "type" : "VEC3"
        },
        {
            "bufferView" : 4,
            "componentType" : 5126,
            "count" : 18,
            "type" : "VEC3"
        },
        {
            "bufferView" : 5,
            "componentType" : 5123,
            "count" : 30,
            "type" : "SCALAR"
        },
        {
            "bufferView" : 6,
            "componentType" : 5126,
            "count" : 4,
            "max" : [
                12.430130004882812,
                5.575300216674805,
                0
            ],
            "min" : [
                0,
                0,
                0
            ],
            "type" : "VEC3"
        },
        {
            "bufferView" : 7,
            "componentType" : 5126,
            "count" : 4,
            "type" : "VEC3"
        },
        {
            "bufferView" : 8,
            "componentType" : 5123,
            "count" : 6,
            "type" : "SCALAR"
        }
    ],
    "bufferViews" : [
        {
            "buffer" : 0,
            "byteLength" : 96,
            "byteOffset" : 0
        },
        {
            "buffer" : 0,
            "byteLength" : 96,
            "byteOffset" : 96
        },
        {
            "buffer" : 0,
            "byteLength" : 24,
            "byteOffset" : 192
        },
        {
            "buffer" : 0,
            "byteLength" : 216,
            "byteOffset" : 216
        },
        {
            "buffer" : 0,
            "byteLength" : 216,
            "byteOffset" : 432
        },
        {
            "buffer" : 0,
            "byteLength" : 60,
            "byteOffset" : 648
        },
        {
            "buffer" : 0,
            "byteLength" : 48,
            "byteOffset" : 708
        },
        {
            "buffer" : 0,
            "byteLength" : 48,
            "byteOffset" : 756
        },
        {
            "buffer" : 0,
            "byteLength" : 12,
            "byteOffset" : 804
        }
    ],
    "buffers" : [
        {
            "byteLength" : 816,
            "uri" : "data:application/octet-stream;base64,"
        }
    ]
}
