# Blender v2.80 (sub 75) OBJ File: 'concord.blend'
# www.blender.org
mtllib concord_split.mtl
o back_Body1.000
v 0.000000 2.348333 4.876800
v 12.430130 2.348333 4.876800
v 12.430130 0.000000 2.933700
v 0.000000 0.000000 2.933700
vn 0.0000 0.6375 -0.7705
usemtl None
s 1
f 1//1 3//1 4//1
f 1//1 2//1 3//1
o back_Body1.001
v 0.000000 2.348333 4.876800
v 0.000000 5.575300 4.876800
v 12.430130 5.575300 4.876800
v 12.430130 2.348333 4.876800
vn 0.0000 0.0000 -1.0000
usemtl None
s 1
f 7//2 5//2 6//2
f 7//2 8//2 5//2
o back_Body1.002
v 12.430130 5.575300 4.876800
v 12.430130 5.575300 0.000000
v 12.430130 2.348333 4.876800
v 12.430130 0.000000 2.933700
v 12.430130 0.000000 0.000000
vn -1.0000 0.0000 0.0000
usemtl None
s 1
f 9//3 10//3 11//3
f 10//3 12//3 11//3
f 12//3 10//3 13//3
o back_Body1.004
v 12.430130 0.000000 2.933700
v 12.430130 0.000000 0.000000
v 0.000000 0.000000 0.000000
v 0.000000 0.000000 2.933700
vn 0.0000 1.0000 0.0000
usemtl None
s 1
f 14//4 16//4 17//4
f 14//4 15//4 16//4
o back_Body1.005
v 0.000000 2.348333 4.876800
v 0.000000 5.575300 0.000000
v 0.000000 5.575300 4.876800
v 0.000000 0.000000 0.000000
v 0.000000 0.000000 2.933700
vn 1.0000 0.0000 0.0000
usemtl None
s 1
f 18//5 19//5 20//5
f 22//5 19//5 18//5
f 19//5 22//5 21//5
o back_Body1.006
v 0.000000 5.575300 0.000000
v 0.000000 5.575300 4.876800
v 12.430130 5.575300 4.876800
v 12.430130 5.575300 0.000000
vn 0.0000 -1.0000 0.0000
usemtl None
s 1
f 24//6 26//6 25//6
f 24//6 23//6 26//6
o back_Body1.007
v 0.000000 5.575300 0.000000
v 12.430130 5.575300 0.000000
v 12.430130 0.000000 0.000000
v 0.000000 0.000000 0.000000
vn 0.0000 0.0000 1.0000
usemtl None
s 1
f 30//7 28//7 27//7
f 30//7 29//7 28//7
