{
    "asset" : {
        "generator" : "Khronos glTF Blender I/O v0.9.36",
        "version" : "2.0"
    },
    "scene" : 0,
    "scenes" : [
        {
            "name" : "Scene",
            "nodes" : [
                0
            ]
        }
    ],
    "nodes" : [
        {
            "mesh" : 0,
            "name" : "Cylinder",
            "rotation" : [
                -0.3172573447227478,
                -0.37658339738845825,
                0.3422011733055115,
                0.800269365310669
            ]
        }
    ],
    "materials" : [
        {
            "doubleSided" : true,
            "name" : "Material.002",
            "pbrMetallicRoughness" : {}
        },
        {
            "doubleSided" : true,
            "name" : "Material.003",
            "pbrMetallicRoughness" : {}
        },
        {
            "doubleSided" : true,
            "name" : "Material.004",
            "pbrMetallicRoughness" : {}
        }
    ],
    "meshes" : [
        {
            "name" : "Cylinder",
            "primitives" : [
                {
                    "attributes" : {
                        "POSITION" : 0,
                        "NORMAL" : 1,
                        "TEXCOORD_0" : 2
                    },
                    "indices" : 3,
                    "material" : 0
                },
                {
                    "attributes" : {
                        "POSITION" : 4,
                        "NORMAL" : 5,
                        "TEXCOORD_0" : 6
                    },
                    "indices" : 7,
                    "material" : 1
                },
                {
                    "attributes" : {
                        "POSITION" : 8,
                        "NORMAL" : 9,
                        "TEXCOORD_0" : 10
                    },
                    "indices" : 11,
                    "material" : 2
                }
            ]
        }
    ],
    "accessors" : [
        {
            "bufferView" : 0,
            "componentType" : 5126,
            "count" : 640,
            "max" : [
                0.010335000231862068,
                -1.0728836059570312e-05,
                0.010335000231862068
            ],
            "min" : [
                -0.010335000231862068,
                -0.17553415894508362,
                -0.010335000231862068
            ],
            "type" : "VEC3"
        },
        {
            "bufferView" : 1,
            "componentType" : 5126,
            "count" : 640,
            "type" : "VEC3"
        },
        {
            "bufferView" : 2,
            "componentType" : 5126,
            "count" : 640,
            "type" : "VEC2"
        },
        {
            "bufferView" : 3,
            "componentType" : 5123,
            "count" : 960,
            "type" : "SCALAR"
        },
        {
            "bufferView" : 4,
            "componentType" : 5126,
            "count" : 64,
            "max" : [
                0.010335000231862068,
                -1.0758638381958008e-05,
                0.010335000231862068
            ],
            "min" : [
                -0.010335000231862068,
                -0.17553415894508362,
                -0.010335000231862068
            ],
            "type" : "VEC3"
        },
        {
            "bufferView" : 5,
            "componentType" : 5126,
            "count" : 64,
            "type" : "VEC3"
        },
        {
            "bufferView" : 6,
            "componentType" : 5126,
            "count" : 64,
            "type" : "VEC2"
        },
        {
            "bufferView" : 7,
            "componentType" : 5123,
            "count" : 180,
            "type" : "SCALAR"
        },
        {
            "bufferView" : 8,
            "componentType" : 5126,
            "count" : 256,
            "max" : [
                0.010335000231862068,
                -0.007019955664873123,
                0.010335000231862068
            ],
            "min" : [
                -0.010335000231862068,
                -0.09539780020713806,
                -0.010335000231862068
            ],
            "type" : "VEC3"
        },
        {
            "bufferView" : 9,
            "componentType" : 5126,
            "count" : 256,
            "type" : "VEC3"
        },
        {
            "bufferView" : 10,
            "componentType" : 5126,
            "count" : 256,
            "type" : "VEC2"
        },
        {
            "bufferView" : 11,
            "componentType" : 5123,
            "count" : 384,
            "type" : "SCALAR"
        }
    ],
    "bufferViews" : [
        {
            "buffer" : 0,
            "byteLength" : 7680,
            "byteOffset" : 0
        },
        {
            "buffer" : 0,
            "byteLength" : 7680,
            "byteOffset" : 7680
        },
        {
            "buffer" : 0,
            "byteLength" : 5120,
            "byteOffset" : 15360
        },
        {
            "buffer" : 0,
            "byteLength" : 1920,
            "byteOffset" : 20480
        },
        {
            "buffer" : 0,
            "byteLength" : 768,
            "byteOffset" : 22400
        },
        {
            "buffer" : 0,
            "byteLength" : 768,
            "byteOffset" : 23168
        },
        {
            "buffer" : 0,
            "byteLength" : 512,
            "byteOffset" : 23936
        },
        {
            "buffer" : 0,
            "byteLength" : 360,
            "byteOffset" : 24448
        },
        {
            "buffer" : 0,
            "byteLength" : 3072,
            "byteOffset" : 24808
        },
        {
            "buffer" : 0,
            "byteLength" : 3072,
            "byteOffset" : 27880
        },
        {
            "buffer" : 0,
            "byteLength" : 2048,
            "byteOffset" : 30952
        },
        {
            "buffer" : 0,
            "byteLength" : 768,
            "byteOffset" : 33000
        }
    ],
    "buffers" : [
        {
            "byteLength" : 33768,
            "uri" : "data:application/octet-stream;base64,"
        }
    ]
}
