# Blender v2.80 (sub 75) OBJ File: 'rect10x13.blend'
# www.blender.org
mtllib rect10x13.mtl
o Ceiling
v 10.000000 0.000000 2.540000
v 0.000000 13.000000 2.540000
v 10.000000 13.000000 2.540000
v 0.000000 0.000000 2.540000
vt 0.875000 0.750000
vt 0.625000 0.500000
vt 0.625000 0.750000
vt 0.875000 0.500000
vn 0.0000 0.0000 -1.0000
usemtl None
s 1
f 4/1/1 3/2/1 1/3/1
f 4/1/1 2/4/1 3/2/1
o Front
v 0.000000 0.000000 0.000000
v 10.000000 0.000000 2.540000
v 10.000000 0.000000 0.000000
v 0.000000 0.000000 2.540000
vt 0.625000 1.000000
vt 0.375000 0.750000
vt 0.375000 1.000000
vt 0.625000 0.750000
vn 0.0000 1.0000 0.0000
usemtl None
s 1
f 8/5/2 7/6/2 5/7/2
f 8/5/2 6/8/2 7/6/2
o Right
v 10.000000 0.000000 0.000000
v 10.000000 13.000000 2.540000
v 10.000000 13.000000 0.000000
v 10.000000 0.000000 2.540000
vt 0.625000 0.750000
vt 0.375000 0.500000
vt 0.375000 0.750000
vt 0.625000 0.500000
vn -1.0000 0.0000 0.0000
usemtl None
s 1
f 12/9/3 11/10/3 9/11/3
f 12/9/3 10/12/3 11/10/3
o Back
v 10.000000 13.000000 0.000000
v 0.000000 13.000000 2.540000
v 0.000000 13.000000 0.000000
v 10.000000 13.000000 2.540000
vt 0.625000 0.500000
vt 0.375000 0.250000
vt 0.375000 0.500000
vt 0.625000 0.250000
vn 0.0000 -1.0000 0.0000
usemtl None
s 1
f 16/13/4 15/14/4 13/15/4
f 16/13/4 14/16/4 15/14/4
o Left
v 0.000000 13.000000 0.000000
v 0.000000 0.000000 2.540000
v 0.000000 0.000000 0.000000
v 0.000000 13.000000 2.540000
vt 0.625000 0.250000
vt 0.375000 0.000000
vt 0.375000 0.250000
vt 0.625000 0.000000
vn 1.0000 0.0000 0.0000
usemtl None
s 1
f 20/17/5 19/18/5 17/19/5
f 20/17/5 18/20/5 19/18/5
o Floor
v 0.000000 0.000000 0.000000
v 10.000000 13.000000 0.000000
v 0.000000 13.000000 0.000000
v 10.000000 0.000000 0.000000
vt 0.375000 0.750000
vt 0.125000 0.500000
vt 0.125000 0.750000
vt 0.375000 0.500000
vn 0.0000 0.0000 1.0000
usemtl None
s 1
f 24/21/6 23/22/6 21/23/6
f 24/21/6 22/24/6 23/22/6
