{
    "asset" : {
        "generator" : "Khronos glTF Blender I/O v0.9.36",
        "version" : "2.0"
    },
    "scene" : 0,
    "scenes" : [
        {
            "name" : "Scene",
            "nodes" : [
                0
            ]
        }
    ],
    "nodes" : [
        {
            "mesh" : 0,
            "name" : "Speaker"
        }
    ],
    "materials" : [
        {
            "doubleSided" : true,
            "name" : "Material.001",
            "pbrMetallicRoughness" : {
                "baseColorFactor" : [
                    0.021063532456755638,
                    0.021063532456755638,
                    0.021063532456755638,
                    1
                ],
                "metallicFactor" : 0.1,
                "roughnessFactor" : 0.2
            }
        },
        {
            "doubleSided" : true,
            "name" : "Material.002",
            "pbrMetallicRoughness" : {
                "baseColorFactor" : [
                    0.0,
                    0.0,
                    0.0,
                    1
                ],
                "metallicFactor" : 0.04999998211860657,
                "roughnessFactor" : 0.6583333134651184
            }
        },
        {
            "doubleSided" : true,
            "name" : "Material.003",
            "pbrMetallicRoughness" : {
                "baseColorFactor" : [
                    0.02197938784956932,
                    0.02197938784956932,
                    0.02197938784956932,
                    1
                ],
                "metallicFactor" : 0.008333333767950535,
                "roughnessFactor" : 0.8500000238418579
            }
        },
        {
            "doubleSided" : true,
            "name" : "Material.004",
            "pbrMetallicRoughness" : {
                "baseColorFactor" : [
                    0.0010314880637452006,
                    0.0010314880637452006,
                    0.0010314880637452006,
                    1
                ],
                "metallicFactor" : 0,
                "roughnessFactor" : 0.8999999761581421
            }
        },
        {
            "doubleSided" : true,
            "name" : "Material.005",
            "pbrMetallicRoughness" : {
                "baseColorFactor" : [
                    0,
                    0,
                    0,
                    1
                ],
                "metallicFactor" : 0.5416666865348816,
                "roughnessFactor" : 0.6083333492279053
            }
        },
        {
            "doubleSided" : true,
            "name" : "Material.006",
            "pbrMetallicRoughness" : {
                "baseColorFactor" : [
                    0.10370117425918579,
                    0.1043718233704567,
                    0.1149207204580307,
                    1
                ],
                "metallicFactor" : 0.9166666865348816,
                "roughnessFactor" : 0.75
            }
        },
        {
            "doubleSided" : true,
            "name" : "Material.007",
            "pbrMetallicRoughness" : {
                "baseColorFactor" : [
                    0,
                    0.0657143759727478,
                    0.004472270607948303,
                    1
                ],
                "metallicFactor" : 0.2916666746139526,
                "roughnessFactor" : 0.0
            }
        }
    ],
    "meshes" : [
        {
            "name" : "Speaker",
            "primitives" : [
                {
                    "attributes" : {
                        "POSITION" : 0,
                        "NORMAL" : 1
                    },
                    "indices" : 2,
                    "material" : 0
                },
                {
                    "attributes" : {
                        "POSITION" : 3,
                        "NORMAL" : 4
                    },
                    "indices" : 5,
                    "material" : 1
                },
                {
                    "attributes" : {
                        "POSITION" : 6,
                        "NORMAL" : 7
                    },
                    "indices" : 8,
                    "material" : 2
                },
                {
                    "attributes" : {
                        "POSITION" : 9,
                        "NORMAL" : 10
                    },
                    "indices" : 11,
                    "material" : 3
                },
                {
                    "attributes" : {
                        "POSITION" : 12,
                        "NORMAL" : 13
                    },
                    "indices" : 14,
                    "material" : 4
                },
                {
                    "attributes" : {
                        "POSITION" : 15,
                        "NORMAL" : 16
                    },
                    "indices" : 17,
                    "material" : 5
                },
                {
                    "attributes" : {
                        "POSITION" : 18,
                        "NORMAL" : 19
                    },
                    "indices" : 20,
                    "material" : 6
                }
            ]
        }
    ],
    "accessors" : [
        {
            "bufferView" : 0,
            "componentType" : 5126,
            "count" : 153,
            "max" : [
                0.03830600157380104,
                0.05254079028964043,
                0.03811712935566902
            ],
            "min" : [
                -0.03830600157380104,
                0.052443988621234894,
                -0.03811712935566902
            ],
            "type" : "VEC3"
        },
        {
            "bufferView" : 1,
            "componentType" : 5126,
            "count" : 153,
            "type" : "VEC3"
        },
        {
            "bufferView" : 2,
            "componentType" : 5123,
            "count" : 153,
            "type" : "SCALAR"
        },
        {
            "bufferView" : 3,
            "componentType" : 5126,
            "count" : 435,
            "max" : [
                0.037949338555336,
                0.06494399160146713,
                0.03811712935566902
            ],
            "min" : [
                -0.038173120468854904,
                0.05254079028964043,
                -0.03811712935566902
            ],
            "type" : "VEC3"
        },
        {
            "bufferView" : 4,
            "componentType" : 5126,
            "count" : 435,
            "type" : "VEC3"
        },
        {
            "bufferView" : 5,
            "componentType" : 5123,
            "count" : 435,
            "type" : "SCALAR"
        },
        {
            "bufferView" : 6,
            "componentType" : 5126,
            "count" : 177,
            "max" : [
                0.10985010117292404,
                0.09375,
                0.10975109785795212
            ],
            "min" : [
                -0.10945440083742142,
                0.052443988621234894,
                -0.10975109785795212
            ],
            "type" : "VEC3"
        },
        {
            "bufferView" : 7,
            "componentType" : 5126,
            "count" : 177,
            "type" : "VEC3"
        },
        {
            "bufferView" : 8,
            "componentType" : 5123,
            "count" : 177,
            "type" : "SCALAR"
        },
        {
            "bufferView" : 9,
            "componentType" : 5126,
            "count" : 1431,
            "max" : [
                0.125,
                0.09917569160461426,
                0.125
            ],
            "min" : [
                -0.125,
                0.09375,
                -0.125
            ],
            "type" : "VEC3"
        },
        {
            "bufferView" : 10,
            "componentType" : 5126,
            "count" : 1431,
            "type" : "VEC3"
        },
        {
            "bufferView" : 11,
            "componentType" : 5123,
            "count" : 1431,
            "type" : "SCALAR"
        },
        {
            "bufferView" : 12,
            "componentType" : 5126,
            "count" : 378,
            "max" : [
                0.14374999701976776,
                0.09375,
                0.14365409314632416
            ],
            "min" : [
                -0.1433665007352829,
                0.08749999850988388,
                -0.14365409314632416
            ],
            "type" : "VEC3"
        },
        {
            "bufferView" : 13,
            "componentType" : 5126,
            "count" : 378,
            "type" : "VEC3"
        },
        {
            "bufferView" : 14,
            "componentType" : 5123,
            "count" : 759,
            "type" : "SCALAR"
        },
        {
            "bufferView" : 15,
            "componentType" : 5126,
            "count" : 1258,
            "max" : [
                0.13124999403953552,
                0.08749999850988388,
                0.13115370273590088
            ],
            "min" : [
                -0.13086490333080292,
                0,
                -0.13115370273590088
            ],
            "type" : "VEC3"
        },
        {
            "bufferView" : 16,
            "componentType" : 5126,
            "count" : 1258,
            "type" : "VEC3"
        },
        {
            "bufferView" : 17,
            "componentType" : 5123,
            "count" : 1653,
            "type" : "SCALAR"
        },
        {
            "bufferView" : 18,
            "componentType" : 5126,
            "count" : 148,
            "max" : [
                0.10625000298023224,
                0.02500000037252903,
                0.10615430027246475
            ],
            "min" : [
                -0.10586719959974289,
                0.012500000186264515,
                -0.10615430027246475
            ],
            "type" : "VEC3"
        },
        {
            "bufferView" : 19,
            "componentType" : 5126,
            "count" : 148,
            "type" : "VEC3"
        },
        {
            "bufferView" : 20,
            "componentType" : 5123,
            "count" : 222,
            "type" : "SCALAR"
        }
    ],
    "bufferViews" : [
        {
            "buffer" : 0,
            "byteLength" : 1836,
            "byteOffset" : 0
        },
        {
            "buffer" : 0,
            "byteLength" : 1836,
            "byteOffset" : 1836
        },
        {
            "buffer" : 0,
            "byteLength" : 306,
            "byteOffset" : 3672
        },
        {
            "buffer" : 0,
            "byteLength" : 5220,
            "byteOffset" : 3980
        },
        {
            "buffer" : 0,
            "byteLength" : 5220,
            "byteOffset" : 9200
        },
        {
            "buffer" : 0,
            "byteLength" : 870,
            "byteOffset" : 14420
        },
        {
            "buffer" : 0,
            "byteLength" : 2124,
            "byteOffset" : 15292
        },
        {
            "buffer" : 0,
            "byteLength" : 2124,
            "byteOffset" : 17416
        },
        {
            "buffer" : 0,
            "byteLength" : 354,
            "byteOffset" : 19540
        },
        {
            "buffer" : 0,
            "byteLength" : 17172,
            "byteOffset" : 19896
        },
        {
            "buffer" : 0,
            "byteLength" : 17172,
            "byteOffset" : 37068
        },
        {
            "buffer" : 0,
            "byteLength" : 2862,
            "byteOffset" : 54240
        },
        {
            "buffer" : 0,
            "byteLength" : 4536,
            "byteOffset" : 57104
        },
        {
            "buffer" : 0,
            "byteLength" : 4536,
            "byteOffset" : 61640
        },
        {
            "buffer" : 0,
            "byteLength" : 1518,
            "byteOffset" : 66176
        },
        {
            "buffer" : 0,
            "byteLength" : 15096,
            "byteOffset" : 67696
        },
        {
            "buffer" : 0,
            "byteLength" : 15096,
            "byteOffset" : 82792
        },
        {
            "buffer" : 0,
            "byteLength" : 3306,
            "byteOffset" : 97888
        },
        {
            "buffer" : 0,
            "byteLength" : 1776,
            "byteOffset" : 101196
        },
        {
            "buffer" : 0,
            "byteLength" : 1776,
            "byteOffset" : 102972
        },
        {
            "buffer" : 0,
            "byteLength" : 444,
            "byteOffset" : 104748
        }
    ],
    "buffers" : [
        {
            "byteLength" : 105192,
            "uri" : "data:application/octet-stream;base64,"
        }
    ]
}
