# Blender v2.80 (sub 75) OBJ File: 'sunroom.blend'
# www.blender.org
mtllib sunroom.mtl
o door_left_Cube.000
v 1.773092 -0.000000 2.028620
v 1.773092 -0.000000 0.032915
v 0.855314 -0.000000 0.032915
v 0.855314 -0.000000 2.028620
vt 0.000000 0.000000
vt 0.000000 0.000000
vt 0.000000 0.000000
vt 0.000000 0.000000
vn 0.0000 -1.0000 -0.0000
usemtl None
s off
f 4/1/1 2/2/1 1/3/1
f 4/1/1 3/4/1 2/2/1
o door_right_Cube.001
v 7.207154 -0.000000 0.032915
v 7.207154 -0.000000 2.028620
v 6.289376 -0.000000 0.032915
v 6.289376 -0.000000 2.028620
vt 0.000000 0.000000
vt 0.000000 0.000000
vt 0.000000 0.000000
vt 0.000000 0.000000
vn 0.0000 -1.0000 -0.0000
usemtl None
s off
f 5/5/2 8/6/2 7/7/2
f 5/5/2 6/8/2 8/6/2
o ceil_right_Cube.023
v 8.100000 0.000000 2.540000
v 4.050000 0.000000 4.268664
v 8.100000 4.140000 2.540000
v 4.050000 4.140000 4.268664
vt 0.750000 0.750000
vt 0.625000 0.750000
vt 0.625000 0.750000
vt 0.750000 0.750000
vn -0.3926 0.0000 -0.9197
usemtl None
s off
f 10/9/3 11/10/3 9/11/3
f 10/9/3 12/12/3 11/10/3
o ceil_left_Cube.024
v 4.050000 0.000000 4.268664
v 0.000000 0.000000 2.540000
v 4.050000 4.140000 4.268664
v 0.000000 4.140000 2.540000
vt 0.875000 0.750000
vt 0.750000 0.750000
vt 0.750000 0.750000
vt 0.875000 0.750000
vn 0.3926 0.0000 -0.9197
usemtl None
s off
f 14/13/4 15/14/4 13/15/4
f 14/13/4 16/16/4 15/14/4
o wall_right_Cube.025
v 8.100000 0.000000 0.000000
v 8.100000 0.000000 2.540000
v 8.100000 4.140000 0.000000
v 8.100000 4.140000 2.540000
vt 0.625000 0.750000
vt 0.375000 0.750000
vt 0.375000 0.750000
vt 0.625000 0.750000
vn -1.0000 0.0000 0.0000
usemtl None
s off
f 18/17/5 19/18/5 17/19/5
f 18/17/5 20/20/5 19/18/5
o wall_left_Cube.026
v 0.000000 0.000000 0.000000
v 0.000000 0.000000 2.540000
v 0.000000 4.140000 0.000000
v 0.000000 4.140000 2.540000
vt 0.375000 1.000000
vt 0.875000 0.750000
vt 0.875000 0.750000
vt 0.375000 1.000000
vn 1.0000 0.0000 0.0000
usemtl None
s off
f 21/21/6 24/22/6 22/23/6
f 21/21/6 23/24/6 24/22/6
o wall_windows_Cube.027
v 4.050000 4.140000 0.000000
v 8.100000 4.140000 0.000000
v 8.100000 4.140000 2.540000
v 4.050000 4.140000 4.268664
v 0.000000 4.140000 0.000000
v 0.000000 4.140000 2.540000
vt 0.750000 0.750000
vt 0.875000 0.750000
vt 0.250000 0.750000
vt 0.375000 1.000000
vt 0.375000 0.750000
vt 0.625000 0.750000
vn 0.0000 -1.0000 0.0000
usemtl None
s off
f 28/25/7 30/26/7 25/27/7
f 30/26/7 29/28/7 25/27/7
f 25/27/7 26/29/7 27/30/7
f 27/30/7 28/25/7 25/27/7
o floor_Cube.028
v 4.050000 0.000000 0.000000
v 8.100000 0.000000 0.000000
v 0.000000 0.000000 0.000000
v 4.050000 4.140000 0.000000
v 8.100000 4.140000 0.000000
v 0.000000 4.140000 0.000000
vt 0.375000 0.750000
vt 0.250000 0.750000
vt 0.250000 0.750000
vt 0.375000 1.000000
vt 0.375000 1.000000
vt 0.375000 0.750000
vn 0.0000 0.0000 1.0000
usemtl None
s off
f 32/31/8 34/32/8 31/33/8
f 31/33/8 36/34/8 33/35/8
f 32/31/8 35/36/8 34/32/8
f 31/33/8 34/32/8 36/34/8
o wall_doors_Cube.029
v 0.000000 0.000000 0.000000
v 0.000000 0.000000 2.540000
v 8.100000 0.000000 2.540000
v 8.100000 0.000000 0.000000
v 4.050000 0.000000 0.000000
v 4.050000 0.000000 4.268664
v 1.773092 -0.000000 2.028620
v 1.773092 -0.000000 0.032915
v 0.855314 -0.000000 0.032915
v 0.855314 -0.000000 2.028620
v 7.207154 -0.000000 0.032915
v 7.207154 -0.000000 2.028620
v 6.289376 -0.000000 0.032915
v 6.289376 -0.000000 2.028620
vt 0.000000 1.000000
vt 0.875000 0.750000
vt 0.750000 0.750000
vt 1.000000 1.000000
vt 0.375000 1.000000
vt 0.000000 0.000000
vt 0.250000 0.750000
vt 1.000000 1.000000
vt 0.625000 0.750000
vt 0.375000 0.750000
vt 0.000000 1.000000
vt 1.000000 0.000000
vt 0.000000 0.000000
vt 1.000000 0.000000
vn 0.0000 1.0000 -0.0000
usemtl None
s off
f 43/37/9 38/38/9 42/39/9
f 46/40/9 37/41/9 38/38/9
f 37/41/9 44/42/9 41/43/9
f 50/44/9 41/43/9 43/37/9
f 39/45/9 50/44/9 42/39/9
f 40/46/9 48/47/9 39/45/9
f 40/46/9 49/48/9 47/49/9
f 43/37/9 46/40/9 38/38/9
f 46/40/9 45/50/9 37/41/9
f 37/41/9 45/50/9 44/42/9
f 43/37/9 42/39/9 50/44/9
f 50/44/9 49/48/9 41/43/9
f 41/43/9 44/42/9 43/37/9
f 39/45/9 48/47/9 50/44/9
f 40/46/9 47/49/9 48/47/9
f 40/46/9 41/43/9 49/48/9
