# Blender v2.80 (sub 75) OBJ File: 'testthing.blend'
# www.blender.org
mtllib testthing.mtl
o Cube.001_Cube.002
v 0.511582 -4.514263 8.068190
v 0.511582 19.514263 8.068190
v 18.387676 -4.514263 8.068190
v 18.387676 19.514263 8.068190
vt 0.776756 0.750000
vt 0.875000 0.500000
vt 0.776756 0.500000
vt 0.875000 0.750000
vn 0.0000 0.0000 -1.0000
usemtl None
s off
f 3/1/1 2/2/1 4/3/1
f 3/1/1 1/4/1 2/2/1
o Cube.002_Cube.003
v 26.247158 17.990746 5.902935
v 26.247158 -2.990745 5.902935
v 18.387676 -4.514263 8.068190
v 18.387676 19.514263 8.068190
vt 0.678513 0.750000
vt 0.776756 0.500000
vt 0.678513 0.500000
vt 0.776756 0.750000
vn -0.2656 0.0000 -0.9641
usemtl None
s off
f 6/5/2 8/6/2 5/7/2
f 6/5/2 7/8/2 8/6/2
o Cube.003_Cube.004
v 26.899284 0.100000 5.233099
v 26.899284 14.900000 5.233099
v 26.247158 17.990746 5.902935
v 26.247158 -2.990745 5.902935
vt 0.625000 0.750000
vt 0.678513 0.500000
vt 0.625000 0.500000
vt 0.678513 0.750000
vn -0.7165 0.0000 -0.6976
usemtl None
s off
f 9/9/3 11/10/3 10/11/3
f 9/9/3 12/12/3 11/10/3
o Cube.004_Cube.005
v 26.899284 0.100000 5.233099
v 26.899284 14.900000 5.233099
v 30.235020 14.900000 5.233099
v 30.235020 0.100000 5.233099
vt 0.625000 0.500000
vt 0.625000 0.750000
vt 0.625000 0.500000
vt 0.625000 0.750000
vn 0.0000 0.0000 -1.0000
usemtl None
s off
f 15/13/4 13/14/4 14/15/4
f 15/13/4 16/16/4 13/14/4
o Cube.005_Cube.006
v 30.235020 14.900000 5.233099
v 30.235020 14.900000 1.551984
v 30.235020 0.100000 1.551984
v 30.235020 0.100000 5.233099
vt 0.375000 0.750000
vt 0.625000 0.500000
vt 0.375000 0.500000
vt 0.625000 0.750000
vn -1.0000 0.0000 0.0000
usemtl None
s off
f 19/17/5 17/18/5 18/19/5
f 19/17/5 20/20/5 17/18/5
o Cube.006_Cube.007
v 26.899284 14.900000 1.551984
v 26.899284 14.900000 5.233099
v 30.235020 14.900000 5.233099
v 30.235020 14.900000 1.551984
vt 0.375000 0.500000
vt 0.625000 0.500000
vt 0.375000 0.500000
vt 0.625000 0.500000
vn 0.0000 -1.0000 0.0000
usemtl None
s off
f 24/21/6 22/22/6 21/23/6
f 24/21/6 23/24/6 22/22/6
o Cube.007_Cube.008
v 26.899284 14.900000 1.551984
v 26.899284 14.900000 5.233099
v 26.247158 17.990746 0.500000
v 26.247158 17.990746 5.902935
vt 0.375000 0.500000
vt 0.625000 0.446487
vt 0.375000 0.446487
vt 0.625000 0.500000
vn -0.9785 -0.2064 0.0000
usemtl None
s off
f 25/25/7 28/26/7 27/27/7
f 25/25/7 26/28/7 28/26/7
o Cube.008_Cube.009
v 26.247158 17.990746 0.500000
v 26.247158 17.990746 5.902935
v 18.387676 19.514263 0.500000
v 18.387676 19.514263 8.068190
vt 0.375000 0.348244
vt 0.625000 0.446487
vt 0.625000 0.348244
vt 0.375000 0.446487
vn -0.1903 -0.9817 0.0000
usemtl None
s off
f 31/29/8 30/30/8 32/31/8
f 31/29/8 29/32/8 30/30/8
o Cube.009_Cube.010
v 0.511582 19.514263 0.500000
v 0.511582 19.514263 8.068190
v 18.387676 19.514263 0.500000
v 18.387676 19.514263 8.068190
vt 0.375000 0.348244
vt 0.625000 0.250000
vt 0.375000 0.250000
vt 0.625000 0.348244
vn 0.0000 -1.0000 0.0000
usemtl None
s off
f 35/33/9 34/34/9 33/35/9
f 35/33/9 36/36/9 34/34/9
o Cube.010_Cube.011
v 0.511582 -4.514263 0.500000
v 0.511582 -4.514263 8.068190
v 0.511582 19.514263 0.500000
v 0.511582 19.514263 8.068190
vt 0.375000 0.250000
vt 0.625000 0.000000
vt 0.375000 0.000000
vt 0.625000 0.250000
vn 1.0000 0.0000 0.0000
usemtl None
s off
f 39/37/10 38/38/10 37/39/10
f 39/37/10 40/40/10 38/38/10
o Cube.011_Cube.012
v 0.511582 -4.514263 0.500000
v 0.511582 -4.514263 8.068190
v 18.387676 -4.514263 8.068190
v 18.387676 -4.514263 0.500000
vt 0.375000 1.000000
vt 0.625000 0.901756
vt 0.375000 0.901756
vt 0.625000 1.000000
vn 0.0000 1.0000 0.0000
usemtl None
s off
f 41/41/11 43/42/11 44/43/11
f 41/41/11 42/44/11 43/42/11
o Cube.012_Cube.013
v 26.247158 -2.990745 0.500000
v 26.247158 -2.990745 5.902935
v 18.387676 -4.514263 8.068190
v 18.387676 -4.514263 0.500000
vt 0.375000 0.901756
vt 0.625000 0.803513
vt 0.375000 0.803513
vt 0.625000 0.901756
vn -0.1903 0.9817 0.0000
usemtl None
s off
f 48/45/12 46/46/12 45/47/12
f 48/45/12 47/48/12 46/46/12
o Cube.013_Cube.014
v 26.899284 0.100000 1.551984
v 26.899284 0.100000 5.233099
v 26.247158 -2.990745 0.500000
v 26.247158 -2.990745 5.902935
vt 0.375000 0.750000
vt 0.625000 0.803513
vt 0.625000 0.750000
vt 0.375000 0.803513
vn -0.9785 0.2064 0.0000
usemtl None
s off
f 49/49/13 52/50/13 50/51/13
f 49/49/13 51/52/13 52/50/13
o Cube.014_Cube.015
v 26.899284 0.100000 1.551984
v 26.899284 0.100000 5.233099
v 30.235020 0.100000 1.551984
v 30.235020 0.100000 5.233099
vt 0.625000 0.750000
vt 0.375000 0.750000
vt 0.625000 0.750000
vt 0.375000 0.750000
vn 0.0000 1.0000 0.0000
usemtl None
s off
f 56/53/14 53/54/14 54/55/14
f 56/53/14 55/56/14 53/54/14
o Cube.015_Cube.016
v 26.899284 0.100000 1.551984
v 26.899284 14.900000 1.551984
v 30.235020 14.900000 1.551984
v 30.235020 0.100000 1.551984
vt 0.375000 0.750000
vt 0.375000 0.500000
vt 0.375000 0.750000
vt 0.375000 0.500000
vn 0.0000 0.0000 1.0000
usemtl None
s off
f 60/57/15 58/58/15 57/59/15
f 60/57/15 59/60/15 58/58/15
o Cube.016_Cube.017
v 26.899284 0.100000 1.551984
v 26.899284 14.900000 1.551984
v 26.247158 17.990746 0.500000
v 26.247158 -2.990745 0.500000
vt 0.321487 0.750000
vt 0.375000 0.500000
vt 0.321487 0.500000
vt 0.375000 0.750000
vn -0.8499 0.0000 0.5269
usemtl None
s off
f 64/61/16 62/62/16 63/63/16
f 64/61/16 61/64/16 62/62/16
o Cube.017_Cube.018
v 26.247158 17.990746 0.500000
v 26.247158 -2.990745 0.500000
v 18.387676 19.514263 0.500000
v 18.387676 -4.514263 0.500000
vt 0.223244 0.750000
vt 0.321487 0.500000
vt 0.223244 0.500000
vt 0.321487 0.750000
vn 0.0000 0.0000 1.0000
usemtl None
s off
f 68/65/17 65/66/17 67/67/17
f 68/65/17 66/68/17 65/66/17
o Cube.018_Cube.019
v 0.511582 -4.514263 0.500000
v 0.511582 19.514263 0.500000
v 18.387676 19.514263 0.500000
v 18.387676 -4.514263 0.500000
vt 0.125000 0.750000
vt 0.223244 0.500000
vt 0.125000 0.500000
vt 0.223244 0.750000
vn 0.0000 0.0000 1.0000
usemtl None
s off
f 69/69/18 71/70/18 70/71/18
f 69/69/18 72/72/18 71/70/18
