# Blender v2.80 (sub 75) OBJ File: 'tube.blend'
# www.blender.org
mtllib tube.mtl
o Cube.001_Cube.002
v 0.000000 0.000000 0.000000
v 0.000000 0.000000 9.000000
v 0.000000 9.000000 0.000000
v 0.000000 9.000000 9.000000
v 100.000000 9.000000 0.000000
v 100.000000 0.000000 0.000000
v 100.000000 0.000000 9.000000
v 100.000000 9.000000 9.000000
vt 0.375000 0.250000
vt 0.625000 0.000000
vt 0.375000 0.000000
vt 0.625000 0.000000
vt 0.375000 0.250000
vt 0.375000 0.000000
vt 0.625000 0.250000
vt 0.625000 0.250000
vn 1.0000 0.0000 0.0000
vn -1.0000 0.0000 0.0000
vn 0.0000 -1.0000 0.0000
vn 0.0000 1.0000 0.0000
vn 0.0000 0.0000 -1.0000
vn 0.0000 0.0000 1.0000
usemtl None
s off
f 3/1/1 2/2/1 1/3/1
f 7/4/2 5/5/2 6/6/2
f 3/1/3 8/7/3 4/8/3
f 2/2/4 6/6/4 1/3/4
f 4/8/5 7/4/5 2/2/5
f 1/3/6 5/5/6 3/1/6
f 3/1/1 4/8/1 2/2/1
f 7/4/2 8/7/2 5/5/2
f 3/1/3 5/5/3 8/7/3
f 2/2/4 7/4/4 6/6/4
f 4/8/5 8/7/5 7/4/5
f 1/3/6 6/6/6 5/5/6
