<svg width="128" height="128" viewBox="0 0 128 128" fill="none" xmlns="http://www.w3.org/2000/svg">
  <g clip-path="url(#clip0)">
    <path
      d="M64 128C99.3462 128 128 99.3462 128 64C128 28.6538 99.3462 0 64 0C28.6538 0 0 28.6538 0 64C0 99.3462 28.6538 128 64 128Z"
      fill="url(#paint0_radial)" />
    <path
      d="M64 124.658C97.5004 124.658 124.658 97.5004 124.658 64C124.658 30.4996 97.5004 3.3421 64 3.3421C30.4996 3.3421 3.3421 30.4996 3.3421 64C3.3421 97.5004 30.4996 124.658 64 124.658Z"
      stroke="#B9BFC5" stroke-width="7" />
    <path
      d="M69.1249 17.6375C67.9124 17.8125 65.6499 18.7375 64.0249 19.725C62.9999 20.35 61.0874 22.1 60.3499 23.0875C58.8749 25.0875 58.1624 27 57.8624 29.8125C57.3999 34.2 59.0249 40.4 62.9124 49.0625C63.5249 50.4375 64.2124 51.925 64.4374 52.375C65.1374 53.775 65.1874 53.65 63.7249 54.1875C58.7374 56.0375 54.2374 58.55 51.1874 61.1625C43.7499 67.575 39.0874 75.6375 37.8124 84.3625C36.9874 89.975 37.5749 94.9125 39.5624 99.075C42.4124 105.013 47.8249 109.05 54.4999 110.213C55.9999 110.475 60.2749 110.513 61.5624 110.275C67.3124 109.213 72.9999 104.6 77.1749 97.625C80.8124 91.5625 83.0999 84.5125 83.7999 77.175C84.2749 72.3375 84.1624 68.575 83.4249 64.6875C82.7874 61.3125 80.8874 57.375 77.8124 53.05C77.2749 52.3125 75.8874 50.4875 74.7124 49.0125C71.6874 45.1875 71.5499 45.0125 70.0999 43C67.0124 38.725 64.9874 35.4375 63.9749 33.05C63.1624 31.1625 62.9499 30.2875 62.9374 28.925C62.9374 27.8875 62.9749 27.7375 63.3749 26.925C64.2374 25.225 65.8874 23.9625 67.7999 23.55C68.8749 23.3125 70.6874 23.325 71.5124 23.575C72.9999 24.025 74.8499 25.1875 77.7499 27.5125C79.9749 29.3 80.7874 29.85 81.9624 30.4125C82.7124 30.7625 82.9624 30.8125 84.0624 30.85C85.4749 30.9 86.4749 30.65 87.4999 30C88.6874 29.2375 89.7749 27.7875 90.1874 26.4C90.8374 24.25 90.3624 22.3375 88.9249 21.4C88.1124 20.8625 87.4874 20.675 82.6124 19.575C74.0874 17.6625 71.4749 17.2875 69.1249 17.6375ZM69.7374 63.4375C71.3624 67.125 72.4874 71.225 73.0124 75.4375C73.2499 77.2375 73.2124 82.0625 72.9624 84.0625C72.3874 88.6125 71.0874 93.025 69.1249 97.0625C66.7749 101.875 63.8749 104.85 60.8374 105.55C59.7624 105.8 57.6374 105.813 56.3124 105.575C50.4749 104.525 47.1249 99.725 47.1249 92.4375C47.1249 88.75 48.2249 83.225 50.1749 77.05C52.5249 69.6375 56.1499 64.2625 60.9999 61.0375C62.5124 60.0375 63.3249 59.6125 65.3124 58.8L67.1874 58.025L67.9624 59.6125C68.3874 60.475 69.1874 62.2 69.7374 63.4375Z"
      fill="#B9BFC5" />
  </g>
  <defs>
    <radialGradient id="paint0_radial" cx="0" cy="0" r="1" gradientUnits="userSpaceOnUse"
      gradientTransform="translate(64 64) rotate(90) scale(64)">
      <stop offset="0.536458" stop-color="#FEFEFE" />
      <stop offset="1" stop-color="#F9FAFA" />
    </radialGradient>
    <clipPath id="clip0">
      <rect width="128" height="128" fill="white" />
    </clipPath>
  </defs>
</svg>