<svg height="512pt" viewBox="0 -15 512 511" width="512pt" xmlns="http://www.w3.org/2000/svg"><path d="m510.601562 278.949219-48.300781 59.5-77.800781 13.800781-182.101562 72.601562 55.203124-145.902343c.898438-1.5 2.199219-2.800781 3.699219-3.800781l44-57.199219 73.199219-10.898438c3.199219-1.800781 7.101562-1.800781 10.199219 0l118.300781 68.300781c1.601562.796876 2.800781 2.097657 3.601562 3.597657zm0 0" fill="#ffc5b0"/><path d="m382.699219 73.75-18.5 10.800781-107.597657 188.5-127-199.300781c.898438-1.5 2.199219-2.800781 3.699219-3.800781l117.300781-68.097657c3.199219-1.8007808 7.097657-1.8007808 10.296876 0l118 68.097657c1.601562 1 2.902343 2.300781 3.800781 3.800781zm0 0" fill="#9de7fc"/><path d="m384.101562 78.75-.300781 119.300781c0 3.699219-2 7-5.101562 8.898438l-14.5 8.402343-102.800781 59.699219c-1.597657.898438-3.398438 1.398438-5.097657 1.398438l.300781-129.398438 107.597657-62.5 18.5-10.800781c.902343 1.5 1.300781 3.199219 1.402343 5zm0 0" fill="#00c2f8"/><path d="m384.101562 78.75-.300781 119.300781c0 3.699219-2 7-5.101562 8.898438l-14.5 8.402343v-130.800781l18.5-10.800781c.902343 1.5 1.300781 3.199219 1.402343 5zm0 0" fill="#00abef"/><path d="m254.800781 278.949219-52.402343 65.101562-73.699219 8.097657-90.699219.902343-36.300781-74.101562c.902343-1.5 2.199219-2.800781 3.800781-3.800781l117.300781-68.097657c3.097657-1.800781 7-1.800781 10.097657-.101562l60.402343 21.199219 57.699219 47 .199219.101562c1.5.898438 2.699219 2.199219 3.601562 3.699219zm0 0" fill="#d6f1f2"/><path d="m256.601562 147.050781-.300781 129.398438c-1.699219 0-3.402343-.398438-5-1.300781l-14.601562-8.398438-103.800781-60c-3-1.800781-4.796876-5-4.898438-8.5l.300781-119.5c0-1.800781.5-3.601562 1.398438-5.101562l107.101562 61.800781zm0 0" fill="#1475cc"/><path d="m256.601562 147.050781-.300781 129.398438c-1.699219 0-3.402343-.398438-5-1.300781l-14.601562-8.398438v-131.199219zm0 0" fill="#0057a1"/><path d="m512 283.949219-.300781 119.300781c0 3.699219-2 7-5.097657 8.898438l-14.601562 8.5-102.601562 59.601562c-1.597657.898438-3.296876 1.398438-5.097657 1.398438l.300781-129.398438 107.398438-62.398438 18.699219-10.902343c.800781 1.5 1.300781 3.199219 1.300781 5zm0 0" fill="#ff966e"/><path d="m512 283.949219-.300781 119.300781c0 3.699219-2 7-5.097657 8.898438l-14.601562 8.5v-130.898438l18.699219-10.898438c.800781 1.597657 1.300781 3.296876 1.300781 5.097657zm0 0" fill="#ff6a3d"/><path d="m384.5 352.25-.300781 129.398438c-1.800781 0-3.597657-.5-5.199219-1.398438l-14.398438-8.300781-103.601562-59.800781c-3.101562-1.796876-5-5-5.199219-8.597657l.300781-119.5c0-1.800781.5-3.601562 1.398438-5.101562l107.101562 61.800781zm0 0" fill="#ff6a3d"/><path d="m384.5 352.25-.300781 129.398438c-1.800781 0-3.597657-.5-5.199219-1.398438l-14.398438-8.300781v-131.199219zm0 0" fill="#ed462f"/><path d="m256.199219 283.648438-.300781 119.601562c0 3.699219-2 7-5.097657 8.898438l-14.300781 8.300781-103.199219 59.902343c-1.5.796876-3.199219 1.296876-4.902343 1.296876l.300781-129.398438 107.800781-62.601562 18.398438-10.699219c.703124 1.402343 1.203124 3 1.300781 4.699219zm0 0" fill="#90bac4"/><path d="m256.199219 283.648438-.300781 119.601562c0 3.699219-2 7-5.097657 8.898438l-14.300781 8.300781v-130.898438l18.398438-10.699219c.703124 1.5 1.203124 3.097657 1.300781 4.796876zm0 0" fill="#7da2b0"/><path d="m128.699219 352.25-.300781 129.398438c-1.796876 0-3.597657-.5-5.199219-1.398438l-14.398438-8.300781-103.601562-59.800781c-3.199219-1.796876-5.097657-5.097657-5.199219-8.699219l.300781-119.398438c0-1.800781.5-3.601562 1.398438-5.101562l107.101562 61.800781zm0 0" fill="#688d97"/><path d="m128.699219 352.25-.300781 129.398438c-1.796876 0-3.597657-.5-5.199219-1.398438l-14.398438-8.300781v-131.199219zm0 0" fill="#557983"/></svg>