<svg width="45" height="32" viewBox="0 0 45 32" fill="none" xmlns="http://www.w3.org/2000/svg">
<path d="M1.24254 31.9701C4.95742 31.0414 7.37997 29.2578 9.01685 27.0295C10.6298 24.8339 11.4325 22.2682 12.0326 19.8675C12.6514 17.3924 13.0395 15.2001 13.8041 13.3889C14.5365 11.654 15.539 10.4721 17.2822 9.95937L16.7178 8.04063C14.211 8.77794 12.8385 10.5335 11.9615 12.6111C11.1167 14.6124 10.6611 17.1076 10.0924 19.3825C9.50502 21.7318 8.77646 23.9786 7.40503 25.8455C6.05753 27.6797 4.04258 29.2086 0.757464 30.0299L1.24254 31.9701ZM17.2822 9.95937C18.1952 9.69082 18.8539 9.72299 19.3494 9.89124C19.8467 10.0601 20.2863 10.4023 20.6962 10.9413C21.5572 12.0735 22.1215 13.8332 22.7301 15.8512C23.3058 17.76 23.9261 19.9216 24.9621 21.4451C25.4968 22.2313 26.1841 22.9163 27.0974 23.3099C28.0219 23.7084 29.0721 23.7628 30.2425 23.4701L29.7575 21.5299C28.9279 21.7372 28.3375 21.6666 27.889 21.4733C27.4292 21.2751 27.011 20.9015 26.616 20.3205C25.7926 19.1097 25.2567 17.3025 24.6449 15.2738C24.066 13.3543 23.4115 11.2078 22.2882 9.73061C21.7059 8.96491 20.9619 8.32662 19.9924 7.99743C19.0211 7.66763 17.9298 7.68418 16.7178 8.04063L17.2822 9.95937ZM30.2425 23.4701C32.5824 22.8852 34.0599 21.3949 35.1057 19.5379C36.1239 17.7299 36.7812 15.4823 37.4556 13.2956C38.8405 8.80533 40.3754 4.33421 44.9708 1.88227L44.0292 0.117735C38.6246 3.00152 36.9095 8.28041 35.5444 12.7062C34.8438 14.9776 34.2511 16.9795 33.363 18.5565C32.5026 20.0845 31.4176 21.1148 29.7575 21.5299L30.2425 23.4701Z" fill="black"/>
</svg>
