<svg width="93" height="36" viewBox="0 0 186 36" fill="none" xmlns="http://www.w3.org/2000/svg">
<g filter="url(#filter0_d)">
<path d="M1.128 32.984H4.92V19.16H11.064L19.08 32.984H23.4L14.856 18.488V18.248C18.84 17 21.144 14.408 21.144 9.8C21.144 3.992 17.592 0.775996 10.488 0.775996H1.128V32.984ZM4.92 16.184V3.992H10.2C15.144 3.992 17.112 5.864 17.112 9.848C17.112 14.024 15.288 16.184 10.248 16.184H4.92Z" fill="black"/>
<path d="M28.926 32.984H48.174V29.768H32.718V18.008H44.526V14.792H32.718V3.992H48.03V0.775996H28.926V32.984Z" fill="black"/>
<path d="M62.1806 33.56C69.7166 33.56 72.9806 29.816 72.9806 24.2C72.9806 18.776 69.9566 16.76 65.2046 15.128L62.0366 14.12C58.3886 12.872 57.2366 11.528 57.2366 8.456C57.2366 5.384 59.4446 3.464 63.3806 3.464C66.9326 3.464 69.4766 4.376 71.3486 5.24V2.024C69.5726 1.16 67.3166 0.247997 63.5246 0.247997C56.8046 0.247997 53.4926 3.8 53.4926 8.792C53.4926 13.688 56.0366 15.992 60.5486 17.48L63.6686 18.584C67.5566 19.832 69.1406 21.176 69.1406 24.488C69.1406 27.992 66.9806 30.296 62.0366 30.296C58.6286 30.296 55.4606 29.432 53.0126 28.184V31.4C55.1726 32.6 58.2446 33.56 62.1806 33.56Z" fill="black"/>
<path d="M91.6961 33.512C100.528 33.512 105.856 27.416 105.856 17.288V16.52C105.856 5.96 100.528 0.247997 91.8401 0.247997C82.9601 0.247997 77.6321 6.344 77.6321 16.472V17.24C77.6321 27.8 82.9601 33.512 91.6961 33.512ZM91.7921 30.392C84.5921 30.392 81.7121 25.016 81.7121 17.24V15.752C81.7121 8.552 85.0241 3.368 91.6481 3.368C98.9441 3.416 101.776 8.696 101.776 16.52V18.008C101.776 25.16 98.4641 30.392 91.7921 30.392Z" fill="black"/>
<path d="M112.269 32.984H130.653V29.768H116.109V0.775996H112.269V32.984Z" fill="black"/>
<path d="M144.999 32.984H148.551L160.215 0.775996H156.615L147.015 27.848H146.919L137.271 0.775996H133.335L144.999 32.984Z" fill="black"/>
<path d="M165.332 32.984H184.58V29.768H169.124V18.008H180.932V14.792H169.124V3.992H184.436V0.775996H165.332V32.984Z" fill="black"/>
<path d="M141 16H153" stroke="black" stroke-width="3"/>
</g>
<defs>
<filter id="filter0_d" x="0.128" y="0.247997" width="185.452" height="35.312" filterUnits="userSpaceOnUse" color-interpolation-filters="sRGB">
<feFlood flood-opacity="0" result="BackgroundImageFix"/>
<feColorMatrix in="SourceAlpha" type="matrix" values="0 0 0 0 0 0 0 0 0 0 0 0 0 0 0 0 0 0 127 0"/>
<feOffset dy="1"/>
<feGaussianBlur stdDeviation="0.5"/>
<feColorMatrix type="matrix" values="0 0 0 0 0 0 0 0 0 0 0 0 0 0 0 0 0 0 0.25 0"/>
<feBlend mode="normal" in2="BackgroundImageFix" result="effect1_dropShadow"/>
<feBlend mode="normal" in="SourceGraphic" in2="effect1_dropShadow" result="shape"/>
</filter>
</defs>
</svg>
