<svg xmlns="http://www.w3.org/2000/svg" height="300px" width="300px" fill="#000000" version="1.1" viewBox="0 0 32 32" x="0px" y="0px"><title>minimixe</title><path d="M10.286 0.003c-0.623 0.010-1.125 0.518-1.125 1.143 0 0.006 0 0.012 0 0.018v-0.001 6.382l-7.191-7.191c-0.207-0.207-0.492-0.334-0.808-0.334-0.631 0-1.143 0.512-1.143 1.143 0 0.316 0.128 0.602 0.335 0.808l7.191 7.191h-6.383c-0.005 0-0.010 0-0.016 0-0.631 0-1.143 0.511-1.143 1.143s0.512 1.143 1.143 1.143c0.006 0 0.011 0 0.017 0h9c0.045 0.006 0.098 0.010 0.151 0.010 0 0 0.001 0 0.001 0v0 0.001c0.631-0.001 1.142-0.512 1.142-1.143 0-0.056-0.004-0.111-0.012-0.166l0.001 0.006v-8.992c0-0.005 0-0.011 0-0.017 0-0.631-0.511-1.143-1.143-1.143-0.006 0-0.013 0-0.019 0h0.001zM21.7 0.003c-0.624 0.009-1.126 0.518-1.126 1.143 0 0.006 0 0.012 0 0.018v-0.001 9c-0.006 0.045-0.010 0.098-0.010 0.151 0 0.631 0.511 1.143 1.143 1.143 0.011 0 0.023 0 0.034-0.001h-0.002c0.044-0.001 0.086-0.005 0.127-0.011l-0.006 0.001h8.998c0.005 0 0.010 0 0.016 0 0.631 0 1.143-0.511 1.143-1.143s-0.511-1.143-1.143-1.143c-0.006 0-0.011 0-0.017 0h-6.382l7.191-7.191c0.207-0.207 0.335-0.492 0.335-0.808 0-0.631-0.512-1.143-1.143-1.143-0.315 0-0.601 0.128-0.808 0.334l-7.191 7.191v-6.382c0-0.005 0-0.011 0-0.017 0-0.631-0.511-1.143-1.143-1.143-0.006 0-0.012 0-0.018 0h0.001zM21.708 20.562c-0.121 0-0.237 0.019-0.346 0.054l0.008-0.002c-0.001 0-0.001 0-0.001 0s-0.001 0-0.001 0v0c-0.043 0.013-0.078 0.026-0.113 0.041l0.007-0.003c-0.004 0.003-0.006 0.005-0.009 0.007l0.002-0.001c-0.039 0.017-0.071 0.033-0.102 0.050l0.006-0.003c0-0.001-0.001 0.002-0.003 0.003l-0.002 0.002c-0.059 0.033-0.109 0.066-0.157 0.103l0.002-0.002c-0.016 0.013-0.030 0.025-0.043 0.037l0.001-0.001c-0.026 0.022-0.049 0.044-0.071 0.067v0c0.002-0.003 0.001-0.001-0.001 0.001l-0.003 0.005c-0.050 0.052-0.096 0.109-0.135 0.171l-0.003 0.005c-0.001 0-0.001 0-0.001 0s-0.001 0-0.001 0v0c-0.017 0.026-0.036 0.058-0.053 0.091l-0.003 0.006c0 0-0.001 0-0.001 0s-0.001 0-0.001 0v0c-0.031 0.060-0.059 0.13-0.079 0.203l-0.002 0.008c0.001-0.006 0.001-0.003 0-0.002l-0.001 0.007c-0.023 0.082-0.037 0.175-0.039 0.272v0.001c0 0.004 0 0.009 0 0.013s0 0.010 0 0.014v-0.001 9.141c0 0.005 0 0.010 0 0.015 0 0.631 0.511 1.143 1.143 1.143 0.006 0 0.012 0 0.018 0h-0.001v-0.003c0.624-0.010 1.126-0.518 1.126-1.143 0-0.006 0-0.011 0-0.017v0.001-6.383l7.191 7.191c0.208 0.214 0.498 0.346 0.819 0.346 0.001 0 0.001 0 0.001 0v0c0.631-0.001 1.141-0.512 1.141-1.143 0-0.321-0.133-0.611-0.346-0.819l-7.189-7.191h6.382c0.005 0 0.010 0 0.016 0 0.631 0 1.143-0.511 1.143-1.143s-0.511-1.143-1.143-1.143c-0.006 0-0.011 0-0.017 0h-9.14zM1.174 20.564c-0.005 0-0.010 0-0.016 0-0.631 0-1.143 0.511-1.143 1.143s0.512 1.143 1.143 1.143c0.006 0 0.011 0 0.017 0h6.38l-7.189 7.191c-0.213 0.208-0.345 0.498-0.345 0.818 0 0.631 0.512 1.143 1.143 1.143 0.011 0 0.023 0 0.034-0.001h-0.002c0.308-0.009 0.585-0.139 0.786-0.345l7.191-7.191v6.383c0 0.005 0 0.010 0 0.015 0 0.631 0.511 1.143 1.143 1.143 0.006 0 0.012 0 0.018 0h-0.001c0.623-0.010 1.125-0.518 1.125-1.143 0-0.006 0-0.011 0-0.017v0.001-9.141c0-0.001 0-0.002 0-0.003s0-0.002 0-0.003v0c0-0.033-0.002-0.066-0.005-0.098l0.001 0.005c0-0.002 0-0.005 0-0.007s0-0.005 0-0.007v0.001c-0.003-0.034-0.008-0.063-0.013-0.092l0.001 0.007c-0.003-0.018-0.005-0.029-0.007-0.039l0.001 0.007c-0.024-0.111-0.061-0.21-0.109-0.3l0.003 0.006c-0.007-0.015-0.012-0.023-0.017-0.031l0.003 0.006c-0.017-0.030-0.031-0.054-0.047-0.078l0.003 0.004c-0.007-0.012-0.012-0.019-0.017-0.026l0.003 0.004c-0.064-0.091-0.137-0.17-0.22-0.237l-0.002-0.002c-0.004-0.004-0.007-0.007-0.011-0.011v0c-0.186-0.147-0.422-0.238-0.679-0.244h-0.001c-0.004 0-0.009 0-0.013 0s-0.010 0-0.014 0h-9.14z"/></svg>