<svg width="512" height="512" viewBox="0 0 512 512" fill="none" xmlns="http://www.w3.org/2000/svg">
<circle cx="256" cy="256" r="256" fill="#FEFEFE"/>
<circle cx="256" cy="256" r="242.526" stroke="#B9BFC5" stroke-width="26.9474"/>
<g filter="url(#filter0_i)">
<path d="M276.5 70.55C271.65 71.25 262.6 74.95 256.1 78.9C252 81.4 244.35 88.4 241.4 92.35C235.5 100.35 232.65 108 231.45 119.25C229.6 136.8 236.1 161.6 251.65 196.25C254.1 201.75 256.85 207.7 257.75 209.5C260.55 215.1 260.75 214.6 254.9 216.75C234.95 224.15 216.95 234.2 204.75 244.65C175 270.3 156.35 302.55 151.25 337.45C147.95 359.9 150.3 379.65 158.25 396.3C169.65 420.05 191.3 436.2 218 440.85C224 441.9 241.1 442.05 246.25 441.1C269.25 436.85 292 418.4 308.7 390.5C323.25 366.25 332.4 338.05 335.2 308.7C337.1 289.35 336.65 274.3 333.7 258.75C331.15 245.25 323.55 229.5 311.25 212.2C309.1 209.25 303.55 201.95 298.85 196.05C286.75 180.75 286.2 180.05 280.4 172C268.05 154.9 259.95 141.75 255.9 132.2C252.65 124.65 251.8 121.15 251.75 115.7C251.75 111.55 251.9 110.95 253.5 107.7C256.95 100.9 263.55 95.85 271.2 94.2C275.5 93.25 282.75 93.3 286.05 94.3C292 96.1 299.4 100.75 311 110.05C319.9 117.2 323.15 119.4 327.85 121.65C330.85 123.05 331.85 123.25 336.25 123.4C341.9 123.6 345.9 122.6 350 120C354.75 116.95 359.1 111.15 360.75 105.6C363.35 97 361.45 89.35 355.7 85.6C352.45 83.45 349.95 82.7 330.45 78.3C296.35 70.65 285.9 69.15 276.5 70.55ZM278.95 253.75C285.45 268.5 289.95 284.9 292.05 301.75C293 308.95 292.85 328.25 291.85 336.25C289.55 354.45 284.35 372.1 276.5 388.25C267.1 407.5 255.5 419.4 243.35 422.2C239.05 423.2 230.55 423.25 225.25 422.3C201.9 418.1 188.5 398.9 188.5 369.75C188.5 355 192.9 332.9 200.7 308.2C210.1 278.55 224.6 257.05 244 244.15C250.05 240.15 253.3 238.45 261.25 235.2L268.75 232.1L271.85 238.45C273.55 241.9 276.75 248.8 278.95 253.75Z" fill="#B9BFC5"/>
</g>
<defs>
<filter id="filter0_i" x="149.803" y="70.0815" width="212.09" height="371.651" filterUnits="userSpaceOnUse" color-interpolation-filters="sRGB">
<feFlood flood-opacity="0" result="BackgroundImageFix"/>
<feBlend mode="normal" in="SourceGraphic" in2="BackgroundImageFix" result="shape"/>
<feColorMatrix in="SourceAlpha" type="matrix" values="0 0 0 0 0 0 0 0 0 0 0 0 0 0 0 0 0 0 127 0" result="hardAlpha"/>
<feOffset/>
<feGaussianBlur stdDeviation="4.49123"/>
<feComposite in2="hardAlpha" operator="arithmetic" k2="-1" k3="1"/>
<feColorMatrix type="matrix" values="0 0 0 0 0 0 0 0 0 0 0 0 0 0 0 0 0 0 0.25 0"/>
<feBlend mode="normal" in2="shape" result="effect1_innerShadow"/>
</filter>
</defs>
</svg>
