<svg width="1024" height="1024" viewBox="0 0 1024 1024" fill="none" xmlns="http://www.w3.org/2000/svg">
<circle cx="512" cy="512" r="456" fill="#FEFEFE"/>
<circle cx="512" cy="512" r="432" stroke="#B9BFC5" stroke-width="48"/>
<g filter="url(#filter0_i)">
<path d="M548.516 181.667C539.877 182.914 523.756 189.505 512.178 196.541C504.875 200.994 491.248 213.463 485.994 220.498C475.484 234.748 470.408 248.375 468.27 268.414C464.975 299.675 476.553 343.85 504.252 405.57C508.616 415.367 513.514 425.966 515.117 429.172C520.105 439.147 520.461 438.256 510.041 442.086C474.505 455.267 442.442 473.169 420.711 491.783C367.719 537.472 334.498 594.917 325.414 657.083C319.536 697.072 323.722 732.252 337.883 761.909C358.189 804.214 396.753 832.981 444.313 841.264C455 843.134 485.459 843.402 494.633 841.709C535.602 834.139 576.125 801.275 605.872 751.578C631.789 708.383 648.088 658.152 653.075 605.872C656.459 571.405 655.658 544.597 650.403 516.898C645.861 492.852 632.323 464.797 610.414 433.981C606.584 428.727 596.698 415.723 588.327 405.214C566.773 377.961 565.794 376.714 555.463 362.375C533.464 331.916 519.036 308.492 511.822 291.481C506.033 278.033 504.519 271.798 504.43 262.091C504.43 254.698 504.697 253.63 507.547 247.841C513.692 235.728 525.448 226.733 539.075 223.794C546.734 222.102 559.648 222.191 565.527 223.972C576.125 227.178 589.306 235.461 609.969 252.027C625.822 264.763 631.611 268.681 639.983 272.689C645.327 275.183 647.108 275.539 654.945 275.806C665.009 276.163 672.134 274.381 679.438 269.75C687.898 264.317 695.647 253.986 698.586 244.1C703.217 228.781 699.833 215.155 689.591 208.475C683.802 204.645 679.348 203.309 644.614 195.472C583.873 181.845 565.259 179.173 548.516 181.667ZM552.88 507.992C564.458 534.266 572.473 563.478 576.214 593.492C577.906 606.317 577.639 640.695 575.858 654.945C571.761 687.364 562.498 718.803 548.516 747.57C531.772 781.859 511.109 803.056 489.467 808.044C481.808 809.825 466.667 809.914 457.227 808.222C415.634 800.741 391.766 766.541 391.766 714.617C391.766 688.344 399.603 648.978 413.497 604.981C430.241 552.167 456.069 513.87 490.625 490.892C501.402 483.767 507.191 480.739 521.352 474.95L534.711 469.428L540.233 480.739C543.261 486.884 548.961 499.175 552.88 507.992Z" fill="#B9BFC5"/>
</g>
<defs>
<filter id="filter0_i" x="322.837" y="180.833" width="377.785" height="662.003" filterUnits="userSpaceOnUse" color-interpolation-filters="sRGB">
<feFlood flood-opacity="0" result="BackgroundImageFix"/>
<feBlend mode="normal" in="SourceGraphic" in2="BackgroundImageFix" result="shape"/>
<feColorMatrix in="SourceAlpha" type="matrix" values="0 0 0 0 0 0 0 0 0 0 0 0 0 0 0 0 0 0 127 0" result="hardAlpha"/>
<feOffset/>
<feGaussianBlur stdDeviation="8"/>
<feComposite in2="hardAlpha" operator="arithmetic" k2="-1" k3="1"/>
<feColorMatrix type="matrix" values="0 0 0 0 0 0 0 0 0 0 0 0 0 0 0 0 0 0 0.25 0"/>
<feBlend mode="normal" in2="shape" result="effect1_innerShadow"/>
</filter>
</defs>
</svg>
