<svg width="32" height="32" viewBox="0 0 32 32" fill="none" xmlns="http://www.w3.org/2000/svg">
<circle cx="16" cy="16" r="16" fill="#FEFEFE"/>
<circle cx="16" cy="16" r="15" stroke="#B9BFC5" stroke-width="2"/>
<g filter="url(#filter0_i)">
<path d="M17.2813 4.40938C16.9782 4.45313 16.4126 4.68438 16.0063 4.93125C15.7501 5.0875 15.272 5.525 15.0876 5.77188C14.7188 6.27188 14.5407 6.75 14.4657 7.45313C14.3501 8.55 14.7563 10.1 15.7282 12.2656C15.8813 12.6094 16.0532 12.9813 16.1095 13.0938C16.2845 13.4438 16.297 13.4125 15.9313 13.5469C14.6845 14.0094 13.5595 14.6375 12.797 15.2906C10.9376 16.8938 9.77197 18.9094 9.45322 21.0906C9.24697 22.4938 9.39384 23.7281 9.89072 24.7688C10.6032 26.2531 11.9563 27.2625 13.6251 27.5531C14.0001 27.6188 15.0688 27.6281 15.3907 27.5688C16.8282 27.3031 18.2501 26.15 19.2938 24.4063C20.2032 22.8906 20.7751 21.1281 20.9501 19.2938C21.0688 18.0844 21.0407 17.1438 20.8563 16.1719C20.697 15.3281 20.222 14.3438 19.4532 13.2625C19.3188 13.0781 18.972 12.6219 18.6782 12.2531C17.922 11.2969 17.8876 11.2531 17.5251 10.75C16.7532 9.68125 16.247 8.85938 15.9938 8.2625C15.7907 7.79063 15.7376 7.57188 15.7345 7.23125C15.7345 6.97188 15.7438 6.93438 15.8438 6.73125C16.0595 6.30625 16.472 5.99063 16.9501 5.8875C17.2188 5.82813 17.672 5.83125 17.8782 5.89375C18.2501 6.00625 18.7126 6.29688 19.4376 6.87813C19.9938 7.325 20.197 7.4625 20.4907 7.60313C20.6782 7.69063 20.7407 7.70313 21.0157 7.7125C21.3688 7.725 21.6188 7.6625 21.8751 7.5C22.172 7.30938 22.4438 6.94688 22.547 6.6C22.7095 6.0625 22.5907 5.58438 22.2313 5.35C22.0282 5.21563 21.872 5.16875 20.6532 4.89375C18.522 4.41563 17.8688 4.32188 17.2813 4.40938ZM17.4345 15.8594C17.8407 16.7813 18.122 17.8063 18.2532 18.8594C18.3126 19.3094 18.3032 20.5156 18.2407 21.0156C18.097 22.1531 17.772 23.2563 17.2813 24.2656C16.6938 25.4688 15.9688 26.2125 15.2095 26.3875C14.9407 26.45 14.4095 26.4531 14.0782 26.3938C12.6188 26.1313 11.7813 24.9313 11.7813 23.1094C11.7813 22.1875 12.0563 20.8063 12.5438 19.2625C13.1313 17.4094 14.0376 16.0656 15.2501 15.2594C15.6282 15.0094 15.8313 14.9031 16.3282 14.7L16.797 14.5063L16.9907 14.9031C17.097 15.1188 17.297 15.55 17.4345 15.8594Z" fill="#B9BFC5"/>
</g>
<defs>
<filter id="filter0_i" x="9.36279" y="4.38009" width="13.2556" height="23.2282" filterUnits="userSpaceOnUse" color-interpolation-filters="sRGB">
<feFlood flood-opacity="0" result="BackgroundImageFix"/>
<feBlend mode="normal" in="SourceGraphic" in2="BackgroundImageFix" result="shape"/>
<feColorMatrix in="SourceAlpha" type="matrix" values="0 0 0 0 0 0 0 0 0 0 0 0 0 0 0 0 0 0 127 0" result="hardAlpha"/>
<feOffset/>
<feGaussianBlur stdDeviation="1.11404"/>
<feComposite in2="hardAlpha" operator="arithmetic" k2="-1" k3="1"/>
<feColorMatrix type="matrix" values="0 0 0 0 0 0 0 0 0 0 0 0 0 0 0 0 0 0 0.25 0"/>
<feBlend mode="normal" in2="shape" result="effect1_innerShadow"/>
</filter>
</defs>
</svg>
