# Blender v2.91.0 OBJ File: 'shoebox.blend'
# www.blender.org
mtllib shoebox.mtl
o Cube.001_Cube.002
v -6.000000 -0.000000 2.830000
v 0.000000 4.000000 2.830001
v -6.000000 4.000000 2.830001
v 0.000000 -0.000000 2.830000
vt 0.875000 0.500000
vt 0.625000 0.500000
vt 0.625000 0.750000
vt 0.875000 0.750000
vn 0.0000 0.0000 -1.0000
usemtl None
s 1
f 1/1/1 3/2/1 2/3/1
f 1/1/1 2/3/1 4/4/1
o Cube.002_Cube.003
v 0.000000 4.000000 2.830001
v 0.000000 0.000000 0.000000
v 0.000000 4.000000 0.000001
v 0.000000 -0.000000 2.830000
vt 0.625000 0.750000
vt 0.375000 0.750000
vt 0.375000 1.000000
vt 0.625000 1.000000
vn -1.0000 0.0000 0.0000
usemtl None
s 1
f 5/5/2 7/6/2 6/7/2
f 5/5/2 6/7/2 8/8/2
o Cube.003_Cube.004
v -6.000000 4.000000 2.830001
v 0.000000 4.000000 0.000001
v -6.000000 4.000000 0.000001
v 0.000000 4.000000 2.830001
vt 0.625000 0.500000
vt 0.375000 0.500000
vt 0.375000 0.750000
vt 0.625000 0.750000
vn 0.0000 -1.0000 -0.0000
usemtl None
s 1
f 9/9/3 11/10/3 10/11/3
f 9/9/3 10/11/3 12/12/3
o Cube.004_Cube.005
v -6.000000 -0.000000 2.830000
v -6.000000 4.000000 0.000001
v -6.000000 0.000000 0.000000
v -6.000000 4.000000 2.830001
vt 0.625000 0.250000
vt 0.375000 0.250000
vt 0.375000 0.500000
vt 0.625000 0.500000
vn 1.0000 0.0000 0.0000
usemtl None
s 1
f 13/13/4 15/14/4 14/15/4
f 13/13/4 14/15/4 16/16/4
o Cube.005_Cube.006
v 0.000000 -0.000000 2.830000
v -6.000000 0.000000 0.000000
v 0.000000 0.000000 0.000000
v -6.000000 -0.000000 2.830000
vt 0.625000 0.000000
vt 0.375000 0.000000
vt 0.375000 0.250000
vt 0.625000 0.250000
vn 0.0000 1.0000 0.0000
usemtl None
s 1
f 17/17/5 19/18/5 18/19/5
f 17/17/5 18/19/5 20/20/5
o Cube.006_Cube.007
v -6.000000 4.000000 0.000001
v 0.000000 0.000000 0.000000
v -6.000000 0.000000 0.000000
v 0.000000 4.000000 0.000001
vt 0.375000 0.500000
vt 0.125000 0.500000
vt 0.125000 0.750000
vt 0.375000 0.750000
vn 0.0000 -0.0000 1.0000
usemtl None
s 1
f 21/21/6 23/22/6 22/23/6
f 21/21/6 22/23/6 24/24/6
