# Blender v2.91.0 OBJ File: ''
# www.blender.org
mtllib shoebox.mtl
o Cube.001_Cube.002
v 0.000000 0.000000 2.830000
v -6.000000 0.000000 2.830000
v 0.000000 4.000000 2.830000
v -6.000000 4.000000 2.830000
vt 0.875000 0.500000
vt 0.625000 0.750000
vt 0.625000 0.500000
vt 0.875000 0.750000
vn 0.0000 0.0000 1.0000
usemtl None
s off
f 2/1/1 3/2/1 4/3/1
f 2/1/1 1/4/1 3/2/1
o Cube.002_Cube.003
v 0.000000 0.000000 0.000000
v 0.000000 0.000000 2.830000
v 0.000000 4.000000 0.000000
v 0.000000 4.000000 2.830000
vt 0.625000 0.750000
vt 0.375000 1.000000
vt 0.375000 0.750000
vt 0.625000 1.000000
vn 1.0000 0.0000 0.0000
usemtl None
s off
f 8/5/2 5/6/2 7/7/2
f 8/5/2 6/8/2 5/6/2
o Cube.003_Cube.004
v 0.000000 4.000000 0.000000
v 0.000000 4.000000 2.830000
v -6.000000 4.000000 0.000000
v -6.000000 4.000000 2.830000
vt 0.625000 0.500000
vt 0.375000 0.750000
vt 0.375000 0.500000
vt 0.625000 0.750000
vn 0.0000 1.0000 0.0000
usemtl None
s off
f 12/9/3 9/10/3 11/11/3
f 12/9/3 10/12/3 9/10/3
o Cube.004_Cube.005
v -6.000000 0.000000 0.000000
v -6.000000 0.000000 2.830000
v -6.000000 4.000000 0.000000
v -6.000000 4.000000 2.830000
vt 0.625000 0.250000
vt 0.375000 0.500000
vt 0.375000 0.250000
vt 0.625000 0.500000
vn -1.0000 0.0000 0.0000
usemtl None
s off
f 14/13/4 15/14/4 13/15/4
f 14/13/4 16/16/4 15/14/4
o Cube.005_Cube.006
v 0.000000 0.000000 0.000000
v 0.000000 0.000000 2.830000
v -6.000000 0.000000 0.000000
v -6.000000 0.000000 2.830000
vt 0.625000 0.000000
vt 0.375000 0.250000
vt 0.375000 0.000000
vt 0.625000 0.250000
vn 0.0000 -1.0000 0.0000
usemtl None
s off
f 18/17/5 19/18/5 17/19/5
f 18/17/5 20/20/5 19/18/5
o Cube.006_Cube.007
v 0.000000 0.000000 0.000000
v -6.000000 0.000000 0.000000
v 0.000000 4.000000 0.000000
v -6.000000 4.000000 0.000000
vt 0.375000 0.500000
vt 0.125000 0.750000
vt 0.125000 0.500000
vt 0.375000 0.750000
vn 0.0000 0.0000 -1.0000
usemtl None
s off
f 24/21/6 21/22/6 22/23/6
f 24/21/6 23/24/6 21/22/6
